%TF.GenerationSoftware,KiCad,Pcbnew,10.0.5*%
%TF.CreationDate,2026-09-17T20:02:05+02:00*%
%TF.ProjectId,Fan Controller,46616e20-436f-46e7-9472-6f6c6c65722e,rev?*%
%TF.SameCoordinates,Original*%
%TF.FileFunction,Paste,Top*%
%TF.FilePolarity,Positive*%
%FSLAX46Y46*%
G04 Gerber Fmt 4.6, Leading zero omitted, Abs format (unit mm)*
G04 Created by KiCad (PCBNEW 10.0.5) date 2026-09-17 20:02:05*
%MOMM*%
%LPD*%
G01*
G04 APERTURE LIST*
G04 Aperture macros list*
%AMRoundRect*
0 Rectangle with rounded corners*
0 $1 Rounding radius*
0 $2 $3 $4 $5 $6 $7 $8 $9 X,Y pos of 4 corners*
0 Add a 4 corners polygon primitive as box body*
4,1,4,$2,$3,$4,$5,$6,$7,$8,$9,$2,$3,0*
0 Add four circle primitives for the rounded corners*
1,1,$1+$1,$2,$3*
1,1,$1+$1,$4,$5*
1,1,$1+$1,$6,$7*
1,1,$1+$1,$8,$9*
0 Add four rect primitives between the rounded corners*
20,1,$1+$1,$2,$3,$4,$5,0*
20,1,$1+$1,$4,$5,$6,$7,0*
20,1,$1+$1,$6,$7,$8,$9,0*
20,1,$1+$1,$8,$9,$2,$3,0*%
G04 Aperture macros list end*
%ADD10RoundRect,0.250000X0.450000X-0.262500X0.450000X0.262500X-0.450000X0.262500X-0.450000X-0.262500X0*%
%ADD11RoundRect,0.250000X-0.450000X0.262500X-0.450000X-0.262500X0.450000X-0.262500X0.450000X0.262500X0*%
%ADD12RoundRect,0.250000X1.500000X0.550000X-1.500000X0.550000X-1.500000X-0.550000X1.500000X-0.550000X0*%
%ADD13RoundRect,0.250000X-0.550000X1.500000X-0.550000X-1.500000X0.550000X-1.500000X0.550000X1.500000X0*%
%ADD14RoundRect,0.250000X-0.250000X-0.475000X0.250000X-0.475000X0.250000X0.475000X-0.250000X0.475000X0*%
%ADD15RoundRect,0.250000X0.262500X0.450000X-0.262500X0.450000X-0.262500X-0.450000X0.262500X-0.450000X0*%
%ADD16R,2.200000X1.500000*%
%ADD17RoundRect,0.250000X0.250000X0.475000X-0.250000X0.475000X-0.250000X-0.475000X0.250000X-0.475000X0*%
%ADD18RoundRect,0.250000X0.325000X0.650000X-0.325000X0.650000X-0.325000X-0.650000X0.325000X-0.650000X0*%
%ADD19RoundRect,0.225000X0.250000X-0.225000X0.250000X0.225000X-0.250000X0.225000X-0.250000X-0.225000X0*%
%ADD20RoundRect,0.250000X-0.475000X0.250000X-0.475000X-0.250000X0.475000X-0.250000X0.475000X0.250000X0*%
%ADD21RoundRect,0.068750X-0.551250X-0.206250X0.551250X-0.206250X0.551250X0.206250X-0.551250X0.206250X0*%
%ADD22RoundRect,0.250000X0.475000X-0.250000X0.475000X0.250000X-0.475000X0.250000X-0.475000X-0.250000X0*%
%ADD23RoundRect,0.250000X0.325000X1.100000X-0.325000X1.100000X-0.325000X-1.100000X0.325000X-1.100000X0*%
%ADD24R,0.939800X2.489200*%
%ADD25R,5.511800X4.800600*%
%ADD26RoundRect,0.250000X-0.650000X0.325000X-0.650000X-0.325000X0.650000X-0.325000X0.650000X0.325000X0*%
%ADD27RoundRect,0.225000X-0.225000X-0.375000X0.225000X-0.375000X0.225000X0.375000X-0.225000X0.375000X0*%
%ADD28RoundRect,0.250000X-1.000000X-0.650000X1.000000X-0.650000X1.000000X0.650000X-1.000000X0.650000X0*%
%ADD29RoundRect,0.250000X-0.262500X-0.450000X0.262500X-0.450000X0.262500X0.450000X-0.262500X0.450000X0*%
%ADD30RoundRect,0.250000X1.100000X-0.325000X1.100000X0.325000X-1.100000X0.325000X-1.100000X-0.325000X0*%
%ADD31R,1.850000X3.400000*%
%ADD32RoundRect,0.272500X1.287500X-0.817500X1.287500X0.817500X-1.287500X0.817500X-1.287500X-0.817500X0*%
%ADD33RoundRect,0.150000X-0.150000X0.512500X-0.150000X-0.512500X0.150000X-0.512500X0.150000X0.512500X0*%
%ADD34RoundRect,0.250000X-0.325000X-1.100000X0.325000X-1.100000X0.325000X1.100000X-0.325000X1.100000X0*%
G04 APERTURE END LIST*
D10*
%TO.C,R5*%
X164500000Y-73412500D03*
X164500000Y-71587500D03*
%TD*%
D11*
%TO.C,R9*%
X170000000Y-44587500D03*
X170000000Y-46412500D03*
%TD*%
D12*
%TO.C,C19*%
X178700000Y-106000000D03*
X173300000Y-106000000D03*
%TD*%
D13*
%TO.C,C3*%
X156750000Y-91550000D03*
X156750000Y-96950000D03*
%TD*%
D11*
%TO.C,R7*%
X162500000Y-71587500D03*
X162500000Y-73412500D03*
%TD*%
D10*
%TO.C,R8*%
X174500000Y-74412500D03*
X174500000Y-72587500D03*
%TD*%
D14*
%TO.C,C5*%
X159500000Y-78250000D03*
X161400000Y-78250000D03*
%TD*%
D15*
%TO.C,R2*%
X165912500Y-76500000D03*
X164087500Y-76500000D03*
%TD*%
D16*
%TO.C,L1*%
X172612500Y-99200000D03*
X172612500Y-95000000D03*
%TD*%
D17*
%TO.C,C10*%
X170030000Y-71500000D03*
X168130000Y-71500000D03*
%TD*%
D18*
%TO.C,C11*%
X167087500Y-102200000D03*
X164137500Y-102200000D03*
%TD*%
D15*
%TO.C,R1*%
X161412500Y-81000000D03*
X159587500Y-81000000D03*
%TD*%
D19*
%TO.C,C14*%
X174185000Y-117025000D03*
X174185000Y-115475000D03*
%TD*%
D20*
%TO.C,C18*%
X162112500Y-100350000D03*
X162112500Y-102250000D03*
%TD*%
D21*
%TO.C,U2*%
X164527500Y-98150000D03*
X164527500Y-99100000D03*
X164527500Y-100050000D03*
X166897500Y-100050000D03*
X166897500Y-99100000D03*
X166897500Y-98150000D03*
%TD*%
D22*
%TO.C,C4*%
X160000000Y-109950000D03*
X160000000Y-108050000D03*
%TD*%
D23*
%TO.C,C9*%
X167087500Y-95300000D03*
X164137500Y-95300000D03*
%TD*%
D14*
%TO.C,C13*%
X170050000Y-119312500D03*
X171950000Y-119312500D03*
%TD*%
%TO.C,C2*%
X177550000Y-70500000D03*
X179450000Y-70500000D03*
%TD*%
D24*
%TO.C,Q1*%
X163530001Y-112856500D03*
D25*
X161250000Y-120514600D03*
D24*
X158969999Y-112856500D03*
%TD*%
D11*
%TO.C,R10*%
X168000000Y-44587500D03*
X168000000Y-46412500D03*
%TD*%
D26*
%TO.C,C12*%
X167800000Y-117525000D03*
X167800000Y-120475000D03*
%TD*%
D10*
%TO.C,R11*%
X166000000Y-113412500D03*
X166000000Y-111587500D03*
%TD*%
D27*
%TO.C,D3*%
X161850000Y-109500000D03*
X165150000Y-109500000D03*
%TD*%
D28*
%TO.C,D1*%
X171000000Y-91750000D03*
X175000000Y-91750000D03*
%TD*%
D19*
%TO.C,C7*%
X168887500Y-99450000D03*
X168887500Y-97900000D03*
%TD*%
D11*
%TO.C,R12*%
X174000000Y-111887500D03*
X174000000Y-113712500D03*
%TD*%
D10*
%TO.C,R6*%
X174500000Y-78912500D03*
X174500000Y-77087500D03*
%TD*%
D21*
%TO.C,U4*%
X170015000Y-115362500D03*
X170015000Y-116312500D03*
X170015000Y-117262500D03*
X172385000Y-117262500D03*
X172385000Y-116312500D03*
X172385000Y-115362500D03*
%TD*%
D29*
%TO.C,R4*%
X154087500Y-72000000D03*
X155912500Y-72000000D03*
%TD*%
D30*
%TO.C,C16*%
X180600000Y-115475000D03*
X180600000Y-112525000D03*
%TD*%
D31*
%TO.C,L2*%
X176425000Y-119912500D03*
X181975000Y-119912500D03*
%TD*%
D20*
%TO.C,C17*%
X171800000Y-111850000D03*
X171800000Y-113750000D03*
%TD*%
D23*
%TO.C,C8*%
X167087500Y-91300000D03*
X164137500Y-91300000D03*
%TD*%
D32*
%TO.C,D2*%
X155500000Y-102515000D03*
X155500000Y-109485000D03*
%TD*%
D30*
%TO.C,C15*%
X177000000Y-115387500D03*
X177000000Y-112437500D03*
%TD*%
D33*
%TO.C,U3*%
X159450000Y-73612500D03*
X158500000Y-73612500D03*
X157550000Y-73612500D03*
X157550000Y-75887500D03*
X158500000Y-75887500D03*
X159450000Y-75887500D03*
%TD*%
D15*
%TO.C,R3*%
X159412500Y-71500000D03*
X157587500Y-71500000D03*
%TD*%
D34*
%TO.C,C1*%
X177525000Y-67500000D03*
X180475000Y-67500000D03*
%TD*%
D10*
%TO.C,R13*%
X169600000Y-113712500D03*
X169600000Y-111887500D03*
%TD*%
M02*
