%TF.GenerationSoftware,KiCad,Pcbnew,10.0.5*%
%TF.CreationDate,2026-09-17T20:02:05+02:00*%
%TF.ProjectId,Fan Controller,46616e20-436f-46e7-9472-6f6c6c65722e,rev?*%
%TF.SameCoordinates,Original*%
%TF.FileFunction,Copper,L3,Inr*%
%TF.FilePolarity,Positive*%
%FSLAX46Y46*%
G04 Gerber Fmt 4.6, Leading zero omitted, Abs format (unit mm)*
G04 Created by KiCad (PCBNEW 10.0.5) date 2026-09-17 20:02:05*
%MOMM*%
%LPD*%
G01*
G04 APERTURE LIST*
G04 Aperture macros list*
%AMRoundRect*
0 Rectangle with rounded corners*
0 $1 Rounding radius*
0 $2 $3 $4 $5 $6 $7 $8 $9 X,Y pos of 4 corners*
0 Add a 4 corners polygon primitive as box body*
4,1,4,$2,$3,$4,$5,$6,$7,$8,$9,$2,$3,0*
0 Add four circle primitives for the rounded corners*
1,1,$1+$1,$2,$3*
1,1,$1+$1,$4,$5*
1,1,$1+$1,$6,$7*
1,1,$1+$1,$8,$9*
0 Add four rect primitives between the rounded corners*
20,1,$1+$1,$2,$3,$4,$5,0*
20,1,$1+$1,$4,$5,$6,$7,0*
20,1,$1+$1,$6,$7,$8,$9,0*
20,1,$1+$1,$8,$9,$2,$3,0*%
G04 Aperture macros list end*
%TA.AperFunction,ComponentPad*%
%ADD10RoundRect,0.250000X0.350000X0.625000X-0.350000X0.625000X-0.350000X-0.625000X0.350000X-0.625000X0*%
%TD*%
%TA.AperFunction,ComponentPad*%
%ADD11O,1.200000X1.750000*%
%TD*%
%TA.AperFunction,ComponentPad*%
%ADD12C,1.574800*%
%TD*%
%TA.AperFunction,ComponentPad*%
%ADD13R,2.325000X2.325000*%
%TD*%
%TA.AperFunction,ComponentPad*%
%ADD14C,2.325000*%
%TD*%
%TA.AperFunction,ComponentPad*%
%ADD15RoundRect,0.250000X-0.350000X-0.625000X0.350000X-0.625000X0.350000X0.625000X-0.350000X0.625000X0*%
%TD*%
%TA.AperFunction,ComponentPad*%
%ADD16C,1.140000*%
%TD*%
%TA.AperFunction,ComponentPad*%
%ADD17RoundRect,0.250000X-0.600000X-0.750000X0.600000X-0.750000X0.600000X0.750000X-0.600000X0.750000X0*%
%TD*%
%TA.AperFunction,ComponentPad*%
%ADD18O,1.700000X2.000000*%
%TD*%
%TA.AperFunction,ViaPad*%
%ADD19C,0.600000*%
%TD*%
G04 APERTURE END LIST*
D10*
%TO.N,/+3V3*%
%TO.C,J6*%
X164500000Y-48000000D03*
D11*
%TO.N,GND*%
X162500000Y-48000000D03*
%TO.N,/GPIO5*%
X160500000Y-48000000D03*
%TO.N,/GPIO10*%
X158500000Y-48000000D03*
%TO.N,/GPIO20*%
X156500000Y-48000000D03*
%TO.N,/GPIO21*%
X154500000Y-48000000D03*
%TD*%
D12*
%TO.N,GND*%
%TO.C,J3*%
X169400750Y-87080000D03*
%TO.N,/+12V_FAN*%
X169400750Y-84540000D03*
%TO.N,Net-(J3-Pin_3)*%
X169400750Y-82000000D03*
%TO.N,/FAN2_PWM*%
X169400750Y-79460000D03*
%TD*%
D13*
%TO.N,/+12V*%
%TO.C,F1*%
X166400000Y-128500000D03*
D14*
%TO.N,/12V_RAW_FUSED*%
X174400000Y-128500000D03*
%TD*%
D15*
%TO.N,GND*%
%TO.C,J5*%
X170500000Y-40450000D03*
D11*
%TO.N,/+3V3*%
X172500000Y-40450000D03*
%TO.N,/I2C_SDA*%
X174500000Y-40450000D03*
%TO.N,/I2C_SCL*%
X176500000Y-40450000D03*
%TD*%
D12*
%TO.N,GND*%
%TO.C,J2*%
X155000000Y-87080000D03*
%TO.N,/+12V_FAN*%
X155000000Y-84540000D03*
%TO.N,Net-(J2-Pin_3)*%
X155000000Y-82000000D03*
%TO.N,/FAN1_PWM*%
X155000000Y-79460000D03*
%TD*%
D16*
%TO.N,/FAN2_PWM_GPIO*%
%TO.C,U1*%
X155110000Y-68120000D03*
%TO.N,/FAN1_PWM_GPIO*%
X157650000Y-68120000D03*
%TO.N,/GPIO2*%
X160190000Y-68120000D03*
%TO.N,/FAN1_TACH_GPIO*%
X162730000Y-68120000D03*
%TO.N,/+3V3*%
X167810000Y-68120000D03*
%TO.N,/FAN2_TACH_GPIO*%
X165270000Y-68120000D03*
%TO.N,/GPIO5*%
X172890000Y-52880000D03*
%TO.N,/+5V_SYS*%
X172890000Y-68120000D03*
%TO.N,/I2C_SDA*%
X170350000Y-52880000D03*
%TO.N,/I2C_SCL*%
X167810000Y-52880000D03*
%TO.N,/GPIO8*%
X165270000Y-52880000D03*
%TO.N,/GPIO9*%
X162730000Y-52880000D03*
%TO.N,/GPIO10*%
X160190000Y-52880000D03*
%TO.N,/GPIO20*%
X157650000Y-52880000D03*
%TO.N,/GPIO21*%
X155110000Y-52880000D03*
%TO.N,GND*%
X170350000Y-68120000D03*
%TD*%
D17*
%TO.N,GND*%
%TO.C,J1*%
X155500000Y-128500000D03*
D18*
%TO.N,/+12V*%
X158000000Y-128500000D03*
%TD*%
D15*
%TO.N,GND*%
%TO.C,J4*%
X159500000Y-40450000D03*
D11*
%TO.N,/+3V3*%
X161500000Y-40450000D03*
%TO.N,/I2C_SDA*%
X163500000Y-40450000D03*
%TO.N,/I2C_SCL*%
X165500000Y-40450000D03*
%TD*%
D10*
%TO.N,/+3V3*%
%TO.C,J7*%
X181500000Y-48000000D03*
D11*
%TO.N,GND*%
X179500000Y-48000000D03*
%TO.N,/GPIO2*%
X177500000Y-48000000D03*
%TO.N,/GPIO8*%
X175500000Y-48000000D03*
%TO.N,/GPIO9*%
X173500000Y-48000000D03*
%TD*%
D19*
%TO.N,/+3V3*%
X160250000Y-77000000D03*
X174500000Y-71250000D03*
X159000000Y-77000000D03*
X161000000Y-73500000D03*
X167000000Y-71500000D03*
X168000000Y-48000000D03*
X170000000Y-48000000D03*
%TO.N,GND*%
X152500000Y-72000000D03*
X161400000Y-79650000D03*
X160750000Y-71500000D03*
X156923473Y-72583726D03*
%TO.N,/+12V_PROTECTED*%
X165612500Y-102200000D03*
X155500000Y-107000000D03*
X155000000Y-106500000D03*
X166000000Y-117500000D03*
X156000000Y-106500000D03*
X158250000Y-90000000D03*
%TD*%
%TA.AperFunction,Conductor*%
%TO.N,/+3V3*%
G36*
X183942539Y-38020185D02*
G01*
X183988294Y-38072989D01*
X183999500Y-38124500D01*
X183999500Y-55876000D01*
X183979815Y-55943039D01*
X183927011Y-55988794D01*
X183875500Y-56000000D01*
X175480000Y-56000000D01*
X175480000Y-65500000D01*
X183875500Y-65500000D01*
X183942539Y-65519685D01*
X183988294Y-65572489D01*
X183999500Y-65624000D01*
X183999500Y-81876000D01*
X183979815Y-81943039D01*
X183927011Y-81988794D01*
X183875500Y-82000000D01*
X170509768Y-82000000D01*
X170442729Y-81980315D01*
X170396974Y-81927511D01*
X170388151Y-81900191D01*
X170350687Y-81711847D01*
X170350686Y-81711840D01*
X170276216Y-81532054D01*
X170276215Y-81532053D01*
X170276212Y-81532047D01*
X170168102Y-81370250D01*
X170168099Y-81370246D01*
X170030503Y-81232650D01*
X170030499Y-81232647D01*
X169868702Y-81124537D01*
X169868693Y-81124532D01*
X169688910Y-81050064D01*
X169688902Y-81050062D01*
X169498054Y-81012100D01*
X169498050Y-81012100D01*
X169303450Y-81012100D01*
X169303445Y-81012100D01*
X169112597Y-81050062D01*
X169112589Y-81050064D01*
X168932806Y-81124532D01*
X168932797Y-81124537D01*
X168771000Y-81232647D01*
X168770996Y-81232650D01*
X168633400Y-81370246D01*
X168633397Y-81370250D01*
X168525287Y-81532047D01*
X168525282Y-81532056D01*
X168450814Y-81711839D01*
X168450812Y-81711847D01*
X168413349Y-81900191D01*
X168380965Y-81962102D01*
X168320249Y-81996676D01*
X168291732Y-82000000D01*
X168259311Y-82000000D01*
X168192272Y-81980315D01*
X168146517Y-81927511D01*
X168137694Y-81900191D01*
X168105434Y-81738012D01*
X168105433Y-81738005D01*
X168037725Y-81574543D01*
X167939427Y-81427431D01*
X167939424Y-81427427D01*
X167814322Y-81302325D01*
X167814318Y-81302322D01*
X167667204Y-81204023D01*
X167667202Y-81204022D01*
X167503749Y-81136318D01*
X167503737Y-81136315D01*
X167330219Y-81101800D01*
X167330215Y-81101800D01*
X167153285Y-81101800D01*
X167153280Y-81101800D01*
X166979762Y-81136315D01*
X166979750Y-81136318D01*
X166816297Y-81204022D01*
X166816295Y-81204023D01*
X166669181Y-81302322D01*
X166669177Y-81302325D01*
X166544075Y-81427427D01*
X166544072Y-81427431D01*
X166445773Y-81574545D01*
X166445772Y-81574547D01*
X166378068Y-81738000D01*
X166378065Y-81738012D01*
X166345806Y-81900191D01*
X166313421Y-81962102D01*
X166252706Y-81996676D01*
X166224189Y-82000000D01*
X156109018Y-82000000D01*
X156041979Y-81980315D01*
X155996224Y-81927511D01*
X155987401Y-81900191D01*
X155949937Y-81711847D01*
X155949936Y-81711840D01*
X155875466Y-81532054D01*
X155875465Y-81532053D01*
X155875462Y-81532047D01*
X155767352Y-81370250D01*
X155767349Y-81370246D01*
X155629753Y-81232650D01*
X155629749Y-81232647D01*
X155467952Y-81124537D01*
X155467943Y-81124532D01*
X155288160Y-81050064D01*
X155288152Y-81050062D01*
X155097304Y-81012100D01*
X155097300Y-81012100D01*
X154902700Y-81012100D01*
X154902695Y-81012100D01*
X154711847Y-81050062D01*
X154711839Y-81050064D01*
X154532056Y-81124532D01*
X154532047Y-81124537D01*
X154370250Y-81232647D01*
X154370246Y-81232650D01*
X154232650Y-81370246D01*
X154232647Y-81370250D01*
X154124537Y-81532047D01*
X154124532Y-81532056D01*
X154050064Y-81711839D01*
X154050062Y-81711847D01*
X154012599Y-81900191D01*
X153980215Y-81962102D01*
X153919499Y-81996676D01*
X153890982Y-82000000D01*
X153858561Y-82000000D01*
X153791522Y-81980315D01*
X153745767Y-81927511D01*
X153736944Y-81900191D01*
X153704684Y-81738012D01*
X153704683Y-81738005D01*
X153636975Y-81574543D01*
X153538677Y-81427431D01*
X153538674Y-81427427D01*
X153413572Y-81302325D01*
X153413568Y-81302322D01*
X153266454Y-81204023D01*
X153266452Y-81204022D01*
X153102999Y-81136318D01*
X153102987Y-81136315D01*
X152929469Y-81101800D01*
X152929465Y-81101800D01*
X152752535Y-81101800D01*
X152752530Y-81101800D01*
X152579012Y-81136315D01*
X152579000Y-81136318D01*
X152415547Y-81204022D01*
X152415545Y-81204023D01*
X152268431Y-81302322D01*
X152268427Y-81302325D01*
X152212181Y-81358572D01*
X152150858Y-81392057D01*
X152081166Y-81387073D01*
X152025233Y-81345201D01*
X152000816Y-81279737D01*
X152000500Y-81270891D01*
X152000500Y-79362695D01*
X154012100Y-79362695D01*
X154012100Y-79557304D01*
X154050062Y-79748152D01*
X154050064Y-79748160D01*
X154124532Y-79927943D01*
X154124537Y-79927952D01*
X154232647Y-80089749D01*
X154232650Y-80089753D01*
X154370246Y-80227349D01*
X154370250Y-80227352D01*
X154532047Y-80335462D01*
X154532053Y-80335465D01*
X154532054Y-80335466D01*
X154711840Y-80409936D01*
X154902695Y-80447899D01*
X154902699Y-80447900D01*
X154902700Y-80447900D01*
X155097301Y-80447900D01*
X155097302Y-80447899D01*
X155288160Y-80409936D01*
X155467946Y-80335466D01*
X155629750Y-80227352D01*
X155767352Y-80089750D01*
X155875466Y-79927946D01*
X155949936Y-79748160D01*
X155968918Y-79652730D01*
X155982568Y-79584108D01*
X160899500Y-79584108D01*
X160899500Y-79715891D01*
X160933608Y-79843187D01*
X160966554Y-79900250D01*
X160999500Y-79957314D01*
X161092686Y-80050500D01*
X161206814Y-80116392D01*
X161334108Y-80150500D01*
X161334110Y-80150500D01*
X161465890Y-80150500D01*
X161465892Y-80150500D01*
X161593186Y-80116392D01*
X161707314Y-80050500D01*
X161800500Y-79957314D01*
X161866392Y-79843186D01*
X161900500Y-79715892D01*
X161900500Y-79584108D01*
X161866392Y-79456814D01*
X161812052Y-79362695D01*
X168412850Y-79362695D01*
X168412850Y-79557304D01*
X168450812Y-79748152D01*
X168450814Y-79748160D01*
X168525282Y-79927943D01*
X168525287Y-79927952D01*
X168633397Y-80089749D01*
X168633400Y-80089753D01*
X168770996Y-80227349D01*
X168771000Y-80227352D01*
X168932797Y-80335462D01*
X168932803Y-80335465D01*
X168932804Y-80335466D01*
X169112590Y-80409936D01*
X169303445Y-80447899D01*
X169303449Y-80447900D01*
X169303450Y-80447900D01*
X169498051Y-80447900D01*
X169498052Y-80447899D01*
X169688910Y-80409936D01*
X169868696Y-80335466D01*
X170030500Y-80227352D01*
X170168102Y-80089750D01*
X170276216Y-79927946D01*
X170350686Y-79748160D01*
X170388650Y-79557300D01*
X170388650Y-79362700D01*
X170350686Y-79171840D01*
X170276216Y-78992054D01*
X170276215Y-78992053D01*
X170276212Y-78992047D01*
X170168102Y-78830250D01*
X170168099Y-78830246D01*
X170030503Y-78692650D01*
X170030499Y-78692647D01*
X169868702Y-78584537D01*
X169868693Y-78584532D01*
X169688910Y-78510064D01*
X169688902Y-78510062D01*
X169498054Y-78472100D01*
X169498050Y-78472100D01*
X169303450Y-78472100D01*
X169303445Y-78472100D01*
X169112597Y-78510062D01*
X169112589Y-78510064D01*
X168932806Y-78584532D01*
X168932797Y-78584537D01*
X168771000Y-78692647D01*
X168770996Y-78692650D01*
X168633400Y-78830246D01*
X168633397Y-78830250D01*
X168525287Y-78992047D01*
X168525282Y-78992056D01*
X168450814Y-79171839D01*
X168450812Y-79171847D01*
X168412850Y-79362695D01*
X161812052Y-79362695D01*
X161800500Y-79342686D01*
X161707314Y-79249500D01*
X161650250Y-79216554D01*
X161593187Y-79183608D01*
X161529539Y-79166554D01*
X161465892Y-79149500D01*
X161334108Y-79149500D01*
X161206812Y-79183608D01*
X161092686Y-79249500D01*
X161092683Y-79249502D01*
X160999502Y-79342683D01*
X160999500Y-79342686D01*
X160933608Y-79456812D01*
X160899500Y-79584108D01*
X155982568Y-79584108D01*
X155987899Y-79557308D01*
X155987900Y-79557301D01*
X155987900Y-79362699D01*
X155987899Y-79362695D01*
X155965383Y-79249500D01*
X155949936Y-79171840D01*
X155875466Y-78992054D01*
X155875465Y-78992053D01*
X155875462Y-78992047D01*
X155767352Y-78830250D01*
X155767349Y-78830246D01*
X155629753Y-78692650D01*
X155629749Y-78692647D01*
X155467952Y-78584537D01*
X155467943Y-78584532D01*
X155288160Y-78510064D01*
X155288152Y-78510062D01*
X155097304Y-78472100D01*
X155097300Y-78472100D01*
X154902700Y-78472100D01*
X154902695Y-78472100D01*
X154711847Y-78510062D01*
X154711839Y-78510064D01*
X154532056Y-78584532D01*
X154532047Y-78584537D01*
X154370250Y-78692647D01*
X154370246Y-78692650D01*
X154232650Y-78830246D01*
X154232647Y-78830250D01*
X154124537Y-78992047D01*
X154124532Y-78992056D01*
X154050064Y-79171839D01*
X154050062Y-79171847D01*
X154012100Y-79362695D01*
X152000500Y-79362695D01*
X152000500Y-73447273D01*
X165599500Y-73447273D01*
X165599500Y-73552727D01*
X165626793Y-73654587D01*
X165679520Y-73745913D01*
X165754087Y-73820480D01*
X165845413Y-73873207D01*
X165947273Y-73900500D01*
X165947275Y-73900500D01*
X166052725Y-73900500D01*
X166052727Y-73900500D01*
X166154587Y-73873207D01*
X166245913Y-73820480D01*
X166320480Y-73745913D01*
X166373207Y-73654587D01*
X166400500Y-73552727D01*
X166400500Y-73447273D01*
X166373207Y-73345413D01*
X166320480Y-73254087D01*
X166245913Y-73179520D01*
X166154587Y-73126793D01*
X166052727Y-73099500D01*
X165947273Y-73099500D01*
X165845413Y-73126793D01*
X165845410Y-73126794D01*
X165754085Y-73179521D01*
X165679521Y-73254085D01*
X165626794Y-73345410D01*
X165626793Y-73345413D01*
X165599500Y-73447273D01*
X152000500Y-73447273D01*
X152000500Y-72517834D01*
X156422973Y-72517834D01*
X156422973Y-72649617D01*
X156457081Y-72776913D01*
X156490027Y-72833976D01*
X156522973Y-72891040D01*
X156616159Y-72984226D01*
X156730287Y-73050118D01*
X156857581Y-73084226D01*
X156857583Y-73084226D01*
X156989363Y-73084226D01*
X156989365Y-73084226D01*
X157116659Y-73050118D01*
X157230787Y-72984226D01*
X157323973Y-72891040D01*
X157389865Y-72776912D01*
X157423973Y-72649618D01*
X157423973Y-72517834D01*
X157389865Y-72390540D01*
X157323973Y-72276412D01*
X157230787Y-72183226D01*
X157173723Y-72150280D01*
X157116660Y-72117334D01*
X157053012Y-72100280D01*
X156989365Y-72083226D01*
X156857581Y-72083226D01*
X156730285Y-72117334D01*
X156616159Y-72183226D01*
X156616156Y-72183228D01*
X156522975Y-72276409D01*
X156522973Y-72276412D01*
X156457081Y-72390538D01*
X156422973Y-72517834D01*
X152000500Y-72517834D01*
X152000500Y-72504315D01*
X152020185Y-72437276D01*
X152072989Y-72391521D01*
X152142147Y-72381577D01*
X152186501Y-72396928D01*
X152192683Y-72400497D01*
X152192686Y-72400500D01*
X152256384Y-72437276D01*
X152306810Y-72466390D01*
X152306814Y-72466392D01*
X152434108Y-72500500D01*
X152434110Y-72500500D01*
X152565890Y-72500500D01*
X152565892Y-72500500D01*
X152693186Y-72466392D01*
X152807314Y-72400500D01*
X152900500Y-72307314D01*
X152966392Y-72193186D01*
X153000500Y-72065892D01*
X153000500Y-71934108D01*
X152966392Y-71806814D01*
X152900500Y-71692686D01*
X152807314Y-71599500D01*
X152693186Y-71533608D01*
X152565892Y-71499500D01*
X152434108Y-71499500D01*
X152306814Y-71533608D01*
X152306813Y-71533608D01*
X152306811Y-71533609D01*
X152306810Y-71533609D01*
X152186500Y-71603071D01*
X152118600Y-71619544D01*
X152052573Y-71596692D01*
X152009382Y-71541770D01*
X152000500Y-71495684D01*
X152000500Y-71434108D01*
X160249500Y-71434108D01*
X160249500Y-71565891D01*
X160283608Y-71693187D01*
X160316554Y-71750250D01*
X160349500Y-71807314D01*
X160442686Y-71900500D01*
X160556814Y-71966392D01*
X160684108Y-72000500D01*
X160684110Y-72000500D01*
X160815890Y-72000500D01*
X160815892Y-72000500D01*
X160943186Y-71966392D01*
X161057314Y-71900500D01*
X161150500Y-71807314D01*
X161216392Y-71693186D01*
X161250500Y-71565892D01*
X161250500Y-71434108D01*
X161216392Y-71306814D01*
X161150500Y-71192686D01*
X161057314Y-71099500D01*
X161000250Y-71066554D01*
X160943187Y-71033608D01*
X160879539Y-71016554D01*
X160815892Y-70999500D01*
X160684108Y-70999500D01*
X160556812Y-71033608D01*
X160442686Y-71099500D01*
X160442683Y-71099502D01*
X160349502Y-71192683D01*
X160349500Y-71192686D01*
X160283608Y-71306812D01*
X160249500Y-71434108D01*
X152000500Y-71434108D01*
X152000500Y-71124000D01*
X152020185Y-71056961D01*
X152072989Y-71011206D01*
X152124500Y-71000000D01*
X156100000Y-71000000D01*
X156100000Y-70447273D01*
X180349500Y-70447273D01*
X180349500Y-70552727D01*
X180376793Y-70654587D01*
X180429520Y-70745913D01*
X180504087Y-70820480D01*
X180595413Y-70873207D01*
X180697273Y-70900500D01*
X180697275Y-70900500D01*
X180802725Y-70900500D01*
X180802727Y-70900500D01*
X180904587Y-70873207D01*
X180995913Y-70820480D01*
X181070480Y-70745913D01*
X181123207Y-70654587D01*
X181150500Y-70552727D01*
X181150500Y-70447273D01*
X181123207Y-70345413D01*
X181070480Y-70254087D01*
X180995913Y-70179520D01*
X180904587Y-70126793D01*
X180802727Y-70099500D01*
X180697273Y-70099500D01*
X180595413Y-70126793D01*
X180595410Y-70126794D01*
X180504085Y-70179521D01*
X180429521Y-70254085D01*
X180376794Y-70345410D01*
X180376793Y-70345413D01*
X180349500Y-70447273D01*
X156100000Y-70447273D01*
X156100000Y-68044107D01*
X156879500Y-68044107D01*
X156879500Y-68195892D01*
X156909108Y-68344739D01*
X156909110Y-68344747D01*
X156967190Y-68484967D01*
X157051513Y-68611165D01*
X157158834Y-68718486D01*
X157285032Y-68802809D01*
X157355142Y-68831849D01*
X157425253Y-68860890D01*
X157574107Y-68890499D01*
X157574110Y-68890500D01*
X157574112Y-68890500D01*
X157725890Y-68890500D01*
X157725891Y-68890499D01*
X157874747Y-68860890D01*
X158014969Y-68802808D01*
X158141165Y-68718486D01*
X158248486Y-68611165D01*
X158332808Y-68484969D01*
X158390890Y-68344747D01*
X158420500Y-68195888D01*
X158420500Y-68044112D01*
X158420500Y-68044111D01*
X158420500Y-68044109D01*
X158420499Y-68044107D01*
X159419500Y-68044107D01*
X159419500Y-68195892D01*
X159449108Y-68344739D01*
X159449110Y-68344747D01*
X159507190Y-68484967D01*
X159591513Y-68611165D01*
X159698834Y-68718486D01*
X159825032Y-68802809D01*
X159895142Y-68831849D01*
X159965253Y-68860890D01*
X160114107Y-68890499D01*
X160114110Y-68890500D01*
X160114112Y-68890500D01*
X160265890Y-68890500D01*
X160265891Y-68890499D01*
X160414747Y-68860890D01*
X160554969Y-68802808D01*
X160681165Y-68718486D01*
X160788486Y-68611165D01*
X160872808Y-68484969D01*
X160930890Y-68344747D01*
X160960500Y-68195888D01*
X160960500Y-68044112D01*
X160960500Y-68044111D01*
X160960500Y-68044109D01*
X160960499Y-68044107D01*
X161959500Y-68044107D01*
X161959500Y-68195892D01*
X161989108Y-68344739D01*
X161989110Y-68344747D01*
X162047190Y-68484967D01*
X162131513Y-68611165D01*
X162238834Y-68718486D01*
X162365032Y-68802809D01*
X162435142Y-68831849D01*
X162505253Y-68860890D01*
X162654107Y-68890499D01*
X162654110Y-68890500D01*
X162654112Y-68890500D01*
X162805890Y-68890500D01*
X162805891Y-68890499D01*
X162954747Y-68860890D01*
X163094969Y-68802808D01*
X163221165Y-68718486D01*
X163328486Y-68611165D01*
X163412808Y-68484969D01*
X163470890Y-68344747D01*
X163500500Y-68195888D01*
X163500500Y-68044112D01*
X163500500Y-68044111D01*
X163500500Y-68044109D01*
X163500499Y-68044107D01*
X164499500Y-68044107D01*
X164499500Y-68195892D01*
X164529108Y-68344739D01*
X164529110Y-68344747D01*
X164587190Y-68484967D01*
X164671513Y-68611165D01*
X164778834Y-68718486D01*
X164905032Y-68802809D01*
X164975142Y-68831849D01*
X165045253Y-68860890D01*
X165194107Y-68890499D01*
X165194110Y-68890500D01*
X165194112Y-68890500D01*
X165345890Y-68890500D01*
X165345891Y-68890499D01*
X165387487Y-68882225D01*
X165473016Y-68865213D01*
X165473021Y-68865212D01*
X165487831Y-68862265D01*
X165494747Y-68860890D01*
X165634969Y-68802808D01*
X165761165Y-68718486D01*
X165868486Y-68611165D01*
X165952808Y-68484969D01*
X166010890Y-68344747D01*
X166034632Y-68225388D01*
X166739999Y-68225388D01*
X166781118Y-68432101D01*
X166781120Y-68432107D01*
X166861778Y-68626833D01*
X166896959Y-68679485D01*
X167392356Y-68184089D01*
X167418622Y-68282114D01*
X167473916Y-68377886D01*
X167552114Y-68456084D01*
X167647886Y-68511378D01*
X167745910Y-68537643D01*
X167250513Y-69033039D01*
X167303164Y-69068220D01*
X167303167Y-69068222D01*
X167497892Y-69148879D01*
X167497898Y-69148881D01*
X167704611Y-69190000D01*
X167915388Y-69190000D01*
X168122101Y-69148881D01*
X168122107Y-69148879D01*
X168316830Y-69068223D01*
X168369485Y-69033039D01*
X167874090Y-68537643D01*
X167972114Y-68511378D01*
X168067886Y-68456084D01*
X168146084Y-68377886D01*
X168201378Y-68282114D01*
X168227643Y-68184089D01*
X168723039Y-68679485D01*
X168758223Y-68626830D01*
X168838879Y-68432107D01*
X168838881Y-68432101D01*
X168880000Y-68225388D01*
X168880000Y-68044107D01*
X169579500Y-68044107D01*
X169579500Y-68195892D01*
X169609108Y-68344739D01*
X169609110Y-68344747D01*
X169667190Y-68484967D01*
X169751513Y-68611165D01*
X169858834Y-68718486D01*
X169985032Y-68802809D01*
X170055142Y-68831849D01*
X170125253Y-68860890D01*
X170274107Y-68890499D01*
X170274110Y-68890500D01*
X170274112Y-68890500D01*
X170425890Y-68890500D01*
X170425891Y-68890499D01*
X170574747Y-68860890D01*
X170714969Y-68802808D01*
X170841165Y-68718486D01*
X170948486Y-68611165D01*
X171032808Y-68484969D01*
X171090890Y-68344747D01*
X171120500Y-68195888D01*
X171120500Y-68044112D01*
X171120500Y-68044111D01*
X171120500Y-68044109D01*
X171120499Y-68044107D01*
X172119500Y-68044107D01*
X172119500Y-68195892D01*
X172149108Y-68344739D01*
X172149110Y-68344747D01*
X172207190Y-68484967D01*
X172291513Y-68611165D01*
X172398834Y-68718486D01*
X172525032Y-68802809D01*
X172595142Y-68831849D01*
X172665253Y-68860890D01*
X172814107Y-68890499D01*
X172814110Y-68890500D01*
X172814112Y-68890500D01*
X172965890Y-68890500D01*
X172965891Y-68890499D01*
X173114747Y-68860890D01*
X173254969Y-68802808D01*
X173381165Y-68718486D01*
X173488486Y-68611165D01*
X173572808Y-68484969D01*
X173630890Y-68344747D01*
X173660500Y-68195888D01*
X173660500Y-68044112D01*
X173660500Y-68044111D01*
X173660500Y-68044109D01*
X173660499Y-68044107D01*
X173654632Y-68014611D01*
X173630890Y-67895253D01*
X173584773Y-67783916D01*
X173572809Y-67755032D01*
X173488486Y-67628834D01*
X173381165Y-67521513D01*
X173270057Y-67447273D01*
X181599500Y-67447273D01*
X181599500Y-67552727D01*
X181626793Y-67654587D01*
X181679520Y-67745913D01*
X181754087Y-67820480D01*
X181845413Y-67873207D01*
X181947273Y-67900500D01*
X181947275Y-67900500D01*
X182052725Y-67900500D01*
X182052727Y-67900500D01*
X182154587Y-67873207D01*
X182245913Y-67820480D01*
X182320480Y-67745913D01*
X182373207Y-67654587D01*
X182400500Y-67552727D01*
X182400500Y-67447273D01*
X182373207Y-67345413D01*
X182320480Y-67254087D01*
X182245913Y-67179520D01*
X182154587Y-67126793D01*
X182052727Y-67099500D01*
X181947273Y-67099500D01*
X181845413Y-67126793D01*
X181845410Y-67126794D01*
X181754085Y-67179521D01*
X181679521Y-67254085D01*
X181626794Y-67345410D01*
X181626793Y-67345413D01*
X181599500Y-67447273D01*
X173270057Y-67447273D01*
X173254967Y-67437190D01*
X173114747Y-67379110D01*
X173114739Y-67379108D01*
X172965891Y-67349500D01*
X172965888Y-67349500D01*
X172814112Y-67349500D01*
X172814109Y-67349500D01*
X172665260Y-67379108D01*
X172665252Y-67379110D01*
X172525032Y-67437190D01*
X172398834Y-67521513D01*
X172291513Y-67628834D01*
X172207190Y-67755032D01*
X172149110Y-67895252D01*
X172149108Y-67895260D01*
X172119500Y-68044107D01*
X171120499Y-68044107D01*
X171114632Y-68014611D01*
X171090890Y-67895253D01*
X171044773Y-67783916D01*
X171032809Y-67755032D01*
X170948486Y-67628834D01*
X170841165Y-67521513D01*
X170714967Y-67437190D01*
X170574747Y-67379110D01*
X170574739Y-67379108D01*
X170425891Y-67349500D01*
X170425888Y-67349500D01*
X170274112Y-67349500D01*
X170274109Y-67349500D01*
X170125260Y-67379108D01*
X170125252Y-67379110D01*
X169985032Y-67437190D01*
X169858834Y-67521513D01*
X169751513Y-67628834D01*
X169667190Y-67755032D01*
X169609110Y-67895252D01*
X169609108Y-67895260D01*
X169579500Y-68044107D01*
X168880000Y-68044107D01*
X168880000Y-68014611D01*
X168838881Y-67807898D01*
X168838879Y-67807892D01*
X168758222Y-67613167D01*
X168758220Y-67613164D01*
X168723039Y-67560513D01*
X168227643Y-68055909D01*
X168201378Y-67957886D01*
X168146084Y-67862114D01*
X168067886Y-67783916D01*
X167972114Y-67728622D01*
X167874089Y-67702356D01*
X168369485Y-67206959D01*
X168369485Y-67206958D01*
X168316833Y-67171778D01*
X168122107Y-67091120D01*
X168122101Y-67091118D01*
X167915388Y-67050000D01*
X167704612Y-67050000D01*
X167497898Y-67091118D01*
X167497892Y-67091120D01*
X167303168Y-67171777D01*
X167303156Y-67171784D01*
X167250513Y-67206958D01*
X167250512Y-67206959D01*
X167745910Y-67702356D01*
X167647886Y-67728622D01*
X167552114Y-67783916D01*
X167473916Y-67862114D01*
X167418622Y-67957886D01*
X167392356Y-68055909D01*
X166896959Y-67560512D01*
X166896958Y-67560513D01*
X166861784Y-67613156D01*
X166861777Y-67613168D01*
X166781120Y-67807892D01*
X166781118Y-67807898D01*
X166740000Y-68014611D01*
X166740000Y-68225388D01*
X166739999Y-68225388D01*
X166034632Y-68225388D01*
X166040500Y-68195888D01*
X166040500Y-68044112D01*
X166040499Y-68044109D01*
X166038233Y-68032715D01*
X166038233Y-68032713D01*
X166024261Y-67962475D01*
X166010890Y-67895253D01*
X165964773Y-67783916D01*
X165952809Y-67755032D01*
X165868486Y-67628834D01*
X165761165Y-67521513D01*
X165634967Y-67437190D01*
X165494747Y-67379110D01*
X165494741Y-67379108D01*
X165473016Y-67374787D01*
X165473015Y-67374786D01*
X165345891Y-67349500D01*
X165345888Y-67349500D01*
X165194112Y-67349500D01*
X165194109Y-67349500D01*
X165045260Y-67379108D01*
X165045252Y-67379110D01*
X164905032Y-67437190D01*
X164778834Y-67521513D01*
X164671513Y-67628834D01*
X164587190Y-67755032D01*
X164529110Y-67895252D01*
X164529108Y-67895260D01*
X164499500Y-68044107D01*
X163500499Y-68044107D01*
X163494632Y-68014611D01*
X163470890Y-67895253D01*
X163424773Y-67783916D01*
X163412809Y-67755032D01*
X163328486Y-67628834D01*
X163221165Y-67521513D01*
X163094967Y-67437190D01*
X162954747Y-67379110D01*
X162954739Y-67379108D01*
X162805891Y-67349500D01*
X162805888Y-67349500D01*
X162654112Y-67349500D01*
X162654109Y-67349500D01*
X162505260Y-67379108D01*
X162505252Y-67379110D01*
X162365032Y-67437190D01*
X162238834Y-67521513D01*
X162131513Y-67628834D01*
X162047190Y-67755032D01*
X161989110Y-67895252D01*
X161989108Y-67895260D01*
X161959500Y-68044107D01*
X160960499Y-68044107D01*
X160954632Y-68014611D01*
X160930890Y-67895253D01*
X160884773Y-67783916D01*
X160872809Y-67755032D01*
X160788486Y-67628834D01*
X160681165Y-67521513D01*
X160554967Y-67437190D01*
X160414747Y-67379110D01*
X160414739Y-67379108D01*
X160265891Y-67349500D01*
X160265888Y-67349500D01*
X160114112Y-67349500D01*
X160114109Y-67349500D01*
X159965260Y-67379108D01*
X159965252Y-67379110D01*
X159825032Y-67437190D01*
X159698834Y-67521513D01*
X159591513Y-67628834D01*
X159507190Y-67755032D01*
X159449110Y-67895252D01*
X159449108Y-67895260D01*
X159419500Y-68044107D01*
X158420499Y-68044107D01*
X158414632Y-68014611D01*
X158390890Y-67895253D01*
X158344773Y-67783916D01*
X158332809Y-67755032D01*
X158248486Y-67628834D01*
X158141165Y-67521513D01*
X158014967Y-67437190D01*
X157874747Y-67379110D01*
X157874739Y-67379108D01*
X157725891Y-67349500D01*
X157725888Y-67349500D01*
X157574112Y-67349500D01*
X157574109Y-67349500D01*
X157425260Y-67379108D01*
X157425252Y-67379110D01*
X157285032Y-67437190D01*
X157158834Y-67521513D01*
X157051513Y-67628834D01*
X156967190Y-67755032D01*
X156909110Y-67895252D01*
X156909108Y-67895260D01*
X156879500Y-68044107D01*
X156100000Y-68044107D01*
X156100000Y-52804107D01*
X156879500Y-52804107D01*
X156879500Y-52955892D01*
X156909108Y-53104739D01*
X156909110Y-53104747D01*
X156967190Y-53244967D01*
X157051513Y-53371165D01*
X157158834Y-53478486D01*
X157285032Y-53562809D01*
X157355142Y-53591849D01*
X157425253Y-53620890D01*
X157574107Y-53650499D01*
X157574110Y-53650500D01*
X157574112Y-53650500D01*
X157725890Y-53650500D01*
X157725891Y-53650499D01*
X157874747Y-53620890D01*
X158014969Y-53562808D01*
X158141165Y-53478486D01*
X158248486Y-53371165D01*
X158332808Y-53244969D01*
X158390890Y-53104747D01*
X158420500Y-52955888D01*
X158420500Y-52804112D01*
X158420500Y-52804109D01*
X158420499Y-52804107D01*
X159419500Y-52804107D01*
X159419500Y-52955892D01*
X159449108Y-53104739D01*
X159449110Y-53104747D01*
X159507190Y-53244967D01*
X159591513Y-53371165D01*
X159698834Y-53478486D01*
X159825032Y-53562809D01*
X159895142Y-53591849D01*
X159965253Y-53620890D01*
X160114107Y-53650499D01*
X160114110Y-53650500D01*
X160114112Y-53650500D01*
X160265890Y-53650500D01*
X160265891Y-53650499D01*
X160414747Y-53620890D01*
X160554969Y-53562808D01*
X160681165Y-53478486D01*
X160788486Y-53371165D01*
X160872808Y-53244969D01*
X160930890Y-53104747D01*
X160960500Y-52955888D01*
X160960500Y-52804112D01*
X160960500Y-52804109D01*
X160960499Y-52804107D01*
X161959500Y-52804107D01*
X161959500Y-52955892D01*
X161989108Y-53104739D01*
X161989110Y-53104747D01*
X162047190Y-53244967D01*
X162131513Y-53371165D01*
X162238834Y-53478486D01*
X162365032Y-53562809D01*
X162435142Y-53591849D01*
X162505253Y-53620890D01*
X162654107Y-53650499D01*
X162654110Y-53650500D01*
X162654112Y-53650500D01*
X162805890Y-53650500D01*
X162805891Y-53650499D01*
X162954747Y-53620890D01*
X163094969Y-53562808D01*
X163221165Y-53478486D01*
X163328486Y-53371165D01*
X163412808Y-53244969D01*
X163470890Y-53104747D01*
X163500500Y-52955888D01*
X163500500Y-52804112D01*
X163500500Y-52804109D01*
X163500499Y-52804107D01*
X164499500Y-52804107D01*
X164499500Y-52955892D01*
X164529108Y-53104739D01*
X164529110Y-53104747D01*
X164587190Y-53244967D01*
X164671513Y-53371165D01*
X164778834Y-53478486D01*
X164905032Y-53562809D01*
X164975142Y-53591849D01*
X165045253Y-53620890D01*
X165194107Y-53650499D01*
X165194110Y-53650500D01*
X165194112Y-53650500D01*
X165345890Y-53650500D01*
X165345891Y-53650499D01*
X165494747Y-53620890D01*
X165634969Y-53562808D01*
X165761165Y-53478486D01*
X165868486Y-53371165D01*
X165952808Y-53244969D01*
X166010890Y-53104747D01*
X166040500Y-52955888D01*
X166040500Y-52804112D01*
X166040500Y-52804109D01*
X166040499Y-52804107D01*
X167039500Y-52804107D01*
X167039500Y-52955892D01*
X167069108Y-53104739D01*
X167069110Y-53104747D01*
X167127190Y-53244967D01*
X167211513Y-53371165D01*
X167318834Y-53478486D01*
X167445032Y-53562809D01*
X167515142Y-53591849D01*
X167585253Y-53620890D01*
X167734107Y-53650499D01*
X167734110Y-53650500D01*
X167734112Y-53650500D01*
X167885890Y-53650500D01*
X167885891Y-53650499D01*
X168034747Y-53620890D01*
X168174969Y-53562808D01*
X168301165Y-53478486D01*
X168408486Y-53371165D01*
X168492808Y-53244969D01*
X168550890Y-53104747D01*
X168580500Y-52955888D01*
X168580500Y-52804112D01*
X168580500Y-52804109D01*
X168580499Y-52804107D01*
X169579500Y-52804107D01*
X169579500Y-52955892D01*
X169609108Y-53104739D01*
X169609110Y-53104747D01*
X169667190Y-53244967D01*
X169751513Y-53371165D01*
X169858834Y-53478486D01*
X169985032Y-53562809D01*
X170055142Y-53591849D01*
X170125253Y-53620890D01*
X170274107Y-53650499D01*
X170274110Y-53650500D01*
X170274112Y-53650500D01*
X170425890Y-53650500D01*
X170425891Y-53650499D01*
X170574747Y-53620890D01*
X170714969Y-53562808D01*
X170841165Y-53478486D01*
X170948486Y-53371165D01*
X171032808Y-53244969D01*
X171090890Y-53104747D01*
X171120500Y-52955888D01*
X171120500Y-52804112D01*
X171120500Y-52804109D01*
X171120499Y-52804107D01*
X172119500Y-52804107D01*
X172119500Y-52955892D01*
X172149108Y-53104739D01*
X172149110Y-53104747D01*
X172207190Y-53244967D01*
X172291513Y-53371165D01*
X172398834Y-53478486D01*
X172525032Y-53562809D01*
X172595142Y-53591849D01*
X172665253Y-53620890D01*
X172814107Y-53650499D01*
X172814110Y-53650500D01*
X172814112Y-53650500D01*
X172965890Y-53650500D01*
X172965891Y-53650499D01*
X173114747Y-53620890D01*
X173254969Y-53562808D01*
X173381165Y-53478486D01*
X173488486Y-53371165D01*
X173572808Y-53244969D01*
X173630890Y-53104747D01*
X173660500Y-52955888D01*
X173660500Y-52804112D01*
X173660500Y-52804109D01*
X173660499Y-52804107D01*
X173630891Y-52655260D01*
X173630890Y-52655253D01*
X173601849Y-52585142D01*
X173572809Y-52515032D01*
X173488486Y-52388834D01*
X173381165Y-52281513D01*
X173254967Y-52197190D01*
X173114747Y-52139110D01*
X173114739Y-52139108D01*
X172965891Y-52109500D01*
X172965888Y-52109500D01*
X172814112Y-52109500D01*
X172814109Y-52109500D01*
X172665260Y-52139108D01*
X172665252Y-52139110D01*
X172525032Y-52197190D01*
X172398834Y-52281513D01*
X172291513Y-52388834D01*
X172207190Y-52515032D01*
X172149110Y-52655252D01*
X172149108Y-52655260D01*
X172119500Y-52804107D01*
X171120499Y-52804107D01*
X171090891Y-52655260D01*
X171090890Y-52655253D01*
X171061849Y-52585142D01*
X171032809Y-52515032D01*
X170948486Y-52388834D01*
X170841165Y-52281513D01*
X170714967Y-52197190D01*
X170574747Y-52139110D01*
X170574739Y-52139108D01*
X170425891Y-52109500D01*
X170425888Y-52109500D01*
X170274112Y-52109500D01*
X170274109Y-52109500D01*
X170125260Y-52139108D01*
X170125252Y-52139110D01*
X169985032Y-52197190D01*
X169858834Y-52281513D01*
X169751513Y-52388834D01*
X169667190Y-52515032D01*
X169609110Y-52655252D01*
X169609108Y-52655260D01*
X169579500Y-52804107D01*
X168580499Y-52804107D01*
X168550891Y-52655260D01*
X168550890Y-52655253D01*
X168521849Y-52585142D01*
X168492809Y-52515032D01*
X168408486Y-52388834D01*
X168301165Y-52281513D01*
X168174967Y-52197190D01*
X168034747Y-52139110D01*
X168034739Y-52139108D01*
X167885891Y-52109500D01*
X167885888Y-52109500D01*
X167734112Y-52109500D01*
X167734109Y-52109500D01*
X167585260Y-52139108D01*
X167585252Y-52139110D01*
X167445032Y-52197190D01*
X167318834Y-52281513D01*
X167211513Y-52388834D01*
X167127190Y-52515032D01*
X167069110Y-52655252D01*
X167069108Y-52655260D01*
X167039500Y-52804107D01*
X166040499Y-52804107D01*
X166010891Y-52655260D01*
X166010890Y-52655253D01*
X165981849Y-52585142D01*
X165952809Y-52515032D01*
X165868486Y-52388834D01*
X165761165Y-52281513D01*
X165634967Y-52197190D01*
X165494747Y-52139110D01*
X165494739Y-52139108D01*
X165345891Y-52109500D01*
X165345888Y-52109500D01*
X165194112Y-52109500D01*
X165194109Y-52109500D01*
X165045260Y-52139108D01*
X165045252Y-52139110D01*
X164905032Y-52197190D01*
X164778834Y-52281513D01*
X164671513Y-52388834D01*
X164587190Y-52515032D01*
X164529110Y-52655252D01*
X164529108Y-52655260D01*
X164499500Y-52804107D01*
X163500499Y-52804107D01*
X163470891Y-52655260D01*
X163470890Y-52655253D01*
X163441849Y-52585142D01*
X163412809Y-52515032D01*
X163328486Y-52388834D01*
X163221165Y-52281513D01*
X163094967Y-52197190D01*
X162954747Y-52139110D01*
X162954739Y-52139108D01*
X162805891Y-52109500D01*
X162805888Y-52109500D01*
X162654112Y-52109500D01*
X162654109Y-52109500D01*
X162505260Y-52139108D01*
X162505252Y-52139110D01*
X162365032Y-52197190D01*
X162238834Y-52281513D01*
X162131513Y-52388834D01*
X162047190Y-52515032D01*
X161989110Y-52655252D01*
X161989108Y-52655260D01*
X161959500Y-52804107D01*
X160960499Y-52804107D01*
X160930891Y-52655260D01*
X160930890Y-52655253D01*
X160901849Y-52585142D01*
X160872809Y-52515032D01*
X160788486Y-52388834D01*
X160681165Y-52281513D01*
X160554967Y-52197190D01*
X160414747Y-52139110D01*
X160414739Y-52139108D01*
X160265891Y-52109500D01*
X160265888Y-52109500D01*
X160114112Y-52109500D01*
X160114109Y-52109500D01*
X159965260Y-52139108D01*
X159965252Y-52139110D01*
X159825032Y-52197190D01*
X159698834Y-52281513D01*
X159591513Y-52388834D01*
X159507190Y-52515032D01*
X159449110Y-52655252D01*
X159449108Y-52655260D01*
X159419500Y-52804107D01*
X158420499Y-52804107D01*
X158390891Y-52655260D01*
X158390890Y-52655253D01*
X158361849Y-52585142D01*
X158332809Y-52515032D01*
X158248486Y-52388834D01*
X158141165Y-52281513D01*
X158014967Y-52197190D01*
X157874747Y-52139110D01*
X157874739Y-52139108D01*
X157725891Y-52109500D01*
X157725888Y-52109500D01*
X157574112Y-52109500D01*
X157574109Y-52109500D01*
X157425260Y-52139108D01*
X157425252Y-52139110D01*
X157285032Y-52197190D01*
X157158834Y-52281513D01*
X157051513Y-52388834D01*
X156967190Y-52515032D01*
X156909110Y-52655252D01*
X156909108Y-52655260D01*
X156879500Y-52804107D01*
X156100000Y-52804107D01*
X156100000Y-50500000D01*
X152124500Y-50500000D01*
X152057461Y-50480315D01*
X152011706Y-50427511D01*
X152000500Y-50376000D01*
X152000500Y-47646153D01*
X153699500Y-47646153D01*
X153699500Y-48353846D01*
X153730261Y-48508489D01*
X153730264Y-48508501D01*
X153790602Y-48654172D01*
X153790609Y-48654185D01*
X153878210Y-48785288D01*
X153878213Y-48785292D01*
X153989707Y-48896786D01*
X153989711Y-48896789D01*
X154120814Y-48984390D01*
X154120827Y-48984397D01*
X154266498Y-49044735D01*
X154266503Y-49044737D01*
X154421153Y-49075499D01*
X154421156Y-49075500D01*
X154421158Y-49075500D01*
X154578844Y-49075500D01*
X154578845Y-49075499D01*
X154733497Y-49044737D01*
X154879179Y-48984394D01*
X155010289Y-48896789D01*
X155121789Y-48785289D01*
X155209394Y-48654179D01*
X155269737Y-48508497D01*
X155300500Y-48353842D01*
X155300500Y-47646158D01*
X155300500Y-47646155D01*
X155300499Y-47646153D01*
X155699500Y-47646153D01*
X155699500Y-48353846D01*
X155730261Y-48508489D01*
X155730264Y-48508501D01*
X155790602Y-48654172D01*
X155790609Y-48654185D01*
X155878210Y-48785288D01*
X155878213Y-48785292D01*
X155989707Y-48896786D01*
X155989711Y-48896789D01*
X156120814Y-48984390D01*
X156120827Y-48984397D01*
X156266498Y-49044735D01*
X156266503Y-49044737D01*
X156421153Y-49075499D01*
X156421156Y-49075500D01*
X156421158Y-49075500D01*
X156578844Y-49075500D01*
X156578845Y-49075499D01*
X156733497Y-49044737D01*
X156879179Y-48984394D01*
X157010289Y-48896789D01*
X157121789Y-48785289D01*
X157209394Y-48654179D01*
X157269737Y-48508497D01*
X157300500Y-48353842D01*
X157300500Y-47646158D01*
X157300500Y-47646155D01*
X157300499Y-47646153D01*
X157699500Y-47646153D01*
X157699500Y-48353846D01*
X157730261Y-48508489D01*
X157730264Y-48508501D01*
X157790602Y-48654172D01*
X157790609Y-48654185D01*
X157878210Y-48785288D01*
X157878213Y-48785292D01*
X157989707Y-48896786D01*
X157989711Y-48896789D01*
X158120814Y-48984390D01*
X158120827Y-48984397D01*
X158266498Y-49044735D01*
X158266503Y-49044737D01*
X158421153Y-49075499D01*
X158421156Y-49075500D01*
X158421158Y-49075500D01*
X158578844Y-49075500D01*
X158578845Y-49075499D01*
X158733497Y-49044737D01*
X158879179Y-48984394D01*
X159010289Y-48896789D01*
X159121789Y-48785289D01*
X159209394Y-48654179D01*
X159269737Y-48508497D01*
X159300500Y-48353842D01*
X159300500Y-47646158D01*
X159300500Y-47646155D01*
X159300499Y-47646153D01*
X159699500Y-47646153D01*
X159699500Y-48353846D01*
X159730261Y-48508489D01*
X159730264Y-48508501D01*
X159790602Y-48654172D01*
X159790609Y-48654185D01*
X159878210Y-48785288D01*
X159878213Y-48785292D01*
X159989707Y-48896786D01*
X159989711Y-48896789D01*
X160120814Y-48984390D01*
X160120827Y-48984397D01*
X160266498Y-49044735D01*
X160266503Y-49044737D01*
X160421153Y-49075499D01*
X160421156Y-49075500D01*
X160421158Y-49075500D01*
X160578844Y-49075500D01*
X160578845Y-49075499D01*
X160733497Y-49044737D01*
X160879179Y-48984394D01*
X161010289Y-48896789D01*
X161121789Y-48785289D01*
X161209394Y-48654179D01*
X161269737Y-48508497D01*
X161300500Y-48353842D01*
X161300500Y-47646158D01*
X161300500Y-47646155D01*
X161300499Y-47646153D01*
X161699500Y-47646153D01*
X161699500Y-48353846D01*
X161730261Y-48508489D01*
X161730264Y-48508501D01*
X161790602Y-48654172D01*
X161790609Y-48654185D01*
X161878210Y-48785288D01*
X161878213Y-48785292D01*
X161989707Y-48896786D01*
X161989711Y-48896789D01*
X162120814Y-48984390D01*
X162120827Y-48984397D01*
X162266498Y-49044735D01*
X162266503Y-49044737D01*
X162421153Y-49075499D01*
X162421156Y-49075500D01*
X162421158Y-49075500D01*
X162578844Y-49075500D01*
X162578845Y-49075499D01*
X162733497Y-49044737D01*
X162879179Y-48984394D01*
X163010289Y-48896789D01*
X163121789Y-48785289D01*
X163157329Y-48732100D01*
X163181440Y-48696016D01*
X163235052Y-48651210D01*
X163304377Y-48642503D01*
X163367404Y-48672657D01*
X163404124Y-48732100D01*
X163407900Y-48752304D01*
X163410494Y-48777697D01*
X163465641Y-48944119D01*
X163465643Y-48944124D01*
X163557684Y-49093345D01*
X163681654Y-49217315D01*
X163830875Y-49309356D01*
X163830880Y-49309358D01*
X163997302Y-49364505D01*
X163997309Y-49364506D01*
X164100019Y-49374999D01*
X164249999Y-49374999D01*
X164250000Y-49374998D01*
X164250000Y-48280330D01*
X164269745Y-48300075D01*
X164355255Y-48349444D01*
X164450630Y-48375000D01*
X164549370Y-48375000D01*
X164644745Y-48349444D01*
X164730255Y-48300075D01*
X164750000Y-48280330D01*
X164750000Y-49374999D01*
X164899972Y-49374999D01*
X164899986Y-49374998D01*
X165002697Y-49364505D01*
X165169119Y-49309358D01*
X165169124Y-49309356D01*
X165318345Y-49217315D01*
X165442315Y-49093345D01*
X165534356Y-48944124D01*
X165534358Y-48944119D01*
X165589505Y-48777697D01*
X165589506Y-48777690D01*
X165599999Y-48674986D01*
X165600000Y-48674973D01*
X165600000Y-48250000D01*
X164780330Y-48250000D01*
X164800075Y-48230255D01*
X164849444Y-48144745D01*
X164875000Y-48049370D01*
X164875000Y-47950630D01*
X164849444Y-47855255D01*
X164800075Y-47769745D01*
X164780330Y-47750000D01*
X165599999Y-47750000D01*
X165599999Y-47646153D01*
X172699500Y-47646153D01*
X172699500Y-48353846D01*
X172730261Y-48508489D01*
X172730264Y-48508501D01*
X172790602Y-48654172D01*
X172790609Y-48654185D01*
X172878210Y-48785288D01*
X172878213Y-48785292D01*
X172989707Y-48896786D01*
X172989711Y-48896789D01*
X173120814Y-48984390D01*
X173120827Y-48984397D01*
X173266498Y-49044735D01*
X173266503Y-49044737D01*
X173421153Y-49075499D01*
X173421156Y-49075500D01*
X173421158Y-49075500D01*
X173578844Y-49075500D01*
X173578845Y-49075499D01*
X173733497Y-49044737D01*
X173879179Y-48984394D01*
X174010289Y-48896789D01*
X174121789Y-48785289D01*
X174209394Y-48654179D01*
X174269737Y-48508497D01*
X174300500Y-48353842D01*
X174300500Y-47646158D01*
X174300500Y-47646155D01*
X174300499Y-47646153D01*
X174699500Y-47646153D01*
X174699500Y-48353846D01*
X174730261Y-48508489D01*
X174730264Y-48508501D01*
X174790602Y-48654172D01*
X174790609Y-48654185D01*
X174878210Y-48785288D01*
X174878213Y-48785292D01*
X174989707Y-48896786D01*
X174989711Y-48896789D01*
X175120814Y-48984390D01*
X175120827Y-48984397D01*
X175266498Y-49044735D01*
X175266503Y-49044737D01*
X175421153Y-49075499D01*
X175421156Y-49075500D01*
X175421158Y-49075500D01*
X175578844Y-49075500D01*
X175578845Y-49075499D01*
X175733497Y-49044737D01*
X175879179Y-48984394D01*
X176010289Y-48896789D01*
X176121789Y-48785289D01*
X176209394Y-48654179D01*
X176269737Y-48508497D01*
X176300500Y-48353842D01*
X176300500Y-47646158D01*
X176300500Y-47646155D01*
X176300499Y-47646153D01*
X176699500Y-47646153D01*
X176699500Y-48353846D01*
X176730261Y-48508489D01*
X176730264Y-48508501D01*
X176790602Y-48654172D01*
X176790609Y-48654185D01*
X176878210Y-48785288D01*
X176878213Y-48785292D01*
X176989707Y-48896786D01*
X176989711Y-48896789D01*
X177120814Y-48984390D01*
X177120827Y-48984397D01*
X177266498Y-49044735D01*
X177266503Y-49044737D01*
X177421153Y-49075499D01*
X177421156Y-49075500D01*
X177421158Y-49075500D01*
X177578844Y-49075500D01*
X177578845Y-49075499D01*
X177733497Y-49044737D01*
X177879179Y-48984394D01*
X178010289Y-48896789D01*
X178121789Y-48785289D01*
X178209394Y-48654179D01*
X178269737Y-48508497D01*
X178300500Y-48353842D01*
X178300500Y-47646158D01*
X178300500Y-47646155D01*
X178300499Y-47646153D01*
X178699500Y-47646153D01*
X178699500Y-48353846D01*
X178730261Y-48508489D01*
X178730264Y-48508501D01*
X178790602Y-48654172D01*
X178790609Y-48654185D01*
X178878210Y-48785288D01*
X178878213Y-48785292D01*
X178989707Y-48896786D01*
X178989711Y-48896789D01*
X179120814Y-48984390D01*
X179120827Y-48984397D01*
X179266498Y-49044735D01*
X179266503Y-49044737D01*
X179421153Y-49075499D01*
X179421156Y-49075500D01*
X179421158Y-49075500D01*
X179578844Y-49075500D01*
X179578845Y-49075499D01*
X179733497Y-49044737D01*
X179879179Y-48984394D01*
X180010289Y-48896789D01*
X180121789Y-48785289D01*
X180157329Y-48732100D01*
X180181440Y-48696016D01*
X180235052Y-48651210D01*
X180304377Y-48642503D01*
X180367404Y-48672657D01*
X180404124Y-48732100D01*
X180407900Y-48752304D01*
X180410494Y-48777697D01*
X180465641Y-48944119D01*
X180465643Y-48944124D01*
X180557684Y-49093345D01*
X180681654Y-49217315D01*
X180830875Y-49309356D01*
X180830880Y-49309358D01*
X180997302Y-49364505D01*
X180997309Y-49364506D01*
X181100019Y-49374999D01*
X181249999Y-49374999D01*
X181250000Y-49374998D01*
X181250000Y-48280330D01*
X181269745Y-48300075D01*
X181355255Y-48349444D01*
X181450630Y-48375000D01*
X181549370Y-48375000D01*
X181644745Y-48349444D01*
X181730255Y-48300075D01*
X181750000Y-48280330D01*
X181750000Y-49374999D01*
X181899972Y-49374999D01*
X181899986Y-49374998D01*
X182002697Y-49364505D01*
X182169119Y-49309358D01*
X182169124Y-49309356D01*
X182318345Y-49217315D01*
X182442315Y-49093345D01*
X182534356Y-48944124D01*
X182534358Y-48944119D01*
X182589505Y-48777697D01*
X182589506Y-48777690D01*
X182599999Y-48674986D01*
X182600000Y-48674973D01*
X182600000Y-48250000D01*
X181780330Y-48250000D01*
X181800075Y-48230255D01*
X181849444Y-48144745D01*
X181875000Y-48049370D01*
X181875000Y-47950630D01*
X181849444Y-47855255D01*
X181800075Y-47769745D01*
X181780330Y-47750000D01*
X182599999Y-47750000D01*
X182599999Y-47325028D01*
X182599998Y-47325013D01*
X182589505Y-47222302D01*
X182534358Y-47055880D01*
X182534356Y-47055875D01*
X182442315Y-46906654D01*
X182318345Y-46782684D01*
X182169124Y-46690643D01*
X182169119Y-46690641D01*
X182002697Y-46635494D01*
X182002690Y-46635493D01*
X181899986Y-46625000D01*
X181750000Y-46625000D01*
X181750000Y-47719670D01*
X181730255Y-47699925D01*
X181644745Y-47650556D01*
X181549370Y-47625000D01*
X181450630Y-47625000D01*
X181355255Y-47650556D01*
X181269745Y-47699925D01*
X181250000Y-47719670D01*
X181250000Y-46625000D01*
X181100027Y-46625000D01*
X181100012Y-46625001D01*
X180997302Y-46635494D01*
X180830880Y-46690641D01*
X180830875Y-46690643D01*
X180681654Y-46782684D01*
X180557684Y-46906654D01*
X180465643Y-47055875D01*
X180465641Y-47055880D01*
X180410494Y-47222302D01*
X180410493Y-47222308D01*
X180407899Y-47247698D01*
X180381501Y-47312389D01*
X180324319Y-47352539D01*
X180254508Y-47355400D01*
X180194232Y-47320064D01*
X180181439Y-47303983D01*
X180121789Y-47214711D01*
X180121786Y-47214707D01*
X180010292Y-47103213D01*
X180010288Y-47103210D01*
X179879185Y-47015609D01*
X179879172Y-47015602D01*
X179733501Y-46955264D01*
X179733489Y-46955261D01*
X179578845Y-46924500D01*
X179578842Y-46924500D01*
X179421158Y-46924500D01*
X179421155Y-46924500D01*
X179266510Y-46955261D01*
X179266498Y-46955264D01*
X179120827Y-47015602D01*
X179120814Y-47015609D01*
X178989711Y-47103210D01*
X178989707Y-47103213D01*
X178878213Y-47214707D01*
X178878210Y-47214711D01*
X178790609Y-47345814D01*
X178790602Y-47345827D01*
X178730264Y-47491498D01*
X178730261Y-47491510D01*
X178699500Y-47646153D01*
X178300499Y-47646153D01*
X178269738Y-47491510D01*
X178269737Y-47491503D01*
X178212177Y-47352539D01*
X178209397Y-47345827D01*
X178209390Y-47345814D01*
X178121789Y-47214711D01*
X178121786Y-47214707D01*
X178010292Y-47103213D01*
X178010288Y-47103210D01*
X177879185Y-47015609D01*
X177879172Y-47015602D01*
X177733501Y-46955264D01*
X177733489Y-46955261D01*
X177578845Y-46924500D01*
X177578842Y-46924500D01*
X177421158Y-46924500D01*
X177421155Y-46924500D01*
X177266510Y-46955261D01*
X177266498Y-46955264D01*
X177120827Y-47015602D01*
X177120814Y-47015609D01*
X176989711Y-47103210D01*
X176989707Y-47103213D01*
X176878213Y-47214707D01*
X176878210Y-47214711D01*
X176790609Y-47345814D01*
X176790602Y-47345827D01*
X176730264Y-47491498D01*
X176730261Y-47491510D01*
X176699500Y-47646153D01*
X176300499Y-47646153D01*
X176269738Y-47491510D01*
X176269737Y-47491503D01*
X176212177Y-47352539D01*
X176209397Y-47345827D01*
X176209390Y-47345814D01*
X176121789Y-47214711D01*
X176121786Y-47214707D01*
X176010292Y-47103213D01*
X176010288Y-47103210D01*
X175879185Y-47015609D01*
X175879172Y-47015602D01*
X175733501Y-46955264D01*
X175733489Y-46955261D01*
X175578845Y-46924500D01*
X175578842Y-46924500D01*
X175421158Y-46924500D01*
X175421155Y-46924500D01*
X175266510Y-46955261D01*
X175266498Y-46955264D01*
X175120827Y-47015602D01*
X175120814Y-47015609D01*
X174989711Y-47103210D01*
X174989707Y-47103213D01*
X174878213Y-47214707D01*
X174878210Y-47214711D01*
X174790609Y-47345814D01*
X174790602Y-47345827D01*
X174730264Y-47491498D01*
X174730261Y-47491510D01*
X174699500Y-47646153D01*
X174300499Y-47646153D01*
X174269738Y-47491510D01*
X174269737Y-47491503D01*
X174212177Y-47352539D01*
X174209397Y-47345827D01*
X174209390Y-47345814D01*
X174121789Y-47214711D01*
X174121786Y-47214707D01*
X174010292Y-47103213D01*
X174010288Y-47103210D01*
X173879185Y-47015609D01*
X173879172Y-47015602D01*
X173733501Y-46955264D01*
X173733489Y-46955261D01*
X173578845Y-46924500D01*
X173578842Y-46924500D01*
X173421158Y-46924500D01*
X173421155Y-46924500D01*
X173266510Y-46955261D01*
X173266498Y-46955264D01*
X173120827Y-47015602D01*
X173120814Y-47015609D01*
X172989711Y-47103210D01*
X172989707Y-47103213D01*
X172878213Y-47214707D01*
X172878210Y-47214711D01*
X172790609Y-47345814D01*
X172790602Y-47345827D01*
X172730264Y-47491498D01*
X172730261Y-47491510D01*
X172699500Y-47646153D01*
X165599999Y-47646153D01*
X165599999Y-47325028D01*
X165599998Y-47325013D01*
X165589505Y-47222302D01*
X165534358Y-47055880D01*
X165534356Y-47055875D01*
X165442315Y-46906654D01*
X165318345Y-46782684D01*
X165169124Y-46690643D01*
X165169119Y-46690641D01*
X165002697Y-46635494D01*
X165002690Y-46635493D01*
X164899986Y-46625000D01*
X164750000Y-46625000D01*
X164750000Y-47719670D01*
X164730255Y-47699925D01*
X164644745Y-47650556D01*
X164549370Y-47625000D01*
X164450630Y-47625000D01*
X164355255Y-47650556D01*
X164269745Y-47699925D01*
X164250000Y-47719670D01*
X164250000Y-46625000D01*
X164100027Y-46625000D01*
X164100012Y-46625001D01*
X163997302Y-46635494D01*
X163830880Y-46690641D01*
X163830875Y-46690643D01*
X163681654Y-46782684D01*
X163557684Y-46906654D01*
X163465643Y-47055875D01*
X163465641Y-47055880D01*
X163410494Y-47222302D01*
X163410493Y-47222308D01*
X163407899Y-47247698D01*
X163381501Y-47312389D01*
X163324319Y-47352539D01*
X163254508Y-47355400D01*
X163194232Y-47320064D01*
X163181439Y-47303983D01*
X163121789Y-47214711D01*
X163121786Y-47214707D01*
X163010292Y-47103213D01*
X163010288Y-47103210D01*
X162879185Y-47015609D01*
X162879172Y-47015602D01*
X162733501Y-46955264D01*
X162733489Y-46955261D01*
X162578845Y-46924500D01*
X162578842Y-46924500D01*
X162421158Y-46924500D01*
X162421155Y-46924500D01*
X162266510Y-46955261D01*
X162266498Y-46955264D01*
X162120827Y-47015602D01*
X162120814Y-47015609D01*
X161989711Y-47103210D01*
X161989707Y-47103213D01*
X161878213Y-47214707D01*
X161878210Y-47214711D01*
X161790609Y-47345814D01*
X161790602Y-47345827D01*
X161730264Y-47491498D01*
X161730261Y-47491510D01*
X161699500Y-47646153D01*
X161300499Y-47646153D01*
X161269738Y-47491510D01*
X161269737Y-47491503D01*
X161212177Y-47352539D01*
X161209397Y-47345827D01*
X161209390Y-47345814D01*
X161121789Y-47214711D01*
X161121786Y-47214707D01*
X161010292Y-47103213D01*
X161010288Y-47103210D01*
X160879185Y-47015609D01*
X160879172Y-47015602D01*
X160733501Y-46955264D01*
X160733489Y-46955261D01*
X160578845Y-46924500D01*
X160578842Y-46924500D01*
X160421158Y-46924500D01*
X160421155Y-46924500D01*
X160266510Y-46955261D01*
X160266498Y-46955264D01*
X160120827Y-47015602D01*
X160120814Y-47015609D01*
X159989711Y-47103210D01*
X159989707Y-47103213D01*
X159878213Y-47214707D01*
X159878210Y-47214711D01*
X159790609Y-47345814D01*
X159790602Y-47345827D01*
X159730264Y-47491498D01*
X159730261Y-47491510D01*
X159699500Y-47646153D01*
X159300499Y-47646153D01*
X159269738Y-47491510D01*
X159269737Y-47491503D01*
X159212177Y-47352539D01*
X159209397Y-47345827D01*
X159209390Y-47345814D01*
X159121789Y-47214711D01*
X159121786Y-47214707D01*
X159010292Y-47103213D01*
X159010288Y-47103210D01*
X158879185Y-47015609D01*
X158879172Y-47015602D01*
X158733501Y-46955264D01*
X158733489Y-46955261D01*
X158578845Y-46924500D01*
X158578842Y-46924500D01*
X158421158Y-46924500D01*
X158421155Y-46924500D01*
X158266510Y-46955261D01*
X158266498Y-46955264D01*
X158120827Y-47015602D01*
X158120814Y-47015609D01*
X157989711Y-47103210D01*
X157989707Y-47103213D01*
X157878213Y-47214707D01*
X157878210Y-47214711D01*
X157790609Y-47345814D01*
X157790602Y-47345827D01*
X157730264Y-47491498D01*
X157730261Y-47491510D01*
X157699500Y-47646153D01*
X157300499Y-47646153D01*
X157269738Y-47491510D01*
X157269737Y-47491503D01*
X157212177Y-47352539D01*
X157209397Y-47345827D01*
X157209390Y-47345814D01*
X157121789Y-47214711D01*
X157121786Y-47214707D01*
X157010292Y-47103213D01*
X157010288Y-47103210D01*
X156879185Y-47015609D01*
X156879172Y-47015602D01*
X156733501Y-46955264D01*
X156733489Y-46955261D01*
X156578845Y-46924500D01*
X156578842Y-46924500D01*
X156421158Y-46924500D01*
X156421155Y-46924500D01*
X156266510Y-46955261D01*
X156266498Y-46955264D01*
X156120827Y-47015602D01*
X156120814Y-47015609D01*
X155989711Y-47103210D01*
X155989707Y-47103213D01*
X155878213Y-47214707D01*
X155878210Y-47214711D01*
X155790609Y-47345814D01*
X155790602Y-47345827D01*
X155730264Y-47491498D01*
X155730261Y-47491510D01*
X155699500Y-47646153D01*
X155300499Y-47646153D01*
X155269738Y-47491510D01*
X155269737Y-47491503D01*
X155212177Y-47352539D01*
X155209397Y-47345827D01*
X155209390Y-47345814D01*
X155121789Y-47214711D01*
X155121786Y-47214707D01*
X155010292Y-47103213D01*
X155010288Y-47103210D01*
X154879185Y-47015609D01*
X154879172Y-47015602D01*
X154733501Y-46955264D01*
X154733489Y-46955261D01*
X154578845Y-46924500D01*
X154578842Y-46924500D01*
X154421158Y-46924500D01*
X154421155Y-46924500D01*
X154266510Y-46955261D01*
X154266498Y-46955264D01*
X154120827Y-47015602D01*
X154120814Y-47015609D01*
X153989711Y-47103210D01*
X153989707Y-47103213D01*
X153878213Y-47214707D01*
X153878210Y-47214711D01*
X153790609Y-47345814D01*
X153790602Y-47345827D01*
X153730264Y-47491498D01*
X153730261Y-47491510D01*
X153699500Y-47646153D01*
X152000500Y-47646153D01*
X152000500Y-40393713D01*
X153149500Y-40393713D01*
X153149500Y-40606287D01*
X153182754Y-40816243D01*
X153248372Y-41018194D01*
X153248444Y-41018414D01*
X153344951Y-41207820D01*
X153469890Y-41379786D01*
X153620213Y-41530109D01*
X153792179Y-41655048D01*
X153792181Y-41655049D01*
X153792184Y-41655051D01*
X153981588Y-41751557D01*
X154183757Y-41817246D01*
X154393713Y-41850500D01*
X154393714Y-41850500D01*
X154606286Y-41850500D01*
X154606287Y-41850500D01*
X154816243Y-41817246D01*
X155018412Y-41751557D01*
X155207816Y-41655051D01*
X155333094Y-41564032D01*
X155379786Y-41530109D01*
X155379788Y-41530106D01*
X155379792Y-41530104D01*
X155530104Y-41379792D01*
X155530106Y-41379788D01*
X155530109Y-41379786D01*
X155655048Y-41207820D01*
X155655047Y-41207820D01*
X155655051Y-41207816D01*
X155751557Y-41018412D01*
X155817246Y-40816243D01*
X155850500Y-40606287D01*
X155850500Y-40393713D01*
X155817246Y-40183757D01*
X155751557Y-39981588D01*
X155655051Y-39792184D01*
X155655050Y-39792182D01*
X155639464Y-39770730D01*
X158699500Y-39770730D01*
X158699500Y-41129269D01*
X158702353Y-41159699D01*
X158702353Y-41159701D01*
X158747206Y-41287880D01*
X158747207Y-41287882D01*
X158827850Y-41397150D01*
X158937118Y-41477793D01*
X158979845Y-41492744D01*
X159065299Y-41522646D01*
X159095730Y-41525500D01*
X159095734Y-41525500D01*
X159904270Y-41525500D01*
X159934699Y-41522646D01*
X159934701Y-41522646D01*
X159998790Y-41500219D01*
X160062882Y-41477793D01*
X160172150Y-41397150D01*
X160252793Y-41287882D01*
X160278895Y-41213285D01*
X160319615Y-41156513D01*
X160384567Y-41130765D01*
X160453129Y-41144221D01*
X160503532Y-41192608D01*
X160506419Y-41197947D01*
X160559194Y-41301521D01*
X160660967Y-41441602D01*
X160783397Y-41564032D01*
X160923475Y-41665804D01*
X161077744Y-41744408D01*
X161242415Y-41797914D01*
X161242414Y-41797914D01*
X161249999Y-41799115D01*
X161250000Y-41799114D01*
X161250000Y-40730330D01*
X161269745Y-40750075D01*
X161355255Y-40799444D01*
X161450630Y-40825000D01*
X161549370Y-40825000D01*
X161644745Y-40799444D01*
X161730255Y-40750075D01*
X161750000Y-40730330D01*
X161750000Y-41799115D01*
X161757584Y-41797914D01*
X161922255Y-41744408D01*
X162076524Y-41665804D01*
X162216602Y-41564032D01*
X162339032Y-41441602D01*
X162440804Y-41301524D01*
X162519409Y-41147253D01*
X162542603Y-41075870D01*
X162582040Y-41018194D01*
X162646398Y-40990995D01*
X162715244Y-41002909D01*
X162766721Y-41050153D01*
X162775095Y-41066733D01*
X162790603Y-41104172D01*
X162790606Y-41104178D01*
X162790609Y-41104185D01*
X162878210Y-41235288D01*
X162878213Y-41235292D01*
X162989707Y-41346786D01*
X162989711Y-41346789D01*
X163120814Y-41434390D01*
X163120827Y-41434397D01*
X163225596Y-41477793D01*
X163266503Y-41494737D01*
X163406810Y-41522646D01*
X163421153Y-41525499D01*
X163421156Y-41525500D01*
X163421158Y-41525500D01*
X163578844Y-41525500D01*
X163578845Y-41525499D01*
X163733497Y-41494737D01*
X163879179Y-41434394D01*
X164010289Y-41346789D01*
X164121789Y-41235289D01*
X164209394Y-41104179D01*
X164269737Y-40958497D01*
X164300500Y-40803842D01*
X164300500Y-40096158D01*
X164300500Y-40096155D01*
X164300499Y-40096153D01*
X164699500Y-40096153D01*
X164699500Y-40803846D01*
X164730261Y-40958489D01*
X164730264Y-40958501D01*
X164790602Y-41104172D01*
X164790609Y-41104185D01*
X164878210Y-41235288D01*
X164878213Y-41235292D01*
X164989707Y-41346786D01*
X164989711Y-41346789D01*
X165120814Y-41434390D01*
X165120827Y-41434397D01*
X165225596Y-41477793D01*
X165266503Y-41494737D01*
X165406810Y-41522646D01*
X165421153Y-41525499D01*
X165421156Y-41525500D01*
X165421158Y-41525500D01*
X165578844Y-41525500D01*
X165578845Y-41525499D01*
X165733497Y-41494737D01*
X165879179Y-41434394D01*
X166010289Y-41346789D01*
X166121789Y-41235289D01*
X166209394Y-41104179D01*
X166269737Y-40958497D01*
X166300500Y-40803842D01*
X166300500Y-40096158D01*
X166300500Y-40096155D01*
X166300499Y-40096153D01*
X166269738Y-39941510D01*
X166269737Y-39941503D01*
X166209394Y-39795821D01*
X166209391Y-39795816D01*
X166209390Y-39795814D01*
X166192629Y-39770730D01*
X169699500Y-39770730D01*
X169699500Y-41129269D01*
X169702353Y-41159699D01*
X169702353Y-41159701D01*
X169747206Y-41287880D01*
X169747207Y-41287882D01*
X169827850Y-41397150D01*
X169937118Y-41477793D01*
X169979845Y-41492744D01*
X170065299Y-41522646D01*
X170095730Y-41525500D01*
X170095734Y-41525500D01*
X170904270Y-41525500D01*
X170934699Y-41522646D01*
X170934701Y-41522646D01*
X170998790Y-41500219D01*
X171062882Y-41477793D01*
X171172150Y-41397150D01*
X171252793Y-41287882D01*
X171278895Y-41213285D01*
X171319615Y-41156513D01*
X171384567Y-41130765D01*
X171453129Y-41144221D01*
X171503532Y-41192608D01*
X171506419Y-41197947D01*
X171559194Y-41301521D01*
X171660967Y-41441602D01*
X171783397Y-41564032D01*
X171923475Y-41665804D01*
X172077744Y-41744408D01*
X172242415Y-41797914D01*
X172242414Y-41797914D01*
X172249999Y-41799115D01*
X172250000Y-41799114D01*
X172250000Y-40730330D01*
X172269745Y-40750075D01*
X172355255Y-40799444D01*
X172450630Y-40825000D01*
X172549370Y-40825000D01*
X172644745Y-40799444D01*
X172730255Y-40750075D01*
X172750000Y-40730330D01*
X172750000Y-41799115D01*
X172757584Y-41797914D01*
X172922255Y-41744408D01*
X173076524Y-41665804D01*
X173216602Y-41564032D01*
X173339032Y-41441602D01*
X173440804Y-41301524D01*
X173519409Y-41147253D01*
X173542603Y-41075870D01*
X173582040Y-41018194D01*
X173646398Y-40990995D01*
X173715244Y-41002909D01*
X173766721Y-41050153D01*
X173775095Y-41066733D01*
X173790603Y-41104172D01*
X173790606Y-41104178D01*
X173790609Y-41104185D01*
X173878210Y-41235288D01*
X173878213Y-41235292D01*
X173989707Y-41346786D01*
X173989711Y-41346789D01*
X174120814Y-41434390D01*
X174120827Y-41434397D01*
X174225596Y-41477793D01*
X174266503Y-41494737D01*
X174406810Y-41522646D01*
X174421153Y-41525499D01*
X174421156Y-41525500D01*
X174421158Y-41525500D01*
X174578844Y-41525500D01*
X174578845Y-41525499D01*
X174733497Y-41494737D01*
X174879179Y-41434394D01*
X175010289Y-41346789D01*
X175121789Y-41235289D01*
X175209394Y-41104179D01*
X175269737Y-40958497D01*
X175300500Y-40803842D01*
X175300500Y-40096158D01*
X175300500Y-40096155D01*
X175300499Y-40096153D01*
X175699500Y-40096153D01*
X175699500Y-40803846D01*
X175730261Y-40958489D01*
X175730264Y-40958501D01*
X175790602Y-41104172D01*
X175790609Y-41104185D01*
X175878210Y-41235288D01*
X175878213Y-41235292D01*
X175989707Y-41346786D01*
X175989711Y-41346789D01*
X176120814Y-41434390D01*
X176120827Y-41434397D01*
X176225596Y-41477793D01*
X176266503Y-41494737D01*
X176406810Y-41522646D01*
X176421153Y-41525499D01*
X176421156Y-41525500D01*
X176421158Y-41525500D01*
X176578844Y-41525500D01*
X176578845Y-41525499D01*
X176733497Y-41494737D01*
X176879179Y-41434394D01*
X177010289Y-41346789D01*
X177121789Y-41235289D01*
X177209394Y-41104179D01*
X177269737Y-40958497D01*
X177300500Y-40803842D01*
X177300500Y-40393713D01*
X180149500Y-40393713D01*
X180149500Y-40606287D01*
X180182754Y-40816243D01*
X180248372Y-41018194D01*
X180248444Y-41018414D01*
X180344951Y-41207820D01*
X180469890Y-41379786D01*
X180620213Y-41530109D01*
X180792179Y-41655048D01*
X180792181Y-41655049D01*
X180792184Y-41655051D01*
X180981588Y-41751557D01*
X181183757Y-41817246D01*
X181393713Y-41850500D01*
X181393714Y-41850500D01*
X181606286Y-41850500D01*
X181606287Y-41850500D01*
X181816243Y-41817246D01*
X182018412Y-41751557D01*
X182207816Y-41655051D01*
X182333094Y-41564032D01*
X182379786Y-41530109D01*
X182379788Y-41530106D01*
X182379792Y-41530104D01*
X182530104Y-41379792D01*
X182530106Y-41379788D01*
X182530109Y-41379786D01*
X182655048Y-41207820D01*
X182655047Y-41207820D01*
X182655051Y-41207816D01*
X182751557Y-41018412D01*
X182817246Y-40816243D01*
X182850500Y-40606287D01*
X182850500Y-40393713D01*
X182817246Y-40183757D01*
X182751557Y-39981588D01*
X182655051Y-39792184D01*
X182655049Y-39792181D01*
X182655048Y-39792179D01*
X182530109Y-39620213D01*
X182379786Y-39469890D01*
X182207820Y-39344951D01*
X182018414Y-39248444D01*
X182018413Y-39248443D01*
X182018412Y-39248443D01*
X181816243Y-39182754D01*
X181816241Y-39182753D01*
X181816240Y-39182753D01*
X181644744Y-39155591D01*
X181606287Y-39149500D01*
X181393713Y-39149500D01*
X181355256Y-39155591D01*
X181183760Y-39182753D01*
X180981585Y-39248444D01*
X180792179Y-39344951D01*
X180620213Y-39469890D01*
X180469890Y-39620213D01*
X180344951Y-39792179D01*
X180248444Y-39981585D01*
X180182753Y-40183760D01*
X180177054Y-40219745D01*
X180149500Y-40393713D01*
X177300500Y-40393713D01*
X177300500Y-40096158D01*
X177300500Y-40096155D01*
X177300499Y-40096153D01*
X177269738Y-39941510D01*
X177269737Y-39941503D01*
X177217458Y-39815289D01*
X177209397Y-39795827D01*
X177209390Y-39795814D01*
X177121789Y-39664711D01*
X177121786Y-39664707D01*
X177010292Y-39553213D01*
X177010288Y-39553210D01*
X176879185Y-39465609D01*
X176879172Y-39465602D01*
X176733501Y-39405264D01*
X176733489Y-39405261D01*
X176578845Y-39374500D01*
X176578842Y-39374500D01*
X176421158Y-39374500D01*
X176421155Y-39374500D01*
X176266510Y-39405261D01*
X176266498Y-39405264D01*
X176120827Y-39465602D01*
X176120814Y-39465609D01*
X175989711Y-39553210D01*
X175989707Y-39553213D01*
X175878213Y-39664707D01*
X175878210Y-39664711D01*
X175790609Y-39795814D01*
X175790602Y-39795827D01*
X175730264Y-39941498D01*
X175730261Y-39941510D01*
X175699500Y-40096153D01*
X175300499Y-40096153D01*
X175269738Y-39941510D01*
X175269737Y-39941503D01*
X175217458Y-39815289D01*
X175209397Y-39795827D01*
X175209390Y-39795814D01*
X175121789Y-39664711D01*
X175121786Y-39664707D01*
X175010292Y-39553213D01*
X175010288Y-39553210D01*
X174879185Y-39465609D01*
X174879172Y-39465602D01*
X174733501Y-39405264D01*
X174733489Y-39405261D01*
X174578845Y-39374500D01*
X174578842Y-39374500D01*
X174421158Y-39374500D01*
X174421155Y-39374500D01*
X174266510Y-39405261D01*
X174266498Y-39405264D01*
X174120827Y-39465602D01*
X174120814Y-39465609D01*
X173989711Y-39553210D01*
X173989707Y-39553213D01*
X173878213Y-39664707D01*
X173878210Y-39664711D01*
X173790609Y-39795814D01*
X173790603Y-39795826D01*
X173775094Y-39833267D01*
X173731252Y-39887670D01*
X173664957Y-39909733D01*
X173597258Y-39892453D01*
X173549649Y-39841314D01*
X173542603Y-39824130D01*
X173519408Y-39752744D01*
X173440804Y-39598475D01*
X173339032Y-39458397D01*
X173216602Y-39335967D01*
X173076524Y-39234195D01*
X172922257Y-39155591D01*
X172757589Y-39102087D01*
X172757581Y-39102085D01*
X172750000Y-39100884D01*
X172750000Y-40169670D01*
X172730255Y-40149925D01*
X172644745Y-40100556D01*
X172549370Y-40075000D01*
X172450630Y-40075000D01*
X172355255Y-40100556D01*
X172269745Y-40149925D01*
X172250000Y-40169670D01*
X172250000Y-39100884D01*
X172249999Y-39100884D01*
X172242418Y-39102085D01*
X172242410Y-39102087D01*
X172077742Y-39155591D01*
X171923475Y-39234195D01*
X171783397Y-39335967D01*
X171660967Y-39458397D01*
X171559194Y-39598478D01*
X171506419Y-39702052D01*
X171458444Y-39752848D01*
X171390623Y-39769642D01*
X171324488Y-39747104D01*
X171281038Y-39692388D01*
X171278908Y-39686751D01*
X171252793Y-39612118D01*
X171172150Y-39502850D01*
X171062882Y-39422207D01*
X171062880Y-39422206D01*
X170934700Y-39377353D01*
X170904270Y-39374500D01*
X170904266Y-39374500D01*
X170095734Y-39374500D01*
X170095730Y-39374500D01*
X170065300Y-39377353D01*
X170065298Y-39377353D01*
X169937119Y-39422206D01*
X169937117Y-39422207D01*
X169827850Y-39502850D01*
X169747207Y-39612117D01*
X169747206Y-39612119D01*
X169702353Y-39740298D01*
X169702353Y-39740300D01*
X169699500Y-39770730D01*
X166192629Y-39770730D01*
X166121789Y-39664711D01*
X166121786Y-39664707D01*
X166010292Y-39553213D01*
X166010288Y-39553210D01*
X165879185Y-39465609D01*
X165879172Y-39465602D01*
X165733501Y-39405264D01*
X165733489Y-39405261D01*
X165578845Y-39374500D01*
X165578842Y-39374500D01*
X165421158Y-39374500D01*
X165421155Y-39374500D01*
X165266510Y-39405261D01*
X165266498Y-39405264D01*
X165120827Y-39465602D01*
X165120814Y-39465609D01*
X164989711Y-39553210D01*
X164989707Y-39553213D01*
X164878213Y-39664707D01*
X164878210Y-39664711D01*
X164790609Y-39795814D01*
X164790602Y-39795827D01*
X164730264Y-39941498D01*
X164730261Y-39941510D01*
X164699500Y-40096153D01*
X164300499Y-40096153D01*
X164269738Y-39941510D01*
X164269737Y-39941503D01*
X164217458Y-39815289D01*
X164209397Y-39795827D01*
X164209390Y-39795814D01*
X164121789Y-39664711D01*
X164121786Y-39664707D01*
X164010292Y-39553213D01*
X164010288Y-39553210D01*
X163879185Y-39465609D01*
X163879172Y-39465602D01*
X163733501Y-39405264D01*
X163733489Y-39405261D01*
X163578845Y-39374500D01*
X163578842Y-39374500D01*
X163421158Y-39374500D01*
X163421155Y-39374500D01*
X163266510Y-39405261D01*
X163266498Y-39405264D01*
X163120827Y-39465602D01*
X163120814Y-39465609D01*
X162989711Y-39553210D01*
X162989707Y-39553213D01*
X162878213Y-39664707D01*
X162878210Y-39664711D01*
X162790609Y-39795814D01*
X162790603Y-39795826D01*
X162775094Y-39833267D01*
X162731252Y-39887670D01*
X162664957Y-39909733D01*
X162597258Y-39892453D01*
X162549649Y-39841314D01*
X162542603Y-39824130D01*
X162519408Y-39752744D01*
X162440804Y-39598475D01*
X162339032Y-39458397D01*
X162216602Y-39335967D01*
X162076524Y-39234195D01*
X161922257Y-39155591D01*
X161757589Y-39102087D01*
X161757581Y-39102085D01*
X161750000Y-39100884D01*
X161750000Y-40169670D01*
X161730255Y-40149925D01*
X161644745Y-40100556D01*
X161549370Y-40075000D01*
X161450630Y-40075000D01*
X161355255Y-40100556D01*
X161269745Y-40149925D01*
X161250000Y-40169670D01*
X161250000Y-39100884D01*
X161249999Y-39100884D01*
X161242418Y-39102085D01*
X161242410Y-39102087D01*
X161077742Y-39155591D01*
X160923475Y-39234195D01*
X160783397Y-39335967D01*
X160660967Y-39458397D01*
X160559194Y-39598478D01*
X160506419Y-39702052D01*
X160458444Y-39752848D01*
X160390623Y-39769642D01*
X160324488Y-39747104D01*
X160281038Y-39692388D01*
X160278908Y-39686751D01*
X160252793Y-39612118D01*
X160172150Y-39502850D01*
X160062882Y-39422207D01*
X160062880Y-39422206D01*
X159934700Y-39377353D01*
X159904270Y-39374500D01*
X159904266Y-39374500D01*
X159095734Y-39374500D01*
X159095730Y-39374500D01*
X159065300Y-39377353D01*
X159065298Y-39377353D01*
X158937119Y-39422206D01*
X158937117Y-39422207D01*
X158827850Y-39502850D01*
X158747207Y-39612117D01*
X158747206Y-39612119D01*
X158702353Y-39740298D01*
X158702353Y-39740300D01*
X158699500Y-39770730D01*
X155639464Y-39770730D01*
X155530109Y-39620213D01*
X155379786Y-39469890D01*
X155207820Y-39344951D01*
X155018414Y-39248444D01*
X155018413Y-39248443D01*
X155018412Y-39248443D01*
X154816243Y-39182754D01*
X154816241Y-39182753D01*
X154816240Y-39182753D01*
X154644744Y-39155591D01*
X154606287Y-39149500D01*
X154393713Y-39149500D01*
X154355256Y-39155591D01*
X154183760Y-39182753D01*
X153981585Y-39248444D01*
X153792179Y-39344951D01*
X153620213Y-39469890D01*
X153469890Y-39620213D01*
X153344951Y-39792179D01*
X153248444Y-39981585D01*
X153182753Y-40183760D01*
X153177054Y-40219745D01*
X153149500Y-40393713D01*
X152000500Y-40393713D01*
X152000500Y-38124500D01*
X152020185Y-38057461D01*
X152072989Y-38011706D01*
X152124500Y-38000500D01*
X183875500Y-38000500D01*
X183942539Y-38020185D01*
G37*
%TD.AperFunction*%
%TD*%
%TA.AperFunction,Conductor*%
%TO.N,/+12V_PROTECTED*%
G36*
X154035839Y-84019685D02*
G01*
X154081594Y-84072489D01*
X154091538Y-84141647D01*
X154083361Y-84171452D01*
X154050065Y-84251835D01*
X154050062Y-84251847D01*
X154012100Y-84442695D01*
X154012100Y-84637304D01*
X154050062Y-84828152D01*
X154050064Y-84828160D01*
X154124532Y-85007943D01*
X154124537Y-85007952D01*
X154232647Y-85169749D01*
X154232650Y-85169753D01*
X154370246Y-85307349D01*
X154370250Y-85307352D01*
X154532047Y-85415462D01*
X154532053Y-85415465D01*
X154532054Y-85415466D01*
X154711840Y-85489936D01*
X154902695Y-85527899D01*
X154902699Y-85527900D01*
X154902700Y-85527900D01*
X155097301Y-85527900D01*
X155097302Y-85527899D01*
X155288160Y-85489936D01*
X155467946Y-85415466D01*
X155629750Y-85307352D01*
X155767352Y-85169750D01*
X155875466Y-85007946D01*
X155949936Y-84828160D01*
X155987900Y-84637300D01*
X155987900Y-84442700D01*
X155949936Y-84251840D01*
X155949934Y-84251835D01*
X155916639Y-84171452D01*
X155909170Y-84101983D01*
X155940446Y-84039504D01*
X156000535Y-84003852D01*
X156031200Y-84000000D01*
X168369550Y-84000000D01*
X168436589Y-84019685D01*
X168482344Y-84072489D01*
X168492288Y-84141647D01*
X168484111Y-84171452D01*
X168450815Y-84251835D01*
X168450812Y-84251847D01*
X168412850Y-84442695D01*
X168412850Y-84637304D01*
X168450812Y-84828152D01*
X168450814Y-84828160D01*
X168525282Y-85007943D01*
X168525287Y-85007952D01*
X168633397Y-85169749D01*
X168633400Y-85169753D01*
X168770996Y-85307349D01*
X168771000Y-85307352D01*
X168932797Y-85415462D01*
X168932803Y-85415465D01*
X168932804Y-85415466D01*
X169112590Y-85489936D01*
X169303445Y-85527899D01*
X169303449Y-85527900D01*
X169303450Y-85527900D01*
X169498051Y-85527900D01*
X169498052Y-85527899D01*
X169688910Y-85489936D01*
X169868696Y-85415466D01*
X170030500Y-85307352D01*
X170168102Y-85169750D01*
X170276216Y-85007946D01*
X170350686Y-84828160D01*
X170388650Y-84637300D01*
X170388650Y-84442700D01*
X170350686Y-84251840D01*
X170350684Y-84251835D01*
X170317389Y-84171452D01*
X170309920Y-84101983D01*
X170341196Y-84039504D01*
X170401285Y-84003852D01*
X170431950Y-84000000D01*
X183875500Y-84000000D01*
X183942539Y-84019685D01*
X183988294Y-84072489D01*
X183999500Y-84124000D01*
X183999500Y-123876000D01*
X183979815Y-123943039D01*
X183927011Y-123988794D01*
X183875500Y-124000000D01*
X152124500Y-124000000D01*
X152057461Y-123980315D01*
X152011706Y-123927511D01*
X152000500Y-123876000D01*
X152000500Y-120393713D01*
X153149500Y-120393713D01*
X153149500Y-120606287D01*
X153182754Y-120816243D01*
X153201262Y-120873206D01*
X153248444Y-121018414D01*
X153344951Y-121207820D01*
X153469890Y-121379786D01*
X153620213Y-121530109D01*
X153792179Y-121655048D01*
X153792181Y-121655049D01*
X153792184Y-121655051D01*
X153981588Y-121751557D01*
X154183757Y-121817246D01*
X154393713Y-121850500D01*
X154393714Y-121850500D01*
X154606286Y-121850500D01*
X154606287Y-121850500D01*
X154816243Y-121817246D01*
X155018412Y-121751557D01*
X155207816Y-121655051D01*
X155229789Y-121639086D01*
X155379786Y-121530109D01*
X155379788Y-121530106D01*
X155379792Y-121530104D01*
X155530104Y-121379792D01*
X155530106Y-121379788D01*
X155530109Y-121379786D01*
X155655048Y-121207820D01*
X155655047Y-121207820D01*
X155655051Y-121207816D01*
X155751557Y-121018412D01*
X155817246Y-120816243D01*
X155850500Y-120606287D01*
X155850500Y-120447273D01*
X165599500Y-120447273D01*
X165599500Y-120552727D01*
X165626793Y-120654587D01*
X165679520Y-120745913D01*
X165754087Y-120820480D01*
X165845413Y-120873207D01*
X165947273Y-120900500D01*
X165947275Y-120900500D01*
X166052725Y-120900500D01*
X166052727Y-120900500D01*
X166154587Y-120873207D01*
X166245913Y-120820480D01*
X166320480Y-120745913D01*
X166373207Y-120654587D01*
X166400500Y-120552727D01*
X166400500Y-120447273D01*
X171599500Y-120447273D01*
X171599500Y-120552727D01*
X171626793Y-120654587D01*
X171679520Y-120745913D01*
X171754087Y-120820480D01*
X171845413Y-120873207D01*
X171947273Y-120900500D01*
X171947275Y-120900500D01*
X172052725Y-120900500D01*
X172052727Y-120900500D01*
X172154587Y-120873207D01*
X172245913Y-120820480D01*
X172320480Y-120745913D01*
X172373207Y-120654587D01*
X172400500Y-120552727D01*
X172400500Y-120447273D01*
X172373207Y-120345413D01*
X172320480Y-120254087D01*
X172245913Y-120179520D01*
X172154587Y-120126793D01*
X172052727Y-120099500D01*
X171947273Y-120099500D01*
X171845413Y-120126793D01*
X171845410Y-120126794D01*
X171754085Y-120179521D01*
X171679521Y-120254085D01*
X171626794Y-120345410D01*
X171626793Y-120345413D01*
X171599500Y-120447273D01*
X166400500Y-120447273D01*
X166373207Y-120345413D01*
X166320480Y-120254087D01*
X166245913Y-120179520D01*
X166154587Y-120126793D01*
X166052727Y-120099500D01*
X165947273Y-120099500D01*
X165845413Y-120126793D01*
X165845410Y-120126794D01*
X165754085Y-120179521D01*
X165679521Y-120254085D01*
X165626794Y-120345410D01*
X165626793Y-120345413D01*
X165599500Y-120447273D01*
X155850500Y-120447273D01*
X155850500Y-120393713D01*
X155817246Y-120183757D01*
X155751557Y-119981588D01*
X155655051Y-119792184D01*
X155655049Y-119792181D01*
X155655048Y-119792179D01*
X155530109Y-119620213D01*
X155379786Y-119469890D01*
X155207820Y-119344951D01*
X155018414Y-119248444D01*
X155018413Y-119248443D01*
X155018412Y-119248443D01*
X154816243Y-119182754D01*
X154816241Y-119182753D01*
X154816240Y-119182753D01*
X154654957Y-119157208D01*
X154606287Y-119149500D01*
X154393713Y-119149500D01*
X154345042Y-119157208D01*
X154183760Y-119182753D01*
X153981585Y-119248444D01*
X153792179Y-119344951D01*
X153620213Y-119469890D01*
X153469890Y-119620213D01*
X153344951Y-119792179D01*
X153248444Y-119981585D01*
X153182753Y-120183760D01*
X153157150Y-120345410D01*
X153149500Y-120393713D01*
X152000500Y-120393713D01*
X152000500Y-118447273D01*
X173099500Y-118447273D01*
X173099500Y-118552727D01*
X173126793Y-118654587D01*
X173179520Y-118745913D01*
X173254087Y-118820480D01*
X173345413Y-118873207D01*
X173447273Y-118900500D01*
X173447275Y-118900500D01*
X173552725Y-118900500D01*
X173552727Y-118900500D01*
X173654587Y-118873207D01*
X173745913Y-118820480D01*
X173820480Y-118745913D01*
X173873207Y-118654587D01*
X173900500Y-118552727D01*
X173900500Y-118447273D01*
X173873207Y-118345413D01*
X173820480Y-118254087D01*
X173745913Y-118179520D01*
X173654587Y-118126793D01*
X173552727Y-118099500D01*
X173447273Y-118099500D01*
X173345413Y-118126793D01*
X173345410Y-118126794D01*
X173254085Y-118179521D01*
X173179521Y-118254085D01*
X173126794Y-118345410D01*
X173126793Y-118345413D01*
X173099500Y-118447273D01*
X152000500Y-118447273D01*
X152000500Y-111659773D01*
X167399500Y-111659773D01*
X167399500Y-111765227D01*
X167426793Y-111867087D01*
X167479520Y-111958413D01*
X167554087Y-112032980D01*
X167645413Y-112085707D01*
X167747273Y-112113000D01*
X167747275Y-112113000D01*
X167852725Y-112113000D01*
X167852727Y-112113000D01*
X167954587Y-112085707D01*
X168045913Y-112032980D01*
X168120480Y-111958413D01*
X168173207Y-111867087D01*
X168200500Y-111765227D01*
X168200500Y-111659773D01*
X168173207Y-111557913D01*
X168120480Y-111466587D01*
X168045913Y-111392020D01*
X167954587Y-111339293D01*
X167852727Y-111312000D01*
X167747273Y-111312000D01*
X167645413Y-111339293D01*
X167645410Y-111339294D01*
X167554085Y-111392021D01*
X167479521Y-111466585D01*
X167426794Y-111557910D01*
X167426793Y-111557913D01*
X167399500Y-111659773D01*
X152000500Y-111659773D01*
X152000500Y-110947273D01*
X176599500Y-110947273D01*
X176599500Y-111052727D01*
X176626793Y-111154587D01*
X176679520Y-111245913D01*
X176754087Y-111320480D01*
X176845413Y-111373207D01*
X176947273Y-111400500D01*
X176947275Y-111400500D01*
X177052725Y-111400500D01*
X177052727Y-111400500D01*
X177154587Y-111373207D01*
X177245913Y-111320480D01*
X177320480Y-111245913D01*
X177373207Y-111154587D01*
X177400500Y-111052727D01*
X177400500Y-110947273D01*
X180099500Y-110947273D01*
X180099500Y-111052727D01*
X180126793Y-111154587D01*
X180179520Y-111245913D01*
X180254087Y-111320480D01*
X180345413Y-111373207D01*
X180447273Y-111400500D01*
X180447275Y-111400500D01*
X180552725Y-111400500D01*
X180552727Y-111400500D01*
X180654587Y-111373207D01*
X180745913Y-111320480D01*
X180820480Y-111245913D01*
X180873207Y-111154587D01*
X180900500Y-111052727D01*
X180900500Y-110947273D01*
X180873207Y-110845413D01*
X180820480Y-110754087D01*
X180745913Y-110679520D01*
X180654587Y-110626793D01*
X180552727Y-110599500D01*
X180447273Y-110599500D01*
X180345413Y-110626793D01*
X180345410Y-110626794D01*
X180254085Y-110679521D01*
X180179521Y-110754085D01*
X180126794Y-110845410D01*
X180126793Y-110845413D01*
X180099500Y-110947273D01*
X177400500Y-110947273D01*
X177373207Y-110845413D01*
X177320480Y-110754087D01*
X177245913Y-110679520D01*
X177154587Y-110626793D01*
X177052727Y-110599500D01*
X176947273Y-110599500D01*
X176845413Y-110626793D01*
X176845410Y-110626794D01*
X176754085Y-110679521D01*
X176679521Y-110754085D01*
X176626794Y-110845410D01*
X176626793Y-110845413D01*
X176599500Y-110947273D01*
X152000500Y-110947273D01*
X152000500Y-105947273D01*
X159599500Y-105947273D01*
X159599500Y-106052727D01*
X159626793Y-106154587D01*
X159679520Y-106245913D01*
X159754087Y-106320480D01*
X159845413Y-106373207D01*
X159947273Y-106400500D01*
X159947275Y-106400500D01*
X160052725Y-106400500D01*
X160052727Y-106400500D01*
X160154587Y-106373207D01*
X160245913Y-106320480D01*
X160320480Y-106245913D01*
X160373207Y-106154587D01*
X160400500Y-106052727D01*
X160400500Y-105947273D01*
X170599500Y-105947273D01*
X170599500Y-106052727D01*
X170626793Y-106154587D01*
X170679520Y-106245913D01*
X170754087Y-106320480D01*
X170845413Y-106373207D01*
X170947273Y-106400500D01*
X170947275Y-106400500D01*
X171052725Y-106400500D01*
X171052727Y-106400500D01*
X171154587Y-106373207D01*
X171245913Y-106320480D01*
X171320480Y-106245913D01*
X171373207Y-106154587D01*
X171400500Y-106052727D01*
X171400500Y-105947273D01*
X171373207Y-105845413D01*
X171320480Y-105754087D01*
X171245913Y-105679520D01*
X171154587Y-105626793D01*
X171052727Y-105599500D01*
X170947273Y-105599500D01*
X170845413Y-105626793D01*
X170845410Y-105626794D01*
X170754085Y-105679521D01*
X170679521Y-105754085D01*
X170626794Y-105845410D01*
X170626793Y-105845413D01*
X170599500Y-105947273D01*
X160400500Y-105947273D01*
X160373207Y-105845413D01*
X160320480Y-105754087D01*
X160245913Y-105679520D01*
X160154587Y-105626793D01*
X160052727Y-105599500D01*
X159947273Y-105599500D01*
X159845413Y-105626793D01*
X159845410Y-105626794D01*
X159754085Y-105679521D01*
X159679521Y-105754085D01*
X159626794Y-105845410D01*
X159626793Y-105845413D01*
X159599500Y-105947273D01*
X152000500Y-105947273D01*
X152000500Y-103747273D01*
X166712000Y-103747273D01*
X166712000Y-103852727D01*
X166739293Y-103954587D01*
X166792020Y-104045913D01*
X166866587Y-104120480D01*
X166957913Y-104173207D01*
X167059773Y-104200500D01*
X167059775Y-104200500D01*
X167165225Y-104200500D01*
X167165227Y-104200500D01*
X167267087Y-104173207D01*
X167358413Y-104120480D01*
X167432980Y-104045913D01*
X167485707Y-103954587D01*
X167513000Y-103852727D01*
X167513000Y-103747273D01*
X167485707Y-103645413D01*
X167432980Y-103554087D01*
X167358413Y-103479520D01*
X167267087Y-103426793D01*
X167165227Y-103399500D01*
X167059773Y-103399500D01*
X166957913Y-103426793D01*
X166957910Y-103426794D01*
X166866585Y-103479521D01*
X166792021Y-103554085D01*
X166739294Y-103645410D01*
X166739293Y-103645413D01*
X166712000Y-103747273D01*
X152000500Y-103747273D01*
X152000500Y-103247273D01*
X161712000Y-103247273D01*
X161712000Y-103352727D01*
X161739293Y-103454587D01*
X161792020Y-103545913D01*
X161866587Y-103620480D01*
X161957913Y-103673207D01*
X162059773Y-103700500D01*
X162059775Y-103700500D01*
X162165225Y-103700500D01*
X162165227Y-103700500D01*
X162267087Y-103673207D01*
X162358413Y-103620480D01*
X162432980Y-103545913D01*
X162485707Y-103454587D01*
X162513000Y-103352727D01*
X162513000Y-103247273D01*
X162485707Y-103145413D01*
X162432980Y-103054087D01*
X162358413Y-102979520D01*
X162267087Y-102926793D01*
X162165227Y-102899500D01*
X162059773Y-102899500D01*
X161957913Y-102926793D01*
X161957910Y-102926794D01*
X161866585Y-102979521D01*
X161792021Y-103054085D01*
X161739294Y-103145410D01*
X161739293Y-103145413D01*
X161712000Y-103247273D01*
X152000500Y-103247273D01*
X152000500Y-100376652D01*
X154342619Y-100376652D01*
X154342619Y-100482106D01*
X154369912Y-100583966D01*
X154422639Y-100675292D01*
X154497206Y-100749859D01*
X154588532Y-100802586D01*
X154690392Y-100829879D01*
X154690394Y-100829879D01*
X154795844Y-100829879D01*
X154795846Y-100829879D01*
X154897706Y-100802586D01*
X154989032Y-100749859D01*
X155030438Y-100708453D01*
X155091761Y-100674968D01*
X155161453Y-100679952D01*
X155205800Y-100708453D01*
X155247206Y-100749859D01*
X155338532Y-100802586D01*
X155440392Y-100829879D01*
X155440394Y-100829879D01*
X155545844Y-100829879D01*
X155545846Y-100829879D01*
X155647706Y-100802586D01*
X155739032Y-100749859D01*
X155780438Y-100708453D01*
X155841761Y-100674968D01*
X155911453Y-100679952D01*
X155955800Y-100708453D01*
X155997206Y-100749859D01*
X156088532Y-100802586D01*
X156190392Y-100829879D01*
X156190394Y-100829879D01*
X156295844Y-100829879D01*
X156295846Y-100829879D01*
X156397706Y-100802586D01*
X156489032Y-100749859D01*
X156491618Y-100747273D01*
X167712000Y-100747273D01*
X167712000Y-100852727D01*
X167739293Y-100954587D01*
X167792020Y-101045913D01*
X167866587Y-101120480D01*
X167957913Y-101173207D01*
X168059773Y-101200500D01*
X168059775Y-101200500D01*
X168165225Y-101200500D01*
X168165227Y-101200500D01*
X168267087Y-101173207D01*
X168358413Y-101120480D01*
X168432980Y-101045913D01*
X168485707Y-100954587D01*
X168513000Y-100852727D01*
X168513000Y-100747273D01*
X168485707Y-100645413D01*
X168432980Y-100554087D01*
X168358413Y-100479520D01*
X168267087Y-100426793D01*
X168165227Y-100399500D01*
X168059773Y-100399500D01*
X167957913Y-100426793D01*
X167957910Y-100426794D01*
X167866585Y-100479521D01*
X167792021Y-100554085D01*
X167739294Y-100645410D01*
X167739293Y-100645413D01*
X167712000Y-100747273D01*
X156491618Y-100747273D01*
X156563599Y-100675292D01*
X156616326Y-100583966D01*
X156643619Y-100482106D01*
X156643619Y-100376652D01*
X156616326Y-100274792D01*
X156563599Y-100183466D01*
X156489032Y-100108899D01*
X156397706Y-100056172D01*
X156295846Y-100028879D01*
X156190392Y-100028879D01*
X156088532Y-100056172D01*
X156088529Y-100056173D01*
X155997204Y-100108900D01*
X155955800Y-100150305D01*
X155894477Y-100183790D01*
X155824785Y-100178806D01*
X155780438Y-100150305D01*
X155739033Y-100108900D01*
X155739032Y-100108899D01*
X155647706Y-100056172D01*
X155545846Y-100028879D01*
X155440392Y-100028879D01*
X155338532Y-100056172D01*
X155338529Y-100056173D01*
X155247204Y-100108900D01*
X155205800Y-100150305D01*
X155144477Y-100183790D01*
X155074785Y-100178806D01*
X155030438Y-100150305D01*
X154989033Y-100108900D01*
X154989032Y-100108899D01*
X154897706Y-100056172D01*
X154795846Y-100028879D01*
X154690392Y-100028879D01*
X154588532Y-100056172D01*
X154588529Y-100056173D01*
X154497204Y-100108900D01*
X154422640Y-100183464D01*
X154369913Y-100274789D01*
X154369912Y-100274792D01*
X154342619Y-100376652D01*
X152000500Y-100376652D01*
X152000500Y-99197273D01*
X157849500Y-99197273D01*
X157849500Y-99302727D01*
X157876793Y-99404587D01*
X157929520Y-99495913D01*
X158004087Y-99570480D01*
X158095413Y-99623207D01*
X158197273Y-99650500D01*
X158197275Y-99650500D01*
X158302725Y-99650500D01*
X158302727Y-99650500D01*
X158404587Y-99623207D01*
X158495913Y-99570480D01*
X158570480Y-99495913D01*
X158623207Y-99404587D01*
X158650500Y-99302727D01*
X158650500Y-99197273D01*
X158623207Y-99095413D01*
X158570480Y-99004087D01*
X158495913Y-98929520D01*
X158404587Y-98876793D01*
X158302727Y-98849500D01*
X158197273Y-98849500D01*
X158095413Y-98876793D01*
X158095410Y-98876794D01*
X158004085Y-98929521D01*
X157929521Y-99004085D01*
X157876794Y-99095410D01*
X157876793Y-99095413D01*
X157849500Y-99197273D01*
X152000500Y-99197273D01*
X152000500Y-95247273D01*
X162212000Y-95247273D01*
X162212000Y-95352727D01*
X162239293Y-95454587D01*
X162292020Y-95545913D01*
X162366587Y-95620480D01*
X162457913Y-95673207D01*
X162559773Y-95700500D01*
X162559775Y-95700500D01*
X162665225Y-95700500D01*
X162665227Y-95700500D01*
X162767087Y-95673207D01*
X162858413Y-95620480D01*
X162932980Y-95545913D01*
X162985707Y-95454587D01*
X163013000Y-95352727D01*
X163013000Y-95247273D01*
X162985707Y-95145413D01*
X162932980Y-95054087D01*
X162858413Y-94979520D01*
X162767087Y-94926793D01*
X162665227Y-94899500D01*
X162559773Y-94899500D01*
X162457913Y-94926793D01*
X162457910Y-94926794D01*
X162366585Y-94979521D01*
X162292021Y-95054085D01*
X162239294Y-95145410D01*
X162239293Y-95145413D01*
X162212000Y-95247273D01*
X152000500Y-95247273D01*
X152000500Y-91247273D01*
X162212000Y-91247273D01*
X162212000Y-91352727D01*
X162239293Y-91454587D01*
X162292020Y-91545913D01*
X162366587Y-91620480D01*
X162457913Y-91673207D01*
X162559773Y-91700500D01*
X162559775Y-91700500D01*
X162665225Y-91700500D01*
X162665227Y-91700500D01*
X162767087Y-91673207D01*
X162858413Y-91620480D01*
X162932980Y-91545913D01*
X162985707Y-91454587D01*
X163013000Y-91352727D01*
X163013000Y-91247273D01*
X162985707Y-91145413D01*
X162932980Y-91054087D01*
X162858413Y-90979520D01*
X162767087Y-90926793D01*
X162665227Y-90899500D01*
X162559773Y-90899500D01*
X162457913Y-90926793D01*
X162457910Y-90926794D01*
X162366585Y-90979521D01*
X162292021Y-91054085D01*
X162239294Y-91145410D01*
X162239293Y-91145413D01*
X162212000Y-91247273D01*
X152000500Y-91247273D01*
X152000500Y-86982695D01*
X154012100Y-86982695D01*
X154012100Y-87177304D01*
X154050062Y-87368152D01*
X154050064Y-87368160D01*
X154124532Y-87547943D01*
X154124537Y-87547952D01*
X154232647Y-87709749D01*
X154232650Y-87709753D01*
X154370246Y-87847349D01*
X154370250Y-87847352D01*
X154532047Y-87955462D01*
X154532053Y-87955465D01*
X154532054Y-87955466D01*
X154711840Y-88029936D01*
X154902695Y-88067899D01*
X154902699Y-88067900D01*
X154902700Y-88067900D01*
X155097301Y-88067900D01*
X155097302Y-88067899D01*
X155288160Y-88029936D01*
X155467946Y-87955466D01*
X155629750Y-87847352D01*
X155767352Y-87709750D01*
X155875466Y-87547946D01*
X155949936Y-87368160D01*
X155987900Y-87177300D01*
X155987900Y-86982700D01*
X155987899Y-86982695D01*
X168412850Y-86982695D01*
X168412850Y-87177304D01*
X168450812Y-87368152D01*
X168450814Y-87368160D01*
X168525282Y-87547943D01*
X168525287Y-87547952D01*
X168633397Y-87709749D01*
X168633400Y-87709753D01*
X168770996Y-87847349D01*
X168771000Y-87847352D01*
X168932797Y-87955462D01*
X168932803Y-87955465D01*
X168932804Y-87955466D01*
X169112590Y-88029936D01*
X169303445Y-88067899D01*
X169303449Y-88067900D01*
X169303450Y-88067900D01*
X169498051Y-88067900D01*
X169498052Y-88067899D01*
X169688910Y-88029936D01*
X169868696Y-87955466D01*
X170030500Y-87847352D01*
X170168102Y-87709750D01*
X170276216Y-87547946D01*
X170350686Y-87368160D01*
X170385842Y-87191418D01*
X170418226Y-87129507D01*
X170478942Y-87094933D01*
X170548712Y-87098672D01*
X170569459Y-87108222D01*
X170595413Y-87123207D01*
X170697273Y-87150500D01*
X170697275Y-87150500D01*
X170802725Y-87150500D01*
X170802727Y-87150500D01*
X170904587Y-87123207D01*
X170995913Y-87070480D01*
X171070480Y-86995913D01*
X171123207Y-86904587D01*
X171150500Y-86802727D01*
X171150500Y-86697273D01*
X171123207Y-86595413D01*
X171070480Y-86504087D01*
X170995913Y-86429520D01*
X170904587Y-86376793D01*
X170802727Y-86349500D01*
X170697273Y-86349500D01*
X170595413Y-86376793D01*
X170595410Y-86376794D01*
X170504085Y-86429521D01*
X170429520Y-86504086D01*
X170424721Y-86512399D01*
X170374154Y-86560614D01*
X170305547Y-86573836D01*
X170240682Y-86547868D01*
X170214233Y-86519289D01*
X170168102Y-86450250D01*
X170168099Y-86450246D01*
X170030503Y-86312650D01*
X170030499Y-86312647D01*
X169868702Y-86204537D01*
X169868693Y-86204532D01*
X169688910Y-86130064D01*
X169688902Y-86130062D01*
X169498054Y-86092100D01*
X169498050Y-86092100D01*
X169303450Y-86092100D01*
X169303445Y-86092100D01*
X169112597Y-86130062D01*
X169112589Y-86130064D01*
X168932806Y-86204532D01*
X168932797Y-86204537D01*
X168771000Y-86312647D01*
X168770996Y-86312650D01*
X168633400Y-86450246D01*
X168633397Y-86450250D01*
X168525287Y-86612047D01*
X168525282Y-86612056D01*
X168450814Y-86791839D01*
X168450812Y-86791847D01*
X168412850Y-86982695D01*
X155987899Y-86982695D01*
X155949936Y-86791840D01*
X155875466Y-86612054D01*
X155875465Y-86612053D01*
X155875462Y-86612047D01*
X155767352Y-86450250D01*
X155767349Y-86450246D01*
X155629753Y-86312650D01*
X155629749Y-86312647D01*
X155467952Y-86204537D01*
X155467943Y-86204532D01*
X155288160Y-86130064D01*
X155288152Y-86130062D01*
X155097304Y-86092100D01*
X155097300Y-86092100D01*
X154902700Y-86092100D01*
X154902695Y-86092100D01*
X154711847Y-86130062D01*
X154711839Y-86130064D01*
X154532056Y-86204532D01*
X154532047Y-86204537D01*
X154370250Y-86312647D01*
X154370246Y-86312650D01*
X154232650Y-86450246D01*
X154232647Y-86450250D01*
X154124537Y-86612047D01*
X154124532Y-86612056D01*
X154050064Y-86791839D01*
X154050062Y-86791847D01*
X154012100Y-86982695D01*
X152000500Y-86982695D01*
X152000500Y-84124000D01*
X152020185Y-84056961D01*
X152072989Y-84011206D01*
X152124500Y-84000000D01*
X153968800Y-84000000D01*
X154035839Y-84019685D01*
G37*
%TD.AperFunction*%
%TD*%
M02*
