M48
; DRILL file KiCad 10.0.5 date 2026-09-17T20:02:06
; FORMAT={-:-/ absolute / metric / decimal}
; #@! TF.CreationDate,2026-09-17T20:02:06+02:00
; #@! TF.GenerationSoftware,Kicad,Pcbnew,10.0.5
; #@! TF.FileFunction,Plated,1,4,PTH
FMAT,2
METRIC
; #@! TA.AperFunction,Plated,PTH,ViaDrill
T1C0.300
; #@! TA.AperFunction,Plated,PTH,ComponentDrill
T2C0.750
; #@! TA.AperFunction,Plated,PTH,ComponentDrill
T3C0.840
; #@! TA.AperFunction,Plated,PTH,ComponentDrill
T4C1.000
; #@! TA.AperFunction,Plated,PTH,ComponentDrill
T5C1.067
; #@! TA.AperFunction,Plated,PTH,ComponentDrill
T6C1.550
%
G90
G05
T1
X152.5Y-72.0
X154.743Y-100.429
X155.0Y-106.5
X155.493Y-100.429
X155.5Y-107.0
X156.0Y-106.5
X156.243Y-100.429
X156.923Y-72.584
X158.25Y-90.0
X158.25Y-99.25
X159.0Y-77.0
X160.0Y-106.0
X160.25Y-77.0
X160.75Y-71.5
X161.0Y-73.5
X161.4Y-79.65
X162.112Y-103.3
X162.612Y-91.3
X162.612Y-95.3
X165.612Y-102.2
X166.0Y-73.5
X166.0Y-117.5
X166.0Y-120.5
X167.0Y-71.5
X167.112Y-103.8
X167.8Y-111.712
X168.0Y-48.0
X168.112Y-100.8
X170.0Y-48.0
X170.75Y-86.75
X171.0Y-106.0
X172.0Y-120.5
X173.5Y-118.5
X174.5Y-71.25
X177.0Y-111.0
X180.5Y-111.0
X180.75Y-70.5
X182.0Y-67.5
T2
X154.5Y-48.0
X156.5Y-48.0
X158.5Y-48.0
X159.5Y-40.45
X160.5Y-48.0
X161.5Y-40.45
X162.5Y-48.0
X163.5Y-40.45
X164.5Y-48.0
X165.5Y-40.45
X170.5Y-40.45
X172.5Y-40.45
X173.5Y-48.0
X174.5Y-40.45
X175.5Y-48.0
X176.5Y-40.45
X177.5Y-48.0
X179.5Y-48.0
X181.5Y-48.0
T3
X155.11Y-52.88
X155.11Y-68.12
X157.65Y-52.88
X157.65Y-68.12
X160.19Y-52.88
X160.19Y-68.12
X162.73Y-52.88
X162.73Y-68.12
X165.27Y-52.88
X165.27Y-68.12
X167.81Y-52.88
X167.81Y-68.12
X170.35Y-52.88
X170.35Y-68.12
X172.89Y-52.88
X172.89Y-68.12
T4
X155.5Y-128.5
X158.0Y-128.5
T5
X155.0Y-79.46
X155.0Y-82.0
X155.0Y-84.54
X155.0Y-87.08
X169.401Y-79.46
X169.401Y-82.0
X169.401Y-84.54
X169.401Y-87.08
T6
X166.4Y-128.5
X174.4Y-128.5
M30
