%TF.GenerationSoftware,KiCad,Pcbnew,10.0.5*%
%TF.CreationDate,2026-09-17T20:02:06+02:00*%
%TF.ProjectId,Fan Controller,46616e20-436f-46e7-9472-6f6c6c65722e,rev?*%
%TF.SameCoordinates,Original*%
%TF.FileFunction,Legend,Top*%
%TF.FilePolarity,Positive*%
%FSLAX46Y46*%
G04 Gerber Fmt 4.6, Leading zero omitted, Abs format (unit mm)*
G04 Created by KiCad (PCBNEW 10.0.5) date 2026-09-17 20:02:06*
%MOMM*%
%LPD*%
G01*
G04 APERTURE LIST*
G04 Aperture macros list*
%AMRoundRect*
0 Rectangle with rounded corners*
0 $1 Rounding radius*
0 $2 $3 $4 $5 $6 $7 $8 $9 X,Y pos of 4 corners*
0 Add a 4 corners polygon primitive as box body*
4,1,4,$2,$3,$4,$5,$6,$7,$8,$9,$2,$3,0*
0 Add four circle primitives for the rounded corners*
1,1,$1+$1,$2,$3*
1,1,$1+$1,$4,$5*
1,1,$1+$1,$6,$7*
1,1,$1+$1,$8,$9*
0 Add four rect primitives between the rounded corners*
20,1,$1+$1,$2,$3,$4,$5,0*
20,1,$1+$1,$4,$5,$6,$7,0*
20,1,$1+$1,$6,$7,$8,$9,0*
20,1,$1+$1,$8,$9,$2,$3,0*%
G04 Aperture macros list end*
%ADD10C,0.100000*%
%ADD11C,0.150000*%
%ADD12C,0.120000*%
%ADD13C,0.152400*%
%ADD14C,0.508000*%
%ADD15C,0.127000*%
%ADD16C,0.200000*%
%ADD17RoundRect,0.250000X0.450000X-0.262500X0.450000X0.262500X-0.450000X0.262500X-0.450000X-0.262500X0*%
%ADD18RoundRect,0.250000X-0.450000X0.262500X-0.450000X-0.262500X0.450000X-0.262500X0.450000X0.262500X0*%
%ADD19RoundRect,0.250000X0.350000X0.625000X-0.350000X0.625000X-0.350000X-0.625000X0.350000X-0.625000X0*%
%ADD20O,1.200000X1.750000*%
%ADD21RoundRect,0.250000X1.500000X0.550000X-1.500000X0.550000X-1.500000X-0.550000X1.500000X-0.550000X0*%
%ADD22RoundRect,0.250000X-0.550000X1.500000X-0.550000X-1.500000X0.550000X-1.500000X0.550000X1.500000X0*%
%ADD23C,2.200000*%
%ADD24C,1.295400*%
%ADD25C,1.778800*%
%ADD26RoundRect,0.250000X-0.250000X-0.475000X0.250000X-0.475000X0.250000X0.475000X-0.250000X0.475000X0*%
%ADD27RoundRect,0.250000X0.262500X0.450000X-0.262500X0.450000X-0.262500X-0.450000X0.262500X-0.450000X0*%
%ADD28RoundRect,0.102000X1.100000X-0.750000X1.100000X0.750000X-1.100000X0.750000X-1.100000X-0.750000X0*%
%ADD29RoundRect,0.250000X0.250000X0.475000X-0.250000X0.475000X-0.250000X-0.475000X0.250000X-0.475000X0*%
%ADD30C,2.700000*%
%ADD31RoundRect,0.102000X-1.162500X-1.162500X1.162500X-1.162500X1.162500X1.162500X-1.162500X1.162500X0*%
%ADD32C,2.529000*%
%ADD33RoundRect,0.250000X-0.350000X-0.625000X0.350000X-0.625000X0.350000X0.625000X-0.350000X0.625000X0*%
%ADD34RoundRect,0.250000X0.325000X0.650000X-0.325000X0.650000X-0.325000X-0.650000X0.325000X-0.650000X0*%
%ADD35RoundRect,0.225000X0.250000X-0.225000X0.250000X0.225000X-0.250000X0.225000X-0.250000X-0.225000X0*%
%ADD36RoundRect,0.250000X-0.475000X0.250000X-0.475000X-0.250000X0.475000X-0.250000X0.475000X0.250000X0*%
%ADD37RoundRect,0.170750X-0.551250X-0.206250X0.551250X-0.206250X0.551250X0.206250X-0.551250X0.206250X0*%
%ADD38RoundRect,0.250000X0.475000X-0.250000X0.475000X0.250000X-0.475000X0.250000X-0.475000X-0.250000X0*%
%ADD39RoundRect,0.250000X0.325000X1.100000X-0.325000X1.100000X-0.325000X-1.100000X0.325000X-1.100000X0*%
%ADD40C,1.140000*%
%ADD41R,0.939800X2.489200*%
%ADD42R,5.511800X4.800600*%
%ADD43RoundRect,0.250000X-0.650000X0.325000X-0.650000X-0.325000X0.650000X-0.325000X0.650000X0.325000X0*%
%ADD44RoundRect,0.225000X-0.225000X-0.375000X0.225000X-0.375000X0.225000X0.375000X-0.225000X0.375000X0*%
%ADD45RoundRect,0.250000X-1.000000X-0.650000X1.000000X-0.650000X1.000000X0.650000X-1.000000X0.650000X0*%
%ADD46RoundRect,0.250000X-0.600000X-0.750000X0.600000X-0.750000X0.600000X0.750000X-0.600000X0.750000X0*%
%ADD47O,1.700000X2.000000*%
%ADD48RoundRect,0.250000X-0.262500X-0.450000X0.262500X-0.450000X0.262500X0.450000X-0.262500X0.450000X0*%
%ADD49RoundRect,0.250000X1.100000X-0.325000X1.100000X0.325000X-1.100000X0.325000X-1.100000X-0.325000X0*%
%ADD50RoundRect,0.102000X-0.925000X-1.700000X0.925000X-1.700000X0.925000X1.700000X-0.925000X1.700000X0*%
%ADD51RoundRect,0.374500X1.287500X-0.817500X1.287500X0.817500X-1.287500X0.817500X-1.287500X-0.817500X0*%
%ADD52RoundRect,0.150000X-0.150000X0.512500X-0.150000X-0.512500X0.150000X-0.512500X0.150000X0.512500X0*%
%ADD53RoundRect,0.250000X-0.325000X-1.100000X0.325000X-1.100000X0.325000X1.100000X-0.325000X1.100000X0*%
G04 APERTURE END LIST*
D10*
X164366667Y-75364895D02*
X164100000Y-74983942D01*
X163909524Y-75364895D02*
X163909524Y-74564895D01*
X163909524Y-74564895D02*
X164214286Y-74564895D01*
X164214286Y-74564895D02*
X164290476Y-74602990D01*
X164290476Y-74602990D02*
X164328571Y-74641085D01*
X164328571Y-74641085D02*
X164366667Y-74717276D01*
X164366667Y-74717276D02*
X164366667Y-74831561D01*
X164366667Y-74831561D02*
X164328571Y-74907752D01*
X164328571Y-74907752D02*
X164290476Y-74945847D01*
X164290476Y-74945847D02*
X164214286Y-74983942D01*
X164214286Y-74983942D02*
X163909524Y-74983942D01*
X165090476Y-74564895D02*
X164709524Y-74564895D01*
X164709524Y-74564895D02*
X164671428Y-74945847D01*
X164671428Y-74945847D02*
X164709524Y-74907752D01*
X164709524Y-74907752D02*
X164785714Y-74869657D01*
X164785714Y-74869657D02*
X164976190Y-74869657D01*
X164976190Y-74869657D02*
X165052381Y-74907752D01*
X165052381Y-74907752D02*
X165090476Y-74945847D01*
X165090476Y-74945847D02*
X165128571Y-75022038D01*
X165128571Y-75022038D02*
X165128571Y-75212514D01*
X165128571Y-75212514D02*
X165090476Y-75288704D01*
X165090476Y-75288704D02*
X165052381Y-75326800D01*
X165052381Y-75326800D02*
X164976190Y-75364895D01*
X164976190Y-75364895D02*
X164785714Y-75364895D01*
X164785714Y-75364895D02*
X164709524Y-75326800D01*
X164709524Y-75326800D02*
X164671428Y-75288704D01*
X169866667Y-48364895D02*
X169600000Y-47983942D01*
X169409524Y-48364895D02*
X169409524Y-47564895D01*
X169409524Y-47564895D02*
X169714286Y-47564895D01*
X169714286Y-47564895D02*
X169790476Y-47602990D01*
X169790476Y-47602990D02*
X169828571Y-47641085D01*
X169828571Y-47641085D02*
X169866667Y-47717276D01*
X169866667Y-47717276D02*
X169866667Y-47831561D01*
X169866667Y-47831561D02*
X169828571Y-47907752D01*
X169828571Y-47907752D02*
X169790476Y-47945847D01*
X169790476Y-47945847D02*
X169714286Y-47983942D01*
X169714286Y-47983942D02*
X169409524Y-47983942D01*
X170247619Y-48364895D02*
X170400000Y-48364895D01*
X170400000Y-48364895D02*
X170476190Y-48326800D01*
X170476190Y-48326800D02*
X170514286Y-48288704D01*
X170514286Y-48288704D02*
X170590476Y-48174419D01*
X170590476Y-48174419D02*
X170628571Y-48022038D01*
X170628571Y-48022038D02*
X170628571Y-47717276D01*
X170628571Y-47717276D02*
X170590476Y-47641085D01*
X170590476Y-47641085D02*
X170552381Y-47602990D01*
X170552381Y-47602990D02*
X170476190Y-47564895D01*
X170476190Y-47564895D02*
X170323809Y-47564895D01*
X170323809Y-47564895D02*
X170247619Y-47602990D01*
X170247619Y-47602990D02*
X170209524Y-47641085D01*
X170209524Y-47641085D02*
X170171428Y-47717276D01*
X170171428Y-47717276D02*
X170171428Y-47907752D01*
X170171428Y-47907752D02*
X170209524Y-47983942D01*
X170209524Y-47983942D02*
X170247619Y-48022038D01*
X170247619Y-48022038D02*
X170323809Y-48060133D01*
X170323809Y-48060133D02*
X170476190Y-48060133D01*
X170476190Y-48060133D02*
X170552381Y-48022038D01*
X170552381Y-48022038D02*
X170590476Y-47983942D01*
X170590476Y-47983942D02*
X170628571Y-47907752D01*
D11*
X153166666Y-43454819D02*
X153166666Y-44169104D01*
X153166666Y-44169104D02*
X153119047Y-44311961D01*
X153119047Y-44311961D02*
X153023809Y-44407200D01*
X153023809Y-44407200D02*
X152880952Y-44454819D01*
X152880952Y-44454819D02*
X152785714Y-44454819D01*
X154071428Y-43454819D02*
X153880952Y-43454819D01*
X153880952Y-43454819D02*
X153785714Y-43502438D01*
X153785714Y-43502438D02*
X153738095Y-43550057D01*
X153738095Y-43550057D02*
X153642857Y-43692914D01*
X153642857Y-43692914D02*
X153595238Y-43883390D01*
X153595238Y-43883390D02*
X153595238Y-44264342D01*
X153595238Y-44264342D02*
X153642857Y-44359580D01*
X153642857Y-44359580D02*
X153690476Y-44407200D01*
X153690476Y-44407200D02*
X153785714Y-44454819D01*
X153785714Y-44454819D02*
X153976190Y-44454819D01*
X153976190Y-44454819D02*
X154071428Y-44407200D01*
X154071428Y-44407200D02*
X154119047Y-44359580D01*
X154119047Y-44359580D02*
X154166666Y-44264342D01*
X154166666Y-44264342D02*
X154166666Y-44026247D01*
X154166666Y-44026247D02*
X154119047Y-43931009D01*
X154119047Y-43931009D02*
X154071428Y-43883390D01*
X154071428Y-43883390D02*
X153976190Y-43835771D01*
X153976190Y-43835771D02*
X153785714Y-43835771D01*
X153785714Y-43835771D02*
X153690476Y-43883390D01*
X153690476Y-43883390D02*
X153642857Y-43931009D01*
X153642857Y-43931009D02*
X153595238Y-44026247D01*
X175107142Y-102109580D02*
X175059523Y-102157200D01*
X175059523Y-102157200D02*
X174916666Y-102204819D01*
X174916666Y-102204819D02*
X174821428Y-102204819D01*
X174821428Y-102204819D02*
X174678571Y-102157200D01*
X174678571Y-102157200D02*
X174583333Y-102061961D01*
X174583333Y-102061961D02*
X174535714Y-101966723D01*
X174535714Y-101966723D02*
X174488095Y-101776247D01*
X174488095Y-101776247D02*
X174488095Y-101633390D01*
X174488095Y-101633390D02*
X174535714Y-101442914D01*
X174535714Y-101442914D02*
X174583333Y-101347676D01*
X174583333Y-101347676D02*
X174678571Y-101252438D01*
X174678571Y-101252438D02*
X174821428Y-101204819D01*
X174821428Y-101204819D02*
X174916666Y-101204819D01*
X174916666Y-101204819D02*
X175059523Y-101252438D01*
X175059523Y-101252438D02*
X175107142Y-101300057D01*
X176059523Y-102204819D02*
X175488095Y-102204819D01*
X175773809Y-102204819D02*
X175773809Y-101204819D01*
X175773809Y-101204819D02*
X175678571Y-101347676D01*
X175678571Y-101347676D02*
X175583333Y-101442914D01*
X175583333Y-101442914D02*
X175488095Y-101490533D01*
X176535714Y-102204819D02*
X176726190Y-102204819D01*
X176726190Y-102204819D02*
X176821428Y-102157200D01*
X176821428Y-102157200D02*
X176869047Y-102109580D01*
X176869047Y-102109580D02*
X176964285Y-101966723D01*
X176964285Y-101966723D02*
X177011904Y-101776247D01*
X177011904Y-101776247D02*
X177011904Y-101395295D01*
X177011904Y-101395295D02*
X176964285Y-101300057D01*
X176964285Y-101300057D02*
X176916666Y-101252438D01*
X176916666Y-101252438D02*
X176821428Y-101204819D01*
X176821428Y-101204819D02*
X176630952Y-101204819D01*
X176630952Y-101204819D02*
X176535714Y-101252438D01*
X176535714Y-101252438D02*
X176488095Y-101300057D01*
X176488095Y-101300057D02*
X176440476Y-101395295D01*
X176440476Y-101395295D02*
X176440476Y-101633390D01*
X176440476Y-101633390D02*
X176488095Y-101728628D01*
X176488095Y-101728628D02*
X176535714Y-101776247D01*
X176535714Y-101776247D02*
X176630952Y-101823866D01*
X176630952Y-101823866D02*
X176821428Y-101823866D01*
X176821428Y-101823866D02*
X176916666Y-101776247D01*
X176916666Y-101776247D02*
X176964285Y-101728628D01*
X176964285Y-101728628D02*
X177011904Y-101633390D01*
X155236104Y-94383332D02*
X155274200Y-94421428D01*
X155274200Y-94421428D02*
X155312295Y-94535713D01*
X155312295Y-94535713D02*
X155312295Y-94611904D01*
X155312295Y-94611904D02*
X155274200Y-94726190D01*
X155274200Y-94726190D02*
X155198009Y-94802380D01*
X155198009Y-94802380D02*
X155121819Y-94840475D01*
X155121819Y-94840475D02*
X154969438Y-94878571D01*
X154969438Y-94878571D02*
X154855152Y-94878571D01*
X154855152Y-94878571D02*
X154702771Y-94840475D01*
X154702771Y-94840475D02*
X154626580Y-94802380D01*
X154626580Y-94802380D02*
X154550390Y-94726190D01*
X154550390Y-94726190D02*
X154512295Y-94611904D01*
X154512295Y-94611904D02*
X154512295Y-94535713D01*
X154512295Y-94535713D02*
X154550390Y-94421428D01*
X154550390Y-94421428D02*
X154588485Y-94383332D01*
X154512295Y-94116666D02*
X154512295Y-93621428D01*
X154512295Y-93621428D02*
X154817057Y-93888094D01*
X154817057Y-93888094D02*
X154817057Y-93773809D01*
X154817057Y-93773809D02*
X154855152Y-93697618D01*
X154855152Y-93697618D02*
X154893247Y-93659523D01*
X154893247Y-93659523D02*
X154969438Y-93621428D01*
X154969438Y-93621428D02*
X155159914Y-93621428D01*
X155159914Y-93621428D02*
X155236104Y-93659523D01*
X155236104Y-93659523D02*
X155274200Y-93697618D01*
X155274200Y-93697618D02*
X155312295Y-93773809D01*
X155312295Y-93773809D02*
X155312295Y-94002380D01*
X155312295Y-94002380D02*
X155274200Y-94078571D01*
X155274200Y-94078571D02*
X155236104Y-94116666D01*
D10*
X162366667Y-75364895D02*
X162100000Y-74983942D01*
X161909524Y-75364895D02*
X161909524Y-74564895D01*
X161909524Y-74564895D02*
X162214286Y-74564895D01*
X162214286Y-74564895D02*
X162290476Y-74602990D01*
X162290476Y-74602990D02*
X162328571Y-74641085D01*
X162328571Y-74641085D02*
X162366667Y-74717276D01*
X162366667Y-74717276D02*
X162366667Y-74831561D01*
X162366667Y-74831561D02*
X162328571Y-74907752D01*
X162328571Y-74907752D02*
X162290476Y-74945847D01*
X162290476Y-74945847D02*
X162214286Y-74983942D01*
X162214286Y-74983942D02*
X161909524Y-74983942D01*
X162633333Y-74564895D02*
X163166667Y-74564895D01*
X163166667Y-74564895D02*
X162823809Y-75364895D01*
D11*
X173454819Y-87583333D02*
X174169104Y-87583333D01*
X174169104Y-87583333D02*
X174311961Y-87630952D01*
X174311961Y-87630952D02*
X174407200Y-87726190D01*
X174407200Y-87726190D02*
X174454819Y-87869047D01*
X174454819Y-87869047D02*
X174454819Y-87964285D01*
X173454819Y-87202380D02*
X173454819Y-86583333D01*
X173454819Y-86583333D02*
X173835771Y-86916666D01*
X173835771Y-86916666D02*
X173835771Y-86773809D01*
X173835771Y-86773809D02*
X173883390Y-86678571D01*
X173883390Y-86678571D02*
X173931009Y-86630952D01*
X173931009Y-86630952D02*
X174026247Y-86583333D01*
X174026247Y-86583333D02*
X174264342Y-86583333D01*
X174264342Y-86583333D02*
X174359580Y-86630952D01*
X174359580Y-86630952D02*
X174407200Y-86678571D01*
X174407200Y-86678571D02*
X174454819Y-86773809D01*
X174454819Y-86773809D02*
X174454819Y-87059523D01*
X174454819Y-87059523D02*
X174407200Y-87154761D01*
X174407200Y-87154761D02*
X174359580Y-87202380D01*
D10*
X174166667Y-76064895D02*
X173900000Y-75683942D01*
X173709524Y-76064895D02*
X173709524Y-75264895D01*
X173709524Y-75264895D02*
X174014286Y-75264895D01*
X174014286Y-75264895D02*
X174090476Y-75302990D01*
X174090476Y-75302990D02*
X174128571Y-75341085D01*
X174128571Y-75341085D02*
X174166667Y-75417276D01*
X174166667Y-75417276D02*
X174166667Y-75531561D01*
X174166667Y-75531561D02*
X174128571Y-75607752D01*
X174128571Y-75607752D02*
X174090476Y-75645847D01*
X174090476Y-75645847D02*
X174014286Y-75683942D01*
X174014286Y-75683942D02*
X173709524Y-75683942D01*
X174623809Y-75607752D02*
X174547619Y-75569657D01*
X174547619Y-75569657D02*
X174509524Y-75531561D01*
X174509524Y-75531561D02*
X174471428Y-75455371D01*
X174471428Y-75455371D02*
X174471428Y-75417276D01*
X174471428Y-75417276D02*
X174509524Y-75341085D01*
X174509524Y-75341085D02*
X174547619Y-75302990D01*
X174547619Y-75302990D02*
X174623809Y-75264895D01*
X174623809Y-75264895D02*
X174776190Y-75264895D01*
X174776190Y-75264895D02*
X174852381Y-75302990D01*
X174852381Y-75302990D02*
X174890476Y-75341085D01*
X174890476Y-75341085D02*
X174928571Y-75417276D01*
X174928571Y-75417276D02*
X174928571Y-75455371D01*
X174928571Y-75455371D02*
X174890476Y-75531561D01*
X174890476Y-75531561D02*
X174852381Y-75569657D01*
X174852381Y-75569657D02*
X174776190Y-75607752D01*
X174776190Y-75607752D02*
X174623809Y-75607752D01*
X174623809Y-75607752D02*
X174547619Y-75645847D01*
X174547619Y-75645847D02*
X174509524Y-75683942D01*
X174509524Y-75683942D02*
X174471428Y-75760133D01*
X174471428Y-75760133D02*
X174471428Y-75912514D01*
X174471428Y-75912514D02*
X174509524Y-75988704D01*
X174509524Y-75988704D02*
X174547619Y-76026800D01*
X174547619Y-76026800D02*
X174623809Y-76064895D01*
X174623809Y-76064895D02*
X174776190Y-76064895D01*
X174776190Y-76064895D02*
X174852381Y-76026800D01*
X174852381Y-76026800D02*
X174890476Y-75988704D01*
X174890476Y-75988704D02*
X174928571Y-75912514D01*
X174928571Y-75912514D02*
X174928571Y-75760133D01*
X174928571Y-75760133D02*
X174890476Y-75683942D01*
X174890476Y-75683942D02*
X174852381Y-75645847D01*
X174852381Y-75645847D02*
X174776190Y-75607752D01*
X163038704Y-78383332D02*
X163076800Y-78421428D01*
X163076800Y-78421428D02*
X163114895Y-78535713D01*
X163114895Y-78535713D02*
X163114895Y-78611904D01*
X163114895Y-78611904D02*
X163076800Y-78726190D01*
X163076800Y-78726190D02*
X163000609Y-78802380D01*
X163000609Y-78802380D02*
X162924419Y-78840475D01*
X162924419Y-78840475D02*
X162772038Y-78878571D01*
X162772038Y-78878571D02*
X162657752Y-78878571D01*
X162657752Y-78878571D02*
X162505371Y-78840475D01*
X162505371Y-78840475D02*
X162429180Y-78802380D01*
X162429180Y-78802380D02*
X162352990Y-78726190D01*
X162352990Y-78726190D02*
X162314895Y-78611904D01*
X162314895Y-78611904D02*
X162314895Y-78535713D01*
X162314895Y-78535713D02*
X162352990Y-78421428D01*
X162352990Y-78421428D02*
X162391085Y-78383332D01*
X162314895Y-77659523D02*
X162314895Y-78040475D01*
X162314895Y-78040475D02*
X162695847Y-78078571D01*
X162695847Y-78078571D02*
X162657752Y-78040475D01*
X162657752Y-78040475D02*
X162619657Y-77964285D01*
X162619657Y-77964285D02*
X162619657Y-77773809D01*
X162619657Y-77773809D02*
X162657752Y-77697618D01*
X162657752Y-77697618D02*
X162695847Y-77659523D01*
X162695847Y-77659523D02*
X162772038Y-77621428D01*
X162772038Y-77621428D02*
X162962514Y-77621428D01*
X162962514Y-77621428D02*
X163038704Y-77659523D01*
X163038704Y-77659523D02*
X163076800Y-77697618D01*
X163076800Y-77697618D02*
X163114895Y-77773809D01*
X163114895Y-77773809D02*
X163114895Y-77964285D01*
X163114895Y-77964285D02*
X163076800Y-78040475D01*
X163076800Y-78040475D02*
X163038704Y-78078571D01*
D11*
X164583333Y-78704819D02*
X164250000Y-78228628D01*
X164011905Y-78704819D02*
X164011905Y-77704819D01*
X164011905Y-77704819D02*
X164392857Y-77704819D01*
X164392857Y-77704819D02*
X164488095Y-77752438D01*
X164488095Y-77752438D02*
X164535714Y-77800057D01*
X164535714Y-77800057D02*
X164583333Y-77895295D01*
X164583333Y-77895295D02*
X164583333Y-78038152D01*
X164583333Y-78038152D02*
X164535714Y-78133390D01*
X164535714Y-78133390D02*
X164488095Y-78181009D01*
X164488095Y-78181009D02*
X164392857Y-78228628D01*
X164392857Y-78228628D02*
X164011905Y-78228628D01*
X164964286Y-77800057D02*
X165011905Y-77752438D01*
X165011905Y-77752438D02*
X165107143Y-77704819D01*
X165107143Y-77704819D02*
X165345238Y-77704819D01*
X165345238Y-77704819D02*
X165440476Y-77752438D01*
X165440476Y-77752438D02*
X165488095Y-77800057D01*
X165488095Y-77800057D02*
X165535714Y-77895295D01*
X165535714Y-77895295D02*
X165535714Y-77990533D01*
X165535714Y-77990533D02*
X165488095Y-78133390D01*
X165488095Y-78133390D02*
X164916667Y-78704819D01*
X164916667Y-78704819D02*
X165535714Y-78704819D01*
X173067319Y-97266666D02*
X173067319Y-97742856D01*
X173067319Y-97742856D02*
X172067319Y-97742856D01*
X173067319Y-96409523D02*
X173067319Y-96980951D01*
X173067319Y-96695237D02*
X172067319Y-96695237D01*
X172067319Y-96695237D02*
X172210176Y-96790475D01*
X172210176Y-96790475D02*
X172305414Y-96885713D01*
X172305414Y-96885713D02*
X172353033Y-96980951D01*
D10*
X171788704Y-72014285D02*
X171826800Y-72052381D01*
X171826800Y-72052381D02*
X171864895Y-72166666D01*
X171864895Y-72166666D02*
X171864895Y-72242857D01*
X171864895Y-72242857D02*
X171826800Y-72357143D01*
X171826800Y-72357143D02*
X171750609Y-72433333D01*
X171750609Y-72433333D02*
X171674419Y-72471428D01*
X171674419Y-72471428D02*
X171522038Y-72509524D01*
X171522038Y-72509524D02*
X171407752Y-72509524D01*
X171407752Y-72509524D02*
X171255371Y-72471428D01*
X171255371Y-72471428D02*
X171179180Y-72433333D01*
X171179180Y-72433333D02*
X171102990Y-72357143D01*
X171102990Y-72357143D02*
X171064895Y-72242857D01*
X171064895Y-72242857D02*
X171064895Y-72166666D01*
X171064895Y-72166666D02*
X171102990Y-72052381D01*
X171102990Y-72052381D02*
X171141085Y-72014285D01*
X171864895Y-71252381D02*
X171864895Y-71709524D01*
X171864895Y-71480952D02*
X171064895Y-71480952D01*
X171064895Y-71480952D02*
X171179180Y-71557143D01*
X171179180Y-71557143D02*
X171255371Y-71633333D01*
X171255371Y-71633333D02*
X171293466Y-71709524D01*
X171064895Y-70757142D02*
X171064895Y-70680952D01*
X171064895Y-70680952D02*
X171102990Y-70604761D01*
X171102990Y-70604761D02*
X171141085Y-70566666D01*
X171141085Y-70566666D02*
X171217276Y-70528571D01*
X171217276Y-70528571D02*
X171369657Y-70490476D01*
X171369657Y-70490476D02*
X171560133Y-70490476D01*
X171560133Y-70490476D02*
X171712514Y-70528571D01*
X171712514Y-70528571D02*
X171788704Y-70566666D01*
X171788704Y-70566666D02*
X171826800Y-70604761D01*
X171826800Y-70604761D02*
X171864895Y-70680952D01*
X171864895Y-70680952D02*
X171864895Y-70757142D01*
X171864895Y-70757142D02*
X171826800Y-70833333D01*
X171826800Y-70833333D02*
X171788704Y-70871428D01*
X171788704Y-70871428D02*
X171712514Y-70909523D01*
X171712514Y-70909523D02*
X171560133Y-70947619D01*
X171560133Y-70947619D02*
X171369657Y-70947619D01*
X171369657Y-70947619D02*
X171217276Y-70909523D01*
X171217276Y-70909523D02*
X171141085Y-70871428D01*
X171141085Y-70871428D02*
X171102990Y-70833333D01*
X171102990Y-70833333D02*
X171064895Y-70757142D01*
D11*
X175666666Y-130431009D02*
X175333333Y-130431009D01*
X175333333Y-130954819D02*
X175333333Y-129954819D01*
X175333333Y-129954819D02*
X175809523Y-129954819D01*
X176714285Y-130954819D02*
X176142857Y-130954819D01*
X176428571Y-130954819D02*
X176428571Y-129954819D01*
X176428571Y-129954819D02*
X176333333Y-130097676D01*
X176333333Y-130097676D02*
X176238095Y-130192914D01*
X176238095Y-130192914D02*
X176142857Y-130240533D01*
X179416666Y-42954819D02*
X179416666Y-43669104D01*
X179416666Y-43669104D02*
X179369047Y-43811961D01*
X179369047Y-43811961D02*
X179273809Y-43907200D01*
X179273809Y-43907200D02*
X179130952Y-43954819D01*
X179130952Y-43954819D02*
X179035714Y-43954819D01*
X180369047Y-42954819D02*
X179892857Y-42954819D01*
X179892857Y-42954819D02*
X179845238Y-43431009D01*
X179845238Y-43431009D02*
X179892857Y-43383390D01*
X179892857Y-43383390D02*
X179988095Y-43335771D01*
X179988095Y-43335771D02*
X180226190Y-43335771D01*
X180226190Y-43335771D02*
X180321428Y-43383390D01*
X180321428Y-43383390D02*
X180369047Y-43431009D01*
X180369047Y-43431009D02*
X180416666Y-43526247D01*
X180416666Y-43526247D02*
X180416666Y-43764342D01*
X180416666Y-43764342D02*
X180369047Y-43859580D01*
X180369047Y-43859580D02*
X180321428Y-43907200D01*
X180321428Y-43907200D02*
X180226190Y-43954819D01*
X180226190Y-43954819D02*
X179988095Y-43954819D01*
X179988095Y-43954819D02*
X179892857Y-43907200D01*
X179892857Y-43907200D02*
X179845238Y-43859580D01*
D10*
X165098214Y-104388704D02*
X165060118Y-104426800D01*
X165060118Y-104426800D02*
X164945833Y-104464895D01*
X164945833Y-104464895D02*
X164869642Y-104464895D01*
X164869642Y-104464895D02*
X164755356Y-104426800D01*
X164755356Y-104426800D02*
X164679166Y-104350609D01*
X164679166Y-104350609D02*
X164641071Y-104274419D01*
X164641071Y-104274419D02*
X164602975Y-104122038D01*
X164602975Y-104122038D02*
X164602975Y-104007752D01*
X164602975Y-104007752D02*
X164641071Y-103855371D01*
X164641071Y-103855371D02*
X164679166Y-103779180D01*
X164679166Y-103779180D02*
X164755356Y-103702990D01*
X164755356Y-103702990D02*
X164869642Y-103664895D01*
X164869642Y-103664895D02*
X164945833Y-103664895D01*
X164945833Y-103664895D02*
X165060118Y-103702990D01*
X165060118Y-103702990D02*
X165098214Y-103741085D01*
X165860118Y-104464895D02*
X165402975Y-104464895D01*
X165631547Y-104464895D02*
X165631547Y-103664895D01*
X165631547Y-103664895D02*
X165555356Y-103779180D01*
X165555356Y-103779180D02*
X165479166Y-103855371D01*
X165479166Y-103855371D02*
X165402975Y-103893466D01*
X166622023Y-104464895D02*
X166164880Y-104464895D01*
X166393452Y-104464895D02*
X166393452Y-103664895D01*
X166393452Y-103664895D02*
X166317261Y-103779180D01*
X166317261Y-103779180D02*
X166241071Y-103855371D01*
X166241071Y-103855371D02*
X166164880Y-103893466D01*
D11*
X158954819Y-87583333D02*
X159669104Y-87583333D01*
X159669104Y-87583333D02*
X159811961Y-87630952D01*
X159811961Y-87630952D02*
X159907200Y-87726190D01*
X159907200Y-87726190D02*
X159954819Y-87869047D01*
X159954819Y-87869047D02*
X159954819Y-87964285D01*
X159050057Y-87154761D02*
X159002438Y-87107142D01*
X159002438Y-87107142D02*
X158954819Y-87011904D01*
X158954819Y-87011904D02*
X158954819Y-86773809D01*
X158954819Y-86773809D02*
X159002438Y-86678571D01*
X159002438Y-86678571D02*
X159050057Y-86630952D01*
X159050057Y-86630952D02*
X159145295Y-86583333D01*
X159145295Y-86583333D02*
X159240533Y-86583333D01*
X159240533Y-86583333D02*
X159383390Y-86630952D01*
X159383390Y-86630952D02*
X159954819Y-87202380D01*
X159954819Y-87202380D02*
X159954819Y-86583333D01*
X163454819Y-81166666D02*
X162978628Y-81499999D01*
X163454819Y-81738094D02*
X162454819Y-81738094D01*
X162454819Y-81738094D02*
X162454819Y-81357142D01*
X162454819Y-81357142D02*
X162502438Y-81261904D01*
X162502438Y-81261904D02*
X162550057Y-81214285D01*
X162550057Y-81214285D02*
X162645295Y-81166666D01*
X162645295Y-81166666D02*
X162788152Y-81166666D01*
X162788152Y-81166666D02*
X162883390Y-81214285D01*
X162883390Y-81214285D02*
X162931009Y-81261904D01*
X162931009Y-81261904D02*
X162978628Y-81357142D01*
X162978628Y-81357142D02*
X162978628Y-81738094D01*
X163454819Y-80214285D02*
X163454819Y-80785713D01*
X163454819Y-80499999D02*
X162454819Y-80499999D01*
X162454819Y-80499999D02*
X162597676Y-80595237D01*
X162597676Y-80595237D02*
X162692914Y-80690475D01*
X162692914Y-80690475D02*
X162740533Y-80785713D01*
D10*
X173685714Y-118688704D02*
X173647618Y-118726800D01*
X173647618Y-118726800D02*
X173533333Y-118764895D01*
X173533333Y-118764895D02*
X173457142Y-118764895D01*
X173457142Y-118764895D02*
X173342856Y-118726800D01*
X173342856Y-118726800D02*
X173266666Y-118650609D01*
X173266666Y-118650609D02*
X173228571Y-118574419D01*
X173228571Y-118574419D02*
X173190475Y-118422038D01*
X173190475Y-118422038D02*
X173190475Y-118307752D01*
X173190475Y-118307752D02*
X173228571Y-118155371D01*
X173228571Y-118155371D02*
X173266666Y-118079180D01*
X173266666Y-118079180D02*
X173342856Y-118002990D01*
X173342856Y-118002990D02*
X173457142Y-117964895D01*
X173457142Y-117964895D02*
X173533333Y-117964895D01*
X173533333Y-117964895D02*
X173647618Y-118002990D01*
X173647618Y-118002990D02*
X173685714Y-118041085D01*
X174447618Y-118764895D02*
X173990475Y-118764895D01*
X174219047Y-118764895D02*
X174219047Y-117964895D01*
X174219047Y-117964895D02*
X174142856Y-118079180D01*
X174142856Y-118079180D02*
X174066666Y-118155371D01*
X174066666Y-118155371D02*
X173990475Y-118193466D01*
X175133333Y-118231561D02*
X175133333Y-118764895D01*
X174942857Y-117926800D02*
X174752380Y-118498228D01*
X174752380Y-118498228D02*
X175247619Y-118498228D01*
X160701204Y-101664285D02*
X160739300Y-101702381D01*
X160739300Y-101702381D02*
X160777395Y-101816666D01*
X160777395Y-101816666D02*
X160777395Y-101892857D01*
X160777395Y-101892857D02*
X160739300Y-102007143D01*
X160739300Y-102007143D02*
X160663109Y-102083333D01*
X160663109Y-102083333D02*
X160586919Y-102121428D01*
X160586919Y-102121428D02*
X160434538Y-102159524D01*
X160434538Y-102159524D02*
X160320252Y-102159524D01*
X160320252Y-102159524D02*
X160167871Y-102121428D01*
X160167871Y-102121428D02*
X160091680Y-102083333D01*
X160091680Y-102083333D02*
X160015490Y-102007143D01*
X160015490Y-102007143D02*
X159977395Y-101892857D01*
X159977395Y-101892857D02*
X159977395Y-101816666D01*
X159977395Y-101816666D02*
X160015490Y-101702381D01*
X160015490Y-101702381D02*
X160053585Y-101664285D01*
X160777395Y-100902381D02*
X160777395Y-101359524D01*
X160777395Y-101130952D02*
X159977395Y-101130952D01*
X159977395Y-101130952D02*
X160091680Y-101207143D01*
X160091680Y-101207143D02*
X160167871Y-101283333D01*
X160167871Y-101283333D02*
X160205966Y-101359524D01*
X160320252Y-100445238D02*
X160282157Y-100521428D01*
X160282157Y-100521428D02*
X160244061Y-100559523D01*
X160244061Y-100559523D02*
X160167871Y-100597619D01*
X160167871Y-100597619D02*
X160129776Y-100597619D01*
X160129776Y-100597619D02*
X160053585Y-100559523D01*
X160053585Y-100559523D02*
X160015490Y-100521428D01*
X160015490Y-100521428D02*
X159977395Y-100445238D01*
X159977395Y-100445238D02*
X159977395Y-100292857D01*
X159977395Y-100292857D02*
X160015490Y-100216666D01*
X160015490Y-100216666D02*
X160053585Y-100178571D01*
X160053585Y-100178571D02*
X160129776Y-100140476D01*
X160129776Y-100140476D02*
X160167871Y-100140476D01*
X160167871Y-100140476D02*
X160244061Y-100178571D01*
X160244061Y-100178571D02*
X160282157Y-100216666D01*
X160282157Y-100216666D02*
X160320252Y-100292857D01*
X160320252Y-100292857D02*
X160320252Y-100445238D01*
X160320252Y-100445238D02*
X160358347Y-100521428D01*
X160358347Y-100521428D02*
X160396442Y-100559523D01*
X160396442Y-100559523D02*
X160472633Y-100597619D01*
X160472633Y-100597619D02*
X160625014Y-100597619D01*
X160625014Y-100597619D02*
X160701204Y-100559523D01*
X160701204Y-100559523D02*
X160739300Y-100521428D01*
X160739300Y-100521428D02*
X160777395Y-100445238D01*
X160777395Y-100445238D02*
X160777395Y-100292857D01*
X160777395Y-100292857D02*
X160739300Y-100216666D01*
X160739300Y-100216666D02*
X160701204Y-100178571D01*
X160701204Y-100178571D02*
X160625014Y-100140476D01*
X160625014Y-100140476D02*
X160472633Y-100140476D01*
X160472633Y-100140476D02*
X160396442Y-100178571D01*
X160396442Y-100178571D02*
X160358347Y-100216666D01*
X160358347Y-100216666D02*
X160320252Y-100292857D01*
D11*
X161350595Y-97754819D02*
X161350595Y-98564342D01*
X161350595Y-98564342D02*
X161398214Y-98659580D01*
X161398214Y-98659580D02*
X161445833Y-98707200D01*
X161445833Y-98707200D02*
X161541071Y-98754819D01*
X161541071Y-98754819D02*
X161731547Y-98754819D01*
X161731547Y-98754819D02*
X161826785Y-98707200D01*
X161826785Y-98707200D02*
X161874404Y-98659580D01*
X161874404Y-98659580D02*
X161922023Y-98564342D01*
X161922023Y-98564342D02*
X161922023Y-97754819D01*
X162350595Y-97850057D02*
X162398214Y-97802438D01*
X162398214Y-97802438D02*
X162493452Y-97754819D01*
X162493452Y-97754819D02*
X162731547Y-97754819D01*
X162731547Y-97754819D02*
X162826785Y-97802438D01*
X162826785Y-97802438D02*
X162874404Y-97850057D01*
X162874404Y-97850057D02*
X162922023Y-97945295D01*
X162922023Y-97945295D02*
X162922023Y-98040533D01*
X162922023Y-98040533D02*
X162874404Y-98183390D01*
X162874404Y-98183390D02*
X162302976Y-98754819D01*
X162302976Y-98754819D02*
X162922023Y-98754819D01*
X159866667Y-107086104D02*
X159828571Y-107124200D01*
X159828571Y-107124200D02*
X159714286Y-107162295D01*
X159714286Y-107162295D02*
X159638095Y-107162295D01*
X159638095Y-107162295D02*
X159523809Y-107124200D01*
X159523809Y-107124200D02*
X159447619Y-107048009D01*
X159447619Y-107048009D02*
X159409524Y-106971819D01*
X159409524Y-106971819D02*
X159371428Y-106819438D01*
X159371428Y-106819438D02*
X159371428Y-106705152D01*
X159371428Y-106705152D02*
X159409524Y-106552771D01*
X159409524Y-106552771D02*
X159447619Y-106476580D01*
X159447619Y-106476580D02*
X159523809Y-106400390D01*
X159523809Y-106400390D02*
X159638095Y-106362295D01*
X159638095Y-106362295D02*
X159714286Y-106362295D01*
X159714286Y-106362295D02*
X159828571Y-106400390D01*
X159828571Y-106400390D02*
X159866667Y-106438485D01*
X160552381Y-106628961D02*
X160552381Y-107162295D01*
X160361905Y-106324200D02*
X160171428Y-106895628D01*
X160171428Y-106895628D02*
X160666667Y-106895628D01*
X162972080Y-93966666D02*
X163019700Y-94014285D01*
X163019700Y-94014285D02*
X163067319Y-94157142D01*
X163067319Y-94157142D02*
X163067319Y-94252380D01*
X163067319Y-94252380D02*
X163019700Y-94395237D01*
X163019700Y-94395237D02*
X162924461Y-94490475D01*
X162924461Y-94490475D02*
X162829223Y-94538094D01*
X162829223Y-94538094D02*
X162638747Y-94585713D01*
X162638747Y-94585713D02*
X162495890Y-94585713D01*
X162495890Y-94585713D02*
X162305414Y-94538094D01*
X162305414Y-94538094D02*
X162210176Y-94490475D01*
X162210176Y-94490475D02*
X162114938Y-94395237D01*
X162114938Y-94395237D02*
X162067319Y-94252380D01*
X162067319Y-94252380D02*
X162067319Y-94157142D01*
X162067319Y-94157142D02*
X162114938Y-94014285D01*
X162114938Y-94014285D02*
X162162557Y-93966666D01*
X163067319Y-93490475D02*
X163067319Y-93299999D01*
X163067319Y-93299999D02*
X163019700Y-93204761D01*
X163019700Y-93204761D02*
X162972080Y-93157142D01*
X162972080Y-93157142D02*
X162829223Y-93061904D01*
X162829223Y-93061904D02*
X162638747Y-93014285D01*
X162638747Y-93014285D02*
X162257795Y-93014285D01*
X162257795Y-93014285D02*
X162162557Y-93061904D01*
X162162557Y-93061904D02*
X162114938Y-93109523D01*
X162114938Y-93109523D02*
X162067319Y-93204761D01*
X162067319Y-93204761D02*
X162067319Y-93395237D01*
X162067319Y-93395237D02*
X162114938Y-93490475D01*
X162114938Y-93490475D02*
X162162557Y-93538094D01*
X162162557Y-93538094D02*
X162257795Y-93585713D01*
X162257795Y-93585713D02*
X162495890Y-93585713D01*
X162495890Y-93585713D02*
X162591128Y-93538094D01*
X162591128Y-93538094D02*
X162638747Y-93490475D01*
X162638747Y-93490475D02*
X162686366Y-93395237D01*
X162686366Y-93395237D02*
X162686366Y-93204761D01*
X162686366Y-93204761D02*
X162638747Y-93109523D01*
X162638747Y-93109523D02*
X162591128Y-93061904D01*
X162591128Y-93061904D02*
X162495890Y-93014285D01*
D10*
X170485714Y-121288704D02*
X170447618Y-121326800D01*
X170447618Y-121326800D02*
X170333333Y-121364895D01*
X170333333Y-121364895D02*
X170257142Y-121364895D01*
X170257142Y-121364895D02*
X170142856Y-121326800D01*
X170142856Y-121326800D02*
X170066666Y-121250609D01*
X170066666Y-121250609D02*
X170028571Y-121174419D01*
X170028571Y-121174419D02*
X169990475Y-121022038D01*
X169990475Y-121022038D02*
X169990475Y-120907752D01*
X169990475Y-120907752D02*
X170028571Y-120755371D01*
X170028571Y-120755371D02*
X170066666Y-120679180D01*
X170066666Y-120679180D02*
X170142856Y-120602990D01*
X170142856Y-120602990D02*
X170257142Y-120564895D01*
X170257142Y-120564895D02*
X170333333Y-120564895D01*
X170333333Y-120564895D02*
X170447618Y-120602990D01*
X170447618Y-120602990D02*
X170485714Y-120641085D01*
X171247618Y-121364895D02*
X170790475Y-121364895D01*
X171019047Y-121364895D02*
X171019047Y-120564895D01*
X171019047Y-120564895D02*
X170942856Y-120679180D01*
X170942856Y-120679180D02*
X170866666Y-120755371D01*
X170866666Y-120755371D02*
X170790475Y-120793466D01*
X171514285Y-120564895D02*
X172009523Y-120564895D01*
X172009523Y-120564895D02*
X171742857Y-120869657D01*
X171742857Y-120869657D02*
X171857142Y-120869657D01*
X171857142Y-120869657D02*
X171933333Y-120907752D01*
X171933333Y-120907752D02*
X171971428Y-120945847D01*
X171971428Y-120945847D02*
X172009523Y-121022038D01*
X172009523Y-121022038D02*
X172009523Y-121212514D01*
X172009523Y-121212514D02*
X171971428Y-121288704D01*
X171971428Y-121288704D02*
X171933333Y-121326800D01*
X171933333Y-121326800D02*
X171857142Y-121364895D01*
X171857142Y-121364895D02*
X171628571Y-121364895D01*
X171628571Y-121364895D02*
X171552380Y-121326800D01*
X171552380Y-121326800D02*
X171514285Y-121288704D01*
X163457419Y-61261904D02*
X164266942Y-61261904D01*
X164266942Y-61261904D02*
X164362180Y-61214285D01*
X164362180Y-61214285D02*
X164409800Y-61166666D01*
X164409800Y-61166666D02*
X164457419Y-61071428D01*
X164457419Y-61071428D02*
X164457419Y-60880952D01*
X164457419Y-60880952D02*
X164409800Y-60785714D01*
X164409800Y-60785714D02*
X164362180Y-60738095D01*
X164362180Y-60738095D02*
X164266942Y-60690476D01*
X164266942Y-60690476D02*
X163457419Y-60690476D01*
X164457419Y-59690476D02*
X164457419Y-60261904D01*
X164457419Y-59976190D02*
X163457419Y-59976190D01*
X163457419Y-59976190D02*
X163600276Y-60071428D01*
X163600276Y-60071428D02*
X163695514Y-60166666D01*
X163695514Y-60166666D02*
X163743133Y-60261904D01*
D11*
X181359580Y-70666666D02*
X181407200Y-70714285D01*
X181407200Y-70714285D02*
X181454819Y-70857142D01*
X181454819Y-70857142D02*
X181454819Y-70952380D01*
X181454819Y-70952380D02*
X181407200Y-71095237D01*
X181407200Y-71095237D02*
X181311961Y-71190475D01*
X181311961Y-71190475D02*
X181216723Y-71238094D01*
X181216723Y-71238094D02*
X181026247Y-71285713D01*
X181026247Y-71285713D02*
X180883390Y-71285713D01*
X180883390Y-71285713D02*
X180692914Y-71238094D01*
X180692914Y-71238094D02*
X180597676Y-71190475D01*
X180597676Y-71190475D02*
X180502438Y-71095237D01*
X180502438Y-71095237D02*
X180454819Y-70952380D01*
X180454819Y-70952380D02*
X180454819Y-70857142D01*
X180454819Y-70857142D02*
X180502438Y-70714285D01*
X180502438Y-70714285D02*
X180550057Y-70666666D01*
X180550057Y-70285713D02*
X180502438Y-70238094D01*
X180502438Y-70238094D02*
X180454819Y-70142856D01*
X180454819Y-70142856D02*
X180454819Y-69904761D01*
X180454819Y-69904761D02*
X180502438Y-69809523D01*
X180502438Y-69809523D02*
X180550057Y-69761904D01*
X180550057Y-69761904D02*
X180645295Y-69714285D01*
X180645295Y-69714285D02*
X180740533Y-69714285D01*
X180740533Y-69714285D02*
X180883390Y-69761904D01*
X180883390Y-69761904D02*
X181454819Y-70333332D01*
X181454819Y-70333332D02*
X181454819Y-69714285D01*
X161154761Y-117050057D02*
X161059523Y-117002438D01*
X161059523Y-117002438D02*
X160964285Y-116907200D01*
X160964285Y-116907200D02*
X160821428Y-116764342D01*
X160821428Y-116764342D02*
X160726190Y-116716723D01*
X160726190Y-116716723D02*
X160630952Y-116716723D01*
X160678571Y-116954819D02*
X160583333Y-116907200D01*
X160583333Y-116907200D02*
X160488095Y-116811961D01*
X160488095Y-116811961D02*
X160440476Y-116621485D01*
X160440476Y-116621485D02*
X160440476Y-116288152D01*
X160440476Y-116288152D02*
X160488095Y-116097676D01*
X160488095Y-116097676D02*
X160583333Y-116002438D01*
X160583333Y-116002438D02*
X160678571Y-115954819D01*
X160678571Y-115954819D02*
X160869047Y-115954819D01*
X160869047Y-115954819D02*
X160964285Y-116002438D01*
X160964285Y-116002438D02*
X161059523Y-116097676D01*
X161059523Y-116097676D02*
X161107142Y-116288152D01*
X161107142Y-116288152D02*
X161107142Y-116621485D01*
X161107142Y-116621485D02*
X161059523Y-116811961D01*
X161059523Y-116811961D02*
X160964285Y-116907200D01*
X160964285Y-116907200D02*
X160869047Y-116954819D01*
X160869047Y-116954819D02*
X160678571Y-116954819D01*
X162059523Y-116954819D02*
X161488095Y-116954819D01*
X161773809Y-116954819D02*
X161773809Y-115954819D01*
X161773809Y-115954819D02*
X161678571Y-116097676D01*
X161678571Y-116097676D02*
X161583333Y-116192914D01*
X161583333Y-116192914D02*
X161488095Y-116240533D01*
X159780001Y-115454819D02*
X159780001Y-115692914D01*
X159541906Y-115597676D02*
X159780001Y-115692914D01*
X159780001Y-115692914D02*
X160018096Y-115597676D01*
X159637144Y-115883390D02*
X159780001Y-115692914D01*
X159780001Y-115692914D02*
X159922858Y-115883390D01*
X162530001Y-115454819D02*
X162530001Y-115692914D01*
X162291906Y-115597676D02*
X162530001Y-115692914D01*
X162530001Y-115692914D02*
X162768096Y-115597676D01*
X162387144Y-115883390D02*
X162530001Y-115692914D01*
X162530001Y-115692914D02*
X162672858Y-115883390D01*
D10*
X167485714Y-48364895D02*
X167219047Y-47983942D01*
X167028571Y-48364895D02*
X167028571Y-47564895D01*
X167028571Y-47564895D02*
X167333333Y-47564895D01*
X167333333Y-47564895D02*
X167409523Y-47602990D01*
X167409523Y-47602990D02*
X167447618Y-47641085D01*
X167447618Y-47641085D02*
X167485714Y-47717276D01*
X167485714Y-47717276D02*
X167485714Y-47831561D01*
X167485714Y-47831561D02*
X167447618Y-47907752D01*
X167447618Y-47907752D02*
X167409523Y-47945847D01*
X167409523Y-47945847D02*
X167333333Y-47983942D01*
X167333333Y-47983942D02*
X167028571Y-47983942D01*
X168247618Y-48364895D02*
X167790475Y-48364895D01*
X168019047Y-48364895D02*
X168019047Y-47564895D01*
X168019047Y-47564895D02*
X167942856Y-47679180D01*
X167942856Y-47679180D02*
X167866666Y-47755371D01*
X167866666Y-47755371D02*
X167790475Y-47793466D01*
X168742857Y-47564895D02*
X168819047Y-47564895D01*
X168819047Y-47564895D02*
X168895238Y-47602990D01*
X168895238Y-47602990D02*
X168933333Y-47641085D01*
X168933333Y-47641085D02*
X168971428Y-47717276D01*
X168971428Y-47717276D02*
X169009523Y-47869657D01*
X169009523Y-47869657D02*
X169009523Y-48060133D01*
X169009523Y-48060133D02*
X168971428Y-48212514D01*
X168971428Y-48212514D02*
X168933333Y-48288704D01*
X168933333Y-48288704D02*
X168895238Y-48326800D01*
X168895238Y-48326800D02*
X168819047Y-48364895D01*
X168819047Y-48364895D02*
X168742857Y-48364895D01*
X168742857Y-48364895D02*
X168666666Y-48326800D01*
X168666666Y-48326800D02*
X168628571Y-48288704D01*
X168628571Y-48288704D02*
X168590476Y-48212514D01*
X168590476Y-48212514D02*
X168552380Y-48060133D01*
X168552380Y-48060133D02*
X168552380Y-47869657D01*
X168552380Y-47869657D02*
X168590476Y-47717276D01*
X168590476Y-47717276D02*
X168628571Y-47641085D01*
X168628571Y-47641085D02*
X168666666Y-47602990D01*
X168666666Y-47602990D02*
X168742857Y-47564895D01*
X167285714Y-122376204D02*
X167247618Y-122414300D01*
X167247618Y-122414300D02*
X167133333Y-122452395D01*
X167133333Y-122452395D02*
X167057142Y-122452395D01*
X167057142Y-122452395D02*
X166942856Y-122414300D01*
X166942856Y-122414300D02*
X166866666Y-122338109D01*
X166866666Y-122338109D02*
X166828571Y-122261919D01*
X166828571Y-122261919D02*
X166790475Y-122109538D01*
X166790475Y-122109538D02*
X166790475Y-121995252D01*
X166790475Y-121995252D02*
X166828571Y-121842871D01*
X166828571Y-121842871D02*
X166866666Y-121766680D01*
X166866666Y-121766680D02*
X166942856Y-121690490D01*
X166942856Y-121690490D02*
X167057142Y-121652395D01*
X167057142Y-121652395D02*
X167133333Y-121652395D01*
X167133333Y-121652395D02*
X167247618Y-121690490D01*
X167247618Y-121690490D02*
X167285714Y-121728585D01*
X168047618Y-122452395D02*
X167590475Y-122452395D01*
X167819047Y-122452395D02*
X167819047Y-121652395D01*
X167819047Y-121652395D02*
X167742856Y-121766680D01*
X167742856Y-121766680D02*
X167666666Y-121842871D01*
X167666666Y-121842871D02*
X167590475Y-121880966D01*
X168352380Y-121728585D02*
X168390476Y-121690490D01*
X168390476Y-121690490D02*
X168466666Y-121652395D01*
X168466666Y-121652395D02*
X168657142Y-121652395D01*
X168657142Y-121652395D02*
X168733333Y-121690490D01*
X168733333Y-121690490D02*
X168771428Y-121728585D01*
X168771428Y-121728585D02*
X168809523Y-121804776D01*
X168809523Y-121804776D02*
X168809523Y-121880966D01*
X168809523Y-121880966D02*
X168771428Y-121995252D01*
X168771428Y-121995252D02*
X168314285Y-122452395D01*
X168314285Y-122452395D02*
X168809523Y-122452395D01*
D11*
X168095792Y-113201596D02*
X167619601Y-113534929D01*
X168095792Y-113773024D02*
X167095792Y-113773024D01*
X167095792Y-113773024D02*
X167095792Y-113392072D01*
X167095792Y-113392072D02*
X167143411Y-113296834D01*
X167143411Y-113296834D02*
X167191030Y-113249215D01*
X167191030Y-113249215D02*
X167286268Y-113201596D01*
X167286268Y-113201596D02*
X167429125Y-113201596D01*
X167429125Y-113201596D02*
X167524363Y-113249215D01*
X167524363Y-113249215D02*
X167571982Y-113296834D01*
X167571982Y-113296834D02*
X167619601Y-113392072D01*
X167619601Y-113392072D02*
X167619601Y-113773024D01*
X168095792Y-112249215D02*
X168095792Y-112820643D01*
X168095792Y-112534929D02*
X167095792Y-112534929D01*
X167095792Y-112534929D02*
X167238649Y-112630167D01*
X167238649Y-112630167D02*
X167333887Y-112725405D01*
X167333887Y-112725405D02*
X167381506Y-112820643D01*
X168095792Y-111296834D02*
X168095792Y-111868262D01*
X168095792Y-111582548D02*
X167095792Y-111582548D01*
X167095792Y-111582548D02*
X167238649Y-111677786D01*
X167238649Y-111677786D02*
X167333887Y-111773024D01*
X167333887Y-111773024D02*
X167381506Y-111868262D01*
X162761905Y-109954819D02*
X162761905Y-108954819D01*
X162761905Y-108954819D02*
X163000000Y-108954819D01*
X163000000Y-108954819D02*
X163142857Y-109002438D01*
X163142857Y-109002438D02*
X163238095Y-109097676D01*
X163238095Y-109097676D02*
X163285714Y-109192914D01*
X163285714Y-109192914D02*
X163333333Y-109383390D01*
X163333333Y-109383390D02*
X163333333Y-109526247D01*
X163333333Y-109526247D02*
X163285714Y-109716723D01*
X163285714Y-109716723D02*
X163238095Y-109811961D01*
X163238095Y-109811961D02*
X163142857Y-109907200D01*
X163142857Y-109907200D02*
X163000000Y-109954819D01*
X163000000Y-109954819D02*
X162761905Y-109954819D01*
X163666667Y-108954819D02*
X164285714Y-108954819D01*
X164285714Y-108954819D02*
X163952381Y-109335771D01*
X163952381Y-109335771D02*
X164095238Y-109335771D01*
X164095238Y-109335771D02*
X164190476Y-109383390D01*
X164190476Y-109383390D02*
X164238095Y-109431009D01*
X164238095Y-109431009D02*
X164285714Y-109526247D01*
X164285714Y-109526247D02*
X164285714Y-109764342D01*
X164285714Y-109764342D02*
X164238095Y-109859580D01*
X164238095Y-109859580D02*
X164190476Y-109907200D01*
X164190476Y-109907200D02*
X164095238Y-109954819D01*
X164095238Y-109954819D02*
X163809524Y-109954819D01*
X163809524Y-109954819D02*
X163714286Y-109907200D01*
X163714286Y-109907200D02*
X163666667Y-109859580D01*
X177842319Y-92638094D02*
X176842319Y-92638094D01*
X176842319Y-92638094D02*
X176842319Y-92399999D01*
X176842319Y-92399999D02*
X176889938Y-92257142D01*
X176889938Y-92257142D02*
X176985176Y-92161904D01*
X176985176Y-92161904D02*
X177080414Y-92114285D01*
X177080414Y-92114285D02*
X177270890Y-92066666D01*
X177270890Y-92066666D02*
X177413747Y-92066666D01*
X177413747Y-92066666D02*
X177604223Y-92114285D01*
X177604223Y-92114285D02*
X177699461Y-92161904D01*
X177699461Y-92161904D02*
X177794700Y-92257142D01*
X177794700Y-92257142D02*
X177842319Y-92399999D01*
X177842319Y-92399999D02*
X177842319Y-92638094D01*
X177842319Y-91114285D02*
X177842319Y-91685713D01*
X177842319Y-91399999D02*
X176842319Y-91399999D01*
X176842319Y-91399999D02*
X176985176Y-91495237D01*
X176985176Y-91495237D02*
X177080414Y-91590475D01*
X177080414Y-91590475D02*
X177128033Y-91685713D01*
X169172080Y-101466666D02*
X169219700Y-101514285D01*
X169219700Y-101514285D02*
X169267319Y-101657142D01*
X169267319Y-101657142D02*
X169267319Y-101752380D01*
X169267319Y-101752380D02*
X169219700Y-101895237D01*
X169219700Y-101895237D02*
X169124461Y-101990475D01*
X169124461Y-101990475D02*
X169029223Y-102038094D01*
X169029223Y-102038094D02*
X168838747Y-102085713D01*
X168838747Y-102085713D02*
X168695890Y-102085713D01*
X168695890Y-102085713D02*
X168505414Y-102038094D01*
X168505414Y-102038094D02*
X168410176Y-101990475D01*
X168410176Y-101990475D02*
X168314938Y-101895237D01*
X168314938Y-101895237D02*
X168267319Y-101752380D01*
X168267319Y-101752380D02*
X168267319Y-101657142D01*
X168267319Y-101657142D02*
X168314938Y-101514285D01*
X168314938Y-101514285D02*
X168362557Y-101466666D01*
X168267319Y-101133332D02*
X168267319Y-100466666D01*
X168267319Y-100466666D02*
X169267319Y-100895237D01*
D10*
X173885714Y-110964895D02*
X173619047Y-110583942D01*
X173428571Y-110964895D02*
X173428571Y-110164895D01*
X173428571Y-110164895D02*
X173733333Y-110164895D01*
X173733333Y-110164895D02*
X173809523Y-110202990D01*
X173809523Y-110202990D02*
X173847618Y-110241085D01*
X173847618Y-110241085D02*
X173885714Y-110317276D01*
X173885714Y-110317276D02*
X173885714Y-110431561D01*
X173885714Y-110431561D02*
X173847618Y-110507752D01*
X173847618Y-110507752D02*
X173809523Y-110545847D01*
X173809523Y-110545847D02*
X173733333Y-110583942D01*
X173733333Y-110583942D02*
X173428571Y-110583942D01*
X174647618Y-110964895D02*
X174190475Y-110964895D01*
X174419047Y-110964895D02*
X174419047Y-110164895D01*
X174419047Y-110164895D02*
X174342856Y-110279180D01*
X174342856Y-110279180D02*
X174266666Y-110355371D01*
X174266666Y-110355371D02*
X174190475Y-110393466D01*
X174952380Y-110241085D02*
X174990476Y-110202990D01*
X174990476Y-110202990D02*
X175066666Y-110164895D01*
X175066666Y-110164895D02*
X175257142Y-110164895D01*
X175257142Y-110164895D02*
X175333333Y-110202990D01*
X175333333Y-110202990D02*
X175371428Y-110241085D01*
X175371428Y-110241085D02*
X175409523Y-110317276D01*
X175409523Y-110317276D02*
X175409523Y-110393466D01*
X175409523Y-110393466D02*
X175371428Y-110507752D01*
X175371428Y-110507752D02*
X174914285Y-110964895D01*
X174914285Y-110964895D02*
X175409523Y-110964895D01*
X176364895Y-77883332D02*
X175983942Y-78149999D01*
X176364895Y-78340475D02*
X175564895Y-78340475D01*
X175564895Y-78340475D02*
X175564895Y-78035713D01*
X175564895Y-78035713D02*
X175602990Y-77959523D01*
X175602990Y-77959523D02*
X175641085Y-77921428D01*
X175641085Y-77921428D02*
X175717276Y-77883332D01*
X175717276Y-77883332D02*
X175831561Y-77883332D01*
X175831561Y-77883332D02*
X175907752Y-77921428D01*
X175907752Y-77921428D02*
X175945847Y-77959523D01*
X175945847Y-77959523D02*
X175983942Y-78035713D01*
X175983942Y-78035713D02*
X175983942Y-78340475D01*
X175564895Y-77197618D02*
X175564895Y-77349999D01*
X175564895Y-77349999D02*
X175602990Y-77426190D01*
X175602990Y-77426190D02*
X175641085Y-77464285D01*
X175641085Y-77464285D02*
X175755371Y-77540475D01*
X175755371Y-77540475D02*
X175907752Y-77578571D01*
X175907752Y-77578571D02*
X176212514Y-77578571D01*
X176212514Y-77578571D02*
X176288704Y-77540475D01*
X176288704Y-77540475D02*
X176326800Y-77502380D01*
X176326800Y-77502380D02*
X176364895Y-77426190D01*
X176364895Y-77426190D02*
X176364895Y-77273809D01*
X176364895Y-77273809D02*
X176326800Y-77197618D01*
X176326800Y-77197618D02*
X176288704Y-77159523D01*
X176288704Y-77159523D02*
X176212514Y-77121428D01*
X176212514Y-77121428D02*
X176022038Y-77121428D01*
X176022038Y-77121428D02*
X175945847Y-77159523D01*
X175945847Y-77159523D02*
X175907752Y-77197618D01*
X175907752Y-77197618D02*
X175869657Y-77273809D01*
X175869657Y-77273809D02*
X175869657Y-77426190D01*
X175869657Y-77426190D02*
X175907752Y-77502380D01*
X175907752Y-77502380D02*
X175945847Y-77540475D01*
X175945847Y-77540475D02*
X176022038Y-77578571D01*
D11*
X156416666Y-124404819D02*
X156416666Y-125119104D01*
X156416666Y-125119104D02*
X156369047Y-125261961D01*
X156369047Y-125261961D02*
X156273809Y-125357200D01*
X156273809Y-125357200D02*
X156130952Y-125404819D01*
X156130952Y-125404819D02*
X156035714Y-125404819D01*
X157416666Y-125404819D02*
X156845238Y-125404819D01*
X157130952Y-125404819D02*
X157130952Y-124404819D01*
X157130952Y-124404819D02*
X157035714Y-124547676D01*
X157035714Y-124547676D02*
X156940476Y-124642914D01*
X156940476Y-124642914D02*
X156845238Y-124690533D01*
D10*
X166988095Y-115207419D02*
X166988095Y-116016942D01*
X166988095Y-116016942D02*
X167035714Y-116112180D01*
X167035714Y-116112180D02*
X167083333Y-116159800D01*
X167083333Y-116159800D02*
X167178571Y-116207419D01*
X167178571Y-116207419D02*
X167369047Y-116207419D01*
X167369047Y-116207419D02*
X167464285Y-116159800D01*
X167464285Y-116159800D02*
X167511904Y-116112180D01*
X167511904Y-116112180D02*
X167559523Y-116016942D01*
X167559523Y-116016942D02*
X167559523Y-115207419D01*
X168464285Y-115540752D02*
X168464285Y-116207419D01*
X168226190Y-115159800D02*
X167988095Y-115874085D01*
X167988095Y-115874085D02*
X168607142Y-115874085D01*
D11*
X155666666Y-42954819D02*
X155666666Y-43669104D01*
X155666666Y-43669104D02*
X155619047Y-43811961D01*
X155619047Y-43811961D02*
X155523809Y-43907200D01*
X155523809Y-43907200D02*
X155380952Y-43954819D01*
X155380952Y-43954819D02*
X155285714Y-43954819D01*
X156571428Y-43288152D02*
X156571428Y-43954819D01*
X156333333Y-42907200D02*
X156095238Y-43621485D01*
X156095238Y-43621485D02*
X156714285Y-43621485D01*
D10*
X153114895Y-72133332D02*
X152733942Y-72399999D01*
X153114895Y-72590475D02*
X152314895Y-72590475D01*
X152314895Y-72590475D02*
X152314895Y-72285713D01*
X152314895Y-72285713D02*
X152352990Y-72209523D01*
X152352990Y-72209523D02*
X152391085Y-72171428D01*
X152391085Y-72171428D02*
X152467276Y-72133332D01*
X152467276Y-72133332D02*
X152581561Y-72133332D01*
X152581561Y-72133332D02*
X152657752Y-72171428D01*
X152657752Y-72171428D02*
X152695847Y-72209523D01*
X152695847Y-72209523D02*
X152733942Y-72285713D01*
X152733942Y-72285713D02*
X152733942Y-72590475D01*
X152581561Y-71447618D02*
X153114895Y-71447618D01*
X152276800Y-71638094D02*
X152848228Y-71828571D01*
X152848228Y-71828571D02*
X152848228Y-71333332D01*
X180085714Y-111288704D02*
X180047618Y-111326800D01*
X180047618Y-111326800D02*
X179933333Y-111364895D01*
X179933333Y-111364895D02*
X179857142Y-111364895D01*
X179857142Y-111364895D02*
X179742856Y-111326800D01*
X179742856Y-111326800D02*
X179666666Y-111250609D01*
X179666666Y-111250609D02*
X179628571Y-111174419D01*
X179628571Y-111174419D02*
X179590475Y-111022038D01*
X179590475Y-111022038D02*
X179590475Y-110907752D01*
X179590475Y-110907752D02*
X179628571Y-110755371D01*
X179628571Y-110755371D02*
X179666666Y-110679180D01*
X179666666Y-110679180D02*
X179742856Y-110602990D01*
X179742856Y-110602990D02*
X179857142Y-110564895D01*
X179857142Y-110564895D02*
X179933333Y-110564895D01*
X179933333Y-110564895D02*
X180047618Y-110602990D01*
X180047618Y-110602990D02*
X180085714Y-110641085D01*
X180847618Y-111364895D02*
X180390475Y-111364895D01*
X180619047Y-111364895D02*
X180619047Y-110564895D01*
X180619047Y-110564895D02*
X180542856Y-110679180D01*
X180542856Y-110679180D02*
X180466666Y-110755371D01*
X180466666Y-110755371D02*
X180390475Y-110793466D01*
X181533333Y-110564895D02*
X181380952Y-110564895D01*
X181380952Y-110564895D02*
X181304761Y-110602990D01*
X181304761Y-110602990D02*
X181266666Y-110641085D01*
X181266666Y-110641085D02*
X181190476Y-110755371D01*
X181190476Y-110755371D02*
X181152380Y-110907752D01*
X181152380Y-110907752D02*
X181152380Y-111212514D01*
X181152380Y-111212514D02*
X181190476Y-111288704D01*
X181190476Y-111288704D02*
X181228571Y-111326800D01*
X181228571Y-111326800D02*
X181304761Y-111364895D01*
X181304761Y-111364895D02*
X181457142Y-111364895D01*
X181457142Y-111364895D02*
X181533333Y-111326800D01*
X181533333Y-111326800D02*
X181571428Y-111288704D01*
X181571428Y-111288704D02*
X181609523Y-111212514D01*
X181609523Y-111212514D02*
X181609523Y-111022038D01*
X181609523Y-111022038D02*
X181571428Y-110945847D01*
X181571428Y-110945847D02*
X181533333Y-110907752D01*
X181533333Y-110907752D02*
X181457142Y-110869657D01*
X181457142Y-110869657D02*
X181304761Y-110869657D01*
X181304761Y-110869657D02*
X181228571Y-110907752D01*
X181228571Y-110907752D02*
X181190476Y-110945847D01*
X181190476Y-110945847D02*
X181152380Y-111022038D01*
X179066666Y-120277395D02*
X178685714Y-120277395D01*
X178685714Y-120277395D02*
X178685714Y-119477395D01*
X179295237Y-119553585D02*
X179333333Y-119515490D01*
X179333333Y-119515490D02*
X179409523Y-119477395D01*
X179409523Y-119477395D02*
X179599999Y-119477395D01*
X179599999Y-119477395D02*
X179676190Y-119515490D01*
X179676190Y-119515490D02*
X179714285Y-119553585D01*
X179714285Y-119553585D02*
X179752380Y-119629776D01*
X179752380Y-119629776D02*
X179752380Y-119705966D01*
X179752380Y-119705966D02*
X179714285Y-119820252D01*
X179714285Y-119820252D02*
X179257142Y-120277395D01*
X179257142Y-120277395D02*
X179752380Y-120277395D01*
X171285714Y-110888704D02*
X171247618Y-110926800D01*
X171247618Y-110926800D02*
X171133333Y-110964895D01*
X171133333Y-110964895D02*
X171057142Y-110964895D01*
X171057142Y-110964895D02*
X170942856Y-110926800D01*
X170942856Y-110926800D02*
X170866666Y-110850609D01*
X170866666Y-110850609D02*
X170828571Y-110774419D01*
X170828571Y-110774419D02*
X170790475Y-110622038D01*
X170790475Y-110622038D02*
X170790475Y-110507752D01*
X170790475Y-110507752D02*
X170828571Y-110355371D01*
X170828571Y-110355371D02*
X170866666Y-110279180D01*
X170866666Y-110279180D02*
X170942856Y-110202990D01*
X170942856Y-110202990D02*
X171057142Y-110164895D01*
X171057142Y-110164895D02*
X171133333Y-110164895D01*
X171133333Y-110164895D02*
X171247618Y-110202990D01*
X171247618Y-110202990D02*
X171285714Y-110241085D01*
X172047618Y-110964895D02*
X171590475Y-110964895D01*
X171819047Y-110964895D02*
X171819047Y-110164895D01*
X171819047Y-110164895D02*
X171742856Y-110279180D01*
X171742856Y-110279180D02*
X171666666Y-110355371D01*
X171666666Y-110355371D02*
X171590475Y-110393466D01*
X172314285Y-110164895D02*
X172847619Y-110164895D01*
X172847619Y-110164895D02*
X172504761Y-110964895D01*
D11*
X162972080Y-89966666D02*
X163019700Y-90014285D01*
X163019700Y-90014285D02*
X163067319Y-90157142D01*
X163067319Y-90157142D02*
X163067319Y-90252380D01*
X163067319Y-90252380D02*
X163019700Y-90395237D01*
X163019700Y-90395237D02*
X162924461Y-90490475D01*
X162924461Y-90490475D02*
X162829223Y-90538094D01*
X162829223Y-90538094D02*
X162638747Y-90585713D01*
X162638747Y-90585713D02*
X162495890Y-90585713D01*
X162495890Y-90585713D02*
X162305414Y-90538094D01*
X162305414Y-90538094D02*
X162210176Y-90490475D01*
X162210176Y-90490475D02*
X162114938Y-90395237D01*
X162114938Y-90395237D02*
X162067319Y-90252380D01*
X162067319Y-90252380D02*
X162067319Y-90157142D01*
X162067319Y-90157142D02*
X162114938Y-90014285D01*
X162114938Y-90014285D02*
X162162557Y-89966666D01*
X162495890Y-89395237D02*
X162448271Y-89490475D01*
X162448271Y-89490475D02*
X162400652Y-89538094D01*
X162400652Y-89538094D02*
X162305414Y-89585713D01*
X162305414Y-89585713D02*
X162257795Y-89585713D01*
X162257795Y-89585713D02*
X162162557Y-89538094D01*
X162162557Y-89538094D02*
X162114938Y-89490475D01*
X162114938Y-89490475D02*
X162067319Y-89395237D01*
X162067319Y-89395237D02*
X162067319Y-89204761D01*
X162067319Y-89204761D02*
X162114938Y-89109523D01*
X162114938Y-89109523D02*
X162162557Y-89061904D01*
X162162557Y-89061904D02*
X162257795Y-89014285D01*
X162257795Y-89014285D02*
X162305414Y-89014285D01*
X162305414Y-89014285D02*
X162400652Y-89061904D01*
X162400652Y-89061904D02*
X162448271Y-89109523D01*
X162448271Y-89109523D02*
X162495890Y-89204761D01*
X162495890Y-89204761D02*
X162495890Y-89395237D01*
X162495890Y-89395237D02*
X162543509Y-89490475D01*
X162543509Y-89490475D02*
X162591128Y-89538094D01*
X162591128Y-89538094D02*
X162686366Y-89585713D01*
X162686366Y-89585713D02*
X162876842Y-89585713D01*
X162876842Y-89585713D02*
X162972080Y-89538094D01*
X162972080Y-89538094D02*
X163019700Y-89490475D01*
X163019700Y-89490475D02*
X163067319Y-89395237D01*
X163067319Y-89395237D02*
X163067319Y-89204761D01*
X163067319Y-89204761D02*
X163019700Y-89109523D01*
X163019700Y-89109523D02*
X162972080Y-89061904D01*
X162972080Y-89061904D02*
X162876842Y-89014285D01*
X162876842Y-89014285D02*
X162686366Y-89014285D01*
X162686366Y-89014285D02*
X162591128Y-89061904D01*
X162591128Y-89061904D02*
X162543509Y-89109523D01*
X162543509Y-89109523D02*
X162495890Y-89204761D01*
X154761905Y-105454819D02*
X154761905Y-104454819D01*
X154761905Y-104454819D02*
X155000000Y-104454819D01*
X155000000Y-104454819D02*
X155142857Y-104502438D01*
X155142857Y-104502438D02*
X155238095Y-104597676D01*
X155238095Y-104597676D02*
X155285714Y-104692914D01*
X155285714Y-104692914D02*
X155333333Y-104883390D01*
X155333333Y-104883390D02*
X155333333Y-105026247D01*
X155333333Y-105026247D02*
X155285714Y-105216723D01*
X155285714Y-105216723D02*
X155238095Y-105311961D01*
X155238095Y-105311961D02*
X155142857Y-105407200D01*
X155142857Y-105407200D02*
X155000000Y-105454819D01*
X155000000Y-105454819D02*
X154761905Y-105454819D01*
X155714286Y-104550057D02*
X155761905Y-104502438D01*
X155761905Y-104502438D02*
X155857143Y-104454819D01*
X155857143Y-104454819D02*
X156095238Y-104454819D01*
X156095238Y-104454819D02*
X156190476Y-104502438D01*
X156190476Y-104502438D02*
X156238095Y-104550057D01*
X156238095Y-104550057D02*
X156285714Y-104645295D01*
X156285714Y-104645295D02*
X156285714Y-104740533D01*
X156285714Y-104740533D02*
X156238095Y-104883390D01*
X156238095Y-104883390D02*
X155666667Y-105454819D01*
X155666667Y-105454819D02*
X156285714Y-105454819D01*
X177166666Y-50704819D02*
X177166666Y-51419104D01*
X177166666Y-51419104D02*
X177119047Y-51561961D01*
X177119047Y-51561961D02*
X177023809Y-51657200D01*
X177023809Y-51657200D02*
X176880952Y-51704819D01*
X176880952Y-51704819D02*
X176785714Y-51704819D01*
X177547619Y-50704819D02*
X178214285Y-50704819D01*
X178214285Y-50704819D02*
X177785714Y-51704819D01*
D10*
X176485714Y-111201204D02*
X176447618Y-111239300D01*
X176447618Y-111239300D02*
X176333333Y-111277395D01*
X176333333Y-111277395D02*
X176257142Y-111277395D01*
X176257142Y-111277395D02*
X176142856Y-111239300D01*
X176142856Y-111239300D02*
X176066666Y-111163109D01*
X176066666Y-111163109D02*
X176028571Y-111086919D01*
X176028571Y-111086919D02*
X175990475Y-110934538D01*
X175990475Y-110934538D02*
X175990475Y-110820252D01*
X175990475Y-110820252D02*
X176028571Y-110667871D01*
X176028571Y-110667871D02*
X176066666Y-110591680D01*
X176066666Y-110591680D02*
X176142856Y-110515490D01*
X176142856Y-110515490D02*
X176257142Y-110477395D01*
X176257142Y-110477395D02*
X176333333Y-110477395D01*
X176333333Y-110477395D02*
X176447618Y-110515490D01*
X176447618Y-110515490D02*
X176485714Y-110553585D01*
X177247618Y-111277395D02*
X176790475Y-111277395D01*
X177019047Y-111277395D02*
X177019047Y-110477395D01*
X177019047Y-110477395D02*
X176942856Y-110591680D01*
X176942856Y-110591680D02*
X176866666Y-110667871D01*
X176866666Y-110667871D02*
X176790475Y-110705966D01*
X177971428Y-110477395D02*
X177590476Y-110477395D01*
X177590476Y-110477395D02*
X177552380Y-110858347D01*
X177552380Y-110858347D02*
X177590476Y-110820252D01*
X177590476Y-110820252D02*
X177666666Y-110782157D01*
X177666666Y-110782157D02*
X177857142Y-110782157D01*
X177857142Y-110782157D02*
X177933333Y-110820252D01*
X177933333Y-110820252D02*
X177971428Y-110858347D01*
X177971428Y-110858347D02*
X178009523Y-110934538D01*
X178009523Y-110934538D02*
X178009523Y-111125014D01*
X178009523Y-111125014D02*
X177971428Y-111201204D01*
X177971428Y-111201204D02*
X177933333Y-111239300D01*
X177933333Y-111239300D02*
X177857142Y-111277395D01*
X177857142Y-111277395D02*
X177666666Y-111277395D01*
X177666666Y-111277395D02*
X177590476Y-111239300D01*
X177590476Y-111239300D02*
X177552380Y-111201204D01*
D11*
X155454819Y-76511904D02*
X156264342Y-76511904D01*
X156264342Y-76511904D02*
X156359580Y-76464285D01*
X156359580Y-76464285D02*
X156407200Y-76416666D01*
X156407200Y-76416666D02*
X156454819Y-76321428D01*
X156454819Y-76321428D02*
X156454819Y-76130952D01*
X156454819Y-76130952D02*
X156407200Y-76035714D01*
X156407200Y-76035714D02*
X156359580Y-75988095D01*
X156359580Y-75988095D02*
X156264342Y-75940476D01*
X156264342Y-75940476D02*
X155454819Y-75940476D01*
X155454819Y-75559523D02*
X155454819Y-74940476D01*
X155454819Y-74940476D02*
X155835771Y-75273809D01*
X155835771Y-75273809D02*
X155835771Y-75130952D01*
X155835771Y-75130952D02*
X155883390Y-75035714D01*
X155883390Y-75035714D02*
X155931009Y-74988095D01*
X155931009Y-74988095D02*
X156026247Y-74940476D01*
X156026247Y-74940476D02*
X156264342Y-74940476D01*
X156264342Y-74940476D02*
X156359580Y-74988095D01*
X156359580Y-74988095D02*
X156407200Y-75035714D01*
X156407200Y-75035714D02*
X156454819Y-75130952D01*
X156454819Y-75130952D02*
X156454819Y-75416666D01*
X156454819Y-75416666D02*
X156407200Y-75511904D01*
X156407200Y-75511904D02*
X156359580Y-75559523D01*
D10*
X161114895Y-71633332D02*
X160733942Y-71899999D01*
X161114895Y-72090475D02*
X160314895Y-72090475D01*
X160314895Y-72090475D02*
X160314895Y-71785713D01*
X160314895Y-71785713D02*
X160352990Y-71709523D01*
X160352990Y-71709523D02*
X160391085Y-71671428D01*
X160391085Y-71671428D02*
X160467276Y-71633332D01*
X160467276Y-71633332D02*
X160581561Y-71633332D01*
X160581561Y-71633332D02*
X160657752Y-71671428D01*
X160657752Y-71671428D02*
X160695847Y-71709523D01*
X160695847Y-71709523D02*
X160733942Y-71785713D01*
X160733942Y-71785713D02*
X160733942Y-72090475D01*
X160314895Y-71366666D02*
X160314895Y-70871428D01*
X160314895Y-70871428D02*
X160619657Y-71138094D01*
X160619657Y-71138094D02*
X160619657Y-71023809D01*
X160619657Y-71023809D02*
X160657752Y-70947618D01*
X160657752Y-70947618D02*
X160695847Y-70909523D01*
X160695847Y-70909523D02*
X160772038Y-70871428D01*
X160772038Y-70871428D02*
X160962514Y-70871428D01*
X160962514Y-70871428D02*
X161038704Y-70909523D01*
X161038704Y-70909523D02*
X161076800Y-70947618D01*
X161076800Y-70947618D02*
X161114895Y-71023809D01*
X161114895Y-71023809D02*
X161114895Y-71252380D01*
X161114895Y-71252380D02*
X161076800Y-71328571D01*
X161076800Y-71328571D02*
X161038704Y-71366666D01*
D11*
X182359580Y-67666666D02*
X182407200Y-67714285D01*
X182407200Y-67714285D02*
X182454819Y-67857142D01*
X182454819Y-67857142D02*
X182454819Y-67952380D01*
X182454819Y-67952380D02*
X182407200Y-68095237D01*
X182407200Y-68095237D02*
X182311961Y-68190475D01*
X182311961Y-68190475D02*
X182216723Y-68238094D01*
X182216723Y-68238094D02*
X182026247Y-68285713D01*
X182026247Y-68285713D02*
X181883390Y-68285713D01*
X181883390Y-68285713D02*
X181692914Y-68238094D01*
X181692914Y-68238094D02*
X181597676Y-68190475D01*
X181597676Y-68190475D02*
X181502438Y-68095237D01*
X181502438Y-68095237D02*
X181454819Y-67952380D01*
X181454819Y-67952380D02*
X181454819Y-67857142D01*
X181454819Y-67857142D02*
X181502438Y-67714285D01*
X181502438Y-67714285D02*
X181550057Y-67666666D01*
X182454819Y-66714285D02*
X182454819Y-67285713D01*
X182454819Y-66999999D02*
X181454819Y-66999999D01*
X181454819Y-66999999D02*
X181597676Y-67095237D01*
X181597676Y-67095237D02*
X181692914Y-67190475D01*
X181692914Y-67190475D02*
X181740533Y-67285713D01*
D10*
X168685714Y-110964895D02*
X168419047Y-110583942D01*
X168228571Y-110964895D02*
X168228571Y-110164895D01*
X168228571Y-110164895D02*
X168533333Y-110164895D01*
X168533333Y-110164895D02*
X168609523Y-110202990D01*
X168609523Y-110202990D02*
X168647618Y-110241085D01*
X168647618Y-110241085D02*
X168685714Y-110317276D01*
X168685714Y-110317276D02*
X168685714Y-110431561D01*
X168685714Y-110431561D02*
X168647618Y-110507752D01*
X168647618Y-110507752D02*
X168609523Y-110545847D01*
X168609523Y-110545847D02*
X168533333Y-110583942D01*
X168533333Y-110583942D02*
X168228571Y-110583942D01*
X169447618Y-110964895D02*
X168990475Y-110964895D01*
X169219047Y-110964895D02*
X169219047Y-110164895D01*
X169219047Y-110164895D02*
X169142856Y-110279180D01*
X169142856Y-110279180D02*
X169066666Y-110355371D01*
X169066666Y-110355371D02*
X168990475Y-110393466D01*
X169714285Y-110164895D02*
X170209523Y-110164895D01*
X170209523Y-110164895D02*
X169942857Y-110469657D01*
X169942857Y-110469657D02*
X170057142Y-110469657D01*
X170057142Y-110469657D02*
X170133333Y-110507752D01*
X170133333Y-110507752D02*
X170171428Y-110545847D01*
X170171428Y-110545847D02*
X170209523Y-110622038D01*
X170209523Y-110622038D02*
X170209523Y-110812514D01*
X170209523Y-110812514D02*
X170171428Y-110888704D01*
X170171428Y-110888704D02*
X170133333Y-110926800D01*
X170133333Y-110926800D02*
X170057142Y-110964895D01*
X170057142Y-110964895D02*
X169828571Y-110964895D01*
X169828571Y-110964895D02*
X169752380Y-110926800D01*
X169752380Y-110926800D02*
X169714285Y-110888704D01*
%TO.C,R5*%
D12*
X163765000Y-72727064D02*
X163765000Y-72272936D01*
X165235000Y-72727064D02*
X165235000Y-72272936D01*
%TO.C,R9*%
X169265000Y-45272936D02*
X169265000Y-45727064D01*
X170735000Y-45272936D02*
X170735000Y-45727064D01*
%TO.C,J6*%
X152440000Y-47200000D02*
X153050000Y-47200000D01*
X152440000Y-48500000D02*
X153050000Y-48500000D01*
X153050000Y-45700000D02*
X153050000Y-49200000D01*
X153050000Y-49200000D02*
X155000000Y-49200000D01*
X155000000Y-49200000D02*
X155000000Y-49810000D01*
X155400000Y-46200000D02*
X155400000Y-45700000D01*
X155500000Y-45700000D02*
X155500000Y-46200000D01*
X155600000Y-45700000D02*
X155600000Y-46200000D01*
X155600000Y-46200000D02*
X155400000Y-46200000D01*
X157400000Y-46200000D02*
X157400000Y-45700000D01*
X157500000Y-45700000D02*
X157500000Y-46200000D01*
X157600000Y-45700000D02*
X157600000Y-46200000D01*
X157600000Y-46200000D02*
X157400000Y-46200000D01*
X159400000Y-46200000D02*
X159400000Y-45700000D01*
X159500000Y-45700000D02*
X159500000Y-46200000D01*
X159600000Y-45700000D02*
X159600000Y-46200000D01*
X159600000Y-46200000D02*
X159400000Y-46200000D01*
X161400000Y-46200000D02*
X161400000Y-45700000D01*
X161500000Y-45700000D02*
X161500000Y-46200000D01*
X161600000Y-45700000D02*
X161600000Y-46200000D01*
X161600000Y-46200000D02*
X161400000Y-46200000D01*
X163400000Y-46200000D02*
X163400000Y-45700000D01*
X163500000Y-45700000D02*
X163500000Y-46200000D01*
X163600000Y-45700000D02*
X163600000Y-46200000D01*
X163600000Y-46200000D02*
X163400000Y-46200000D01*
X164000000Y-49200000D02*
X165950000Y-49200000D01*
X164000000Y-49810000D02*
X164000000Y-49200000D01*
X164800000Y-49810000D02*
X164800000Y-50010000D01*
X164800000Y-49910000D02*
X165100000Y-49910000D01*
X164800000Y-50010000D02*
X165100000Y-50010000D01*
X165100000Y-50010000D02*
X165100000Y-49810000D01*
X165610000Y-50110000D02*
X166860000Y-50110000D01*
X165950000Y-45700000D02*
X153050000Y-45700000D01*
X165950000Y-49200000D02*
X165950000Y-45700000D01*
X166560000Y-47200000D02*
X165950000Y-47200000D01*
X166560000Y-48500000D02*
X165950000Y-48500000D01*
X166860000Y-50110000D02*
X166860000Y-48860000D01*
X152440000Y-45090000D02*
X166560000Y-45090000D01*
X166560000Y-49810000D01*
X152440000Y-49810000D01*
X152440000Y-45090000D01*
%TO.C,C19*%
X172590000Y-102590000D02*
X172590000Y-104940000D01*
X172590000Y-109410000D02*
X172590000Y-107060000D01*
X178345563Y-102590000D02*
X172590000Y-102590000D01*
X178345563Y-109410000D02*
X172590000Y-109410000D01*
X179410000Y-103654437D02*
X178345563Y-102590000D01*
X179410000Y-103654437D02*
X179410000Y-104940000D01*
X179410000Y-108345563D02*
X178345563Y-109410000D01*
X179410000Y-108345563D02*
X179410000Y-107060000D01*
X180043750Y-108241250D02*
X180043750Y-107453750D01*
X180437500Y-107847500D02*
X179650000Y-107847500D01*
%TO.C,C3*%
X153340000Y-91904437D02*
X153340000Y-97660000D01*
X153340000Y-97660000D02*
X155690000Y-97660000D01*
X154404437Y-90840000D02*
X153340000Y-91904437D01*
X154404437Y-90840000D02*
X155690000Y-90840000D01*
X158597500Y-89812500D02*
X158597500Y-90600000D01*
X158991250Y-90206250D02*
X158203750Y-90206250D01*
X159095563Y-90840000D02*
X157810000Y-90840000D01*
X159095563Y-90840000D02*
X160160000Y-91904437D01*
X160160000Y-91904437D02*
X160160000Y-97660000D01*
X160160000Y-97660000D02*
X157810000Y-97660000D01*
%TO.C,R7*%
X161765000Y-72272936D02*
X161765000Y-72727064D01*
X163235000Y-72272936D02*
X163235000Y-72727064D01*
%TO.C,J3*%
D13*
X166733750Y-78037600D02*
X166733750Y-81161800D01*
X166733750Y-82838200D02*
X166733750Y-88502400D01*
X166733750Y-88502400D02*
X172829750Y-88502400D01*
X172829750Y-78037600D02*
X166733750Y-78037600D01*
X172829750Y-88502400D02*
X172829750Y-78037600D01*
D14*
X169400750Y-88756400D02*
G75*
G02*
X169400750Y-89518400I0J-381000D01*
G01*
X169400750Y-89518400D02*
G75*
G02*
X169400750Y-88756400I0J381000D01*
G01*
%TO.C,R8*%
D12*
X173765000Y-73727064D02*
X173765000Y-73272936D01*
X175235000Y-73727064D02*
X175235000Y-73272936D01*
%TO.C,C5*%
X160188748Y-77515000D02*
X160711252Y-77515000D01*
X160188748Y-78985000D02*
X160711252Y-78985000D01*
%TO.C,R2*%
X165227064Y-75765000D02*
X164772936Y-75765000D01*
X165227064Y-77235000D02*
X164772936Y-77235000D01*
%TO.C,L1*%
D15*
X170112500Y-94500000D02*
X171192500Y-94500000D01*
X170112500Y-99700000D02*
X170112500Y-94500000D01*
X170112500Y-99700000D02*
X171192500Y-99700000D01*
X175112500Y-94500000D02*
X174032500Y-94500000D01*
X175112500Y-99700000D02*
X174032500Y-99700000D01*
X175112500Y-99700000D02*
X175112500Y-94500000D01*
%TO.C,C10*%
D12*
X169341252Y-70765000D02*
X168818748Y-70765000D01*
X169341252Y-72235000D02*
X168818748Y-72235000D01*
%TO.C,J5*%
X168140000Y-38340000D02*
X168140000Y-39590000D01*
X168440000Y-39950000D02*
X169050000Y-39950000D01*
X168440000Y-41250000D02*
X169050000Y-41250000D01*
X169050000Y-39250000D02*
X169050000Y-42750000D01*
X169050000Y-42750000D02*
X177950000Y-42750000D01*
X169390000Y-38340000D02*
X168140000Y-38340000D01*
X169900000Y-38440000D02*
X169900000Y-38640000D01*
X170200000Y-38440000D02*
X169900000Y-38440000D01*
X170200000Y-38540000D02*
X169900000Y-38540000D01*
X170200000Y-38640000D02*
X170200000Y-38440000D01*
X171000000Y-38640000D02*
X171000000Y-39250000D01*
X171000000Y-39250000D02*
X169050000Y-39250000D01*
X171400000Y-42250000D02*
X171600000Y-42250000D01*
X171400000Y-42750000D02*
X171400000Y-42250000D01*
X171500000Y-42750000D02*
X171500000Y-42250000D01*
X171600000Y-42250000D02*
X171600000Y-42750000D01*
X173400000Y-42250000D02*
X173600000Y-42250000D01*
X173400000Y-42750000D02*
X173400000Y-42250000D01*
X173500000Y-42750000D02*
X173500000Y-42250000D01*
X173600000Y-42250000D02*
X173600000Y-42750000D01*
X175400000Y-42250000D02*
X175600000Y-42250000D01*
X175400000Y-42750000D02*
X175400000Y-42250000D01*
X175500000Y-42750000D02*
X175500000Y-42250000D01*
X175600000Y-42250000D02*
X175600000Y-42750000D01*
X176000000Y-39250000D02*
X176000000Y-38640000D01*
X177950000Y-39250000D02*
X176000000Y-39250000D01*
X177950000Y-42750000D02*
X177950000Y-39250000D01*
X178560000Y-39950000D02*
X177950000Y-39950000D01*
X178560000Y-41250000D02*
X177950000Y-41250000D01*
X168440000Y-38640000D02*
X178560000Y-38640000D01*
X178560000Y-43360000D01*
X168440000Y-43360000D01*
X168440000Y-38640000D01*
%TO.C,C11*%
X166323752Y-101290000D02*
X164901248Y-101290000D01*
X166323752Y-103110000D02*
X164901248Y-103110000D01*
%TO.C,J2*%
D13*
X152333000Y-78037600D02*
X152333000Y-81161800D01*
X152333000Y-82838200D02*
X152333000Y-88502400D01*
X152333000Y-88502400D02*
X158429000Y-88502400D01*
X158429000Y-78037600D02*
X152333000Y-78037600D01*
X158429000Y-88502400D02*
X158429000Y-78037600D01*
D14*
X155000000Y-88756400D02*
G75*
G02*
X155000000Y-89518400I0J-381000D01*
G01*
X155000000Y-89518400D02*
G75*
G02*
X155000000Y-88756400I0J381000D01*
G01*
%TO.C,R1*%
D12*
X160727064Y-80265000D02*
X160272936Y-80265000D01*
X160727064Y-81735000D02*
X160272936Y-81735000D01*
%TO.C,C14*%
X173675000Y-116390580D02*
X173675000Y-116109420D01*
X174695000Y-116390580D02*
X174695000Y-116109420D01*
%TO.C,C18*%
X161377500Y-101038748D02*
X161377500Y-101561252D01*
X162847500Y-101038748D02*
X162847500Y-101561252D01*
%TO.C,U2*%
D15*
X165467500Y-97650000D02*
X165957500Y-97650000D01*
X165467500Y-100550000D02*
X165957500Y-100550000D01*
D16*
X163512500Y-98150000D02*
G75*
G02*
X163312500Y-98150000I-100000J0D01*
G01*
X163312500Y-98150000D02*
G75*
G02*
X163512500Y-98150000I100000J0D01*
G01*
%TO.C,C4*%
D12*
X159265000Y-109261252D02*
X159265000Y-108738748D01*
X160735000Y-109261252D02*
X160735000Y-108738748D01*
%TO.C,C9*%
X166323752Y-93940000D02*
X164901248Y-93940000D01*
X166323752Y-96660000D02*
X164901248Y-96660000D01*
%TO.C,C13*%
X170738748Y-118577500D02*
X171261252Y-118577500D01*
X170738748Y-120047500D02*
X171261252Y-120047500D01*
%TO.C,U1*%
X152520000Y-51280000D02*
X175480000Y-51280000D01*
X175480000Y-69720000D01*
X152520000Y-69720000D01*
X152520000Y-51280000D01*
%TO.C,C2*%
X178238748Y-69765000D02*
X178761252Y-69765000D01*
X178238748Y-71235000D02*
X178761252Y-71235000D01*
%TO.C,Q1*%
D13*
X157757500Y-114761500D02*
X157757500Y-121238500D01*
X157757500Y-121238500D02*
X158161360Y-121238500D01*
X160678500Y-113745500D02*
X160678500Y-114761500D01*
X160678500Y-114761500D02*
X157757500Y-114761500D01*
X161821500Y-113745500D02*
X160678500Y-113745500D01*
X161821500Y-114761500D02*
X161821500Y-113745500D01*
X164338640Y-121238500D02*
X164742500Y-121238500D01*
X164742500Y-114761500D02*
X161821500Y-114761500D01*
X164742500Y-121238500D02*
X164742500Y-114761500D01*
%TO.C,R10*%
D12*
X167265000Y-45272936D02*
X167265000Y-45727064D01*
X168735000Y-45272936D02*
X168735000Y-45727064D01*
%TO.C,C12*%
X166890000Y-118288748D02*
X166890000Y-119711252D01*
X168710000Y-118288748D02*
X168710000Y-119711252D01*
%TO.C,R11*%
X165265000Y-112727064D02*
X165265000Y-112272936D01*
X166735000Y-112727064D02*
X166735000Y-112272936D01*
%TO.C,D3*%
X161140000Y-108500000D02*
X161140000Y-110500000D01*
X161140000Y-108500000D02*
X165150000Y-108500000D01*
X161140000Y-110500000D02*
X165150000Y-110500000D01*
%TO.C,D1*%
X169490000Y-90100000D02*
X169490000Y-93400000D01*
X169490000Y-90100000D02*
X175000000Y-90100000D01*
X169490000Y-93400000D02*
X175000000Y-93400000D01*
%TO.C,C7*%
X168377500Y-98815580D02*
X168377500Y-98534420D01*
X169397500Y-98815580D02*
X169397500Y-98534420D01*
%TO.C,R12*%
X173265000Y-112572936D02*
X173265000Y-113027064D01*
X174735000Y-112572936D02*
X174735000Y-113027064D01*
%TO.C,R6*%
X173765000Y-78227064D02*
X173765000Y-77772936D01*
X175235000Y-78227064D02*
X175235000Y-77772936D01*
%TO.C,J1*%
X152650000Y-125750000D02*
X152650000Y-127000000D01*
X152950000Y-128300000D02*
X153700000Y-128300000D01*
X153700000Y-128300000D02*
X153700000Y-131250000D01*
X153700000Y-131250000D02*
X156750000Y-131250000D01*
X153900000Y-125750000D02*
X152650000Y-125750000D01*
X159800000Y-128300000D02*
X159800000Y-131250000D01*
X159800000Y-131250000D02*
X156750000Y-131250000D01*
X160550000Y-128300000D02*
X159800000Y-128300000D01*
X152940000Y-126040000D02*
X160560000Y-126040000D01*
X160560000Y-132010000D01*
X152940000Y-132010000D01*
X152940000Y-126040000D01*
X152950000Y-126050000D02*
X154750000Y-126050000D01*
X154750000Y-126800000D01*
X152950000Y-126800000D01*
X152950000Y-126050000D01*
X156250000Y-126050000D02*
X157250000Y-126050000D01*
X157250000Y-126800000D01*
X156250000Y-126800000D01*
X156250000Y-126050000D01*
X158750000Y-126050000D02*
X160550000Y-126050000D01*
X160550000Y-126800000D01*
X158750000Y-126800000D01*
X158750000Y-126050000D01*
%TO.C,U4*%
D15*
X170955000Y-114862500D02*
X171445000Y-114862500D01*
X170955000Y-117762500D02*
X171445000Y-117762500D01*
D16*
X169000000Y-115362500D02*
G75*
G02*
X168800000Y-115362500I-100000J0D01*
G01*
X168800000Y-115362500D02*
G75*
G02*
X169000000Y-115362500I100000J0D01*
G01*
%TO.C,J4*%
D12*
X157140000Y-38340000D02*
X157140000Y-39590000D01*
X157440000Y-39950000D02*
X158050000Y-39950000D01*
X157440000Y-41250000D02*
X158050000Y-41250000D01*
X158050000Y-39250000D02*
X158050000Y-42750000D01*
X158050000Y-42750000D02*
X166950000Y-42750000D01*
X158390000Y-38340000D02*
X157140000Y-38340000D01*
X158900000Y-38440000D02*
X158900000Y-38640000D01*
X159200000Y-38440000D02*
X158900000Y-38440000D01*
X159200000Y-38540000D02*
X158900000Y-38540000D01*
X159200000Y-38640000D02*
X159200000Y-38440000D01*
X160000000Y-38640000D02*
X160000000Y-39250000D01*
X160000000Y-39250000D02*
X158050000Y-39250000D01*
X160400000Y-42250000D02*
X160600000Y-42250000D01*
X160400000Y-42750000D02*
X160400000Y-42250000D01*
X160500000Y-42750000D02*
X160500000Y-42250000D01*
X160600000Y-42250000D02*
X160600000Y-42750000D01*
X162400000Y-42250000D02*
X162600000Y-42250000D01*
X162400000Y-42750000D02*
X162400000Y-42250000D01*
X162500000Y-42750000D02*
X162500000Y-42250000D01*
X162600000Y-42250000D02*
X162600000Y-42750000D01*
X164400000Y-42250000D02*
X164600000Y-42250000D01*
X164400000Y-42750000D02*
X164400000Y-42250000D01*
X164500000Y-42750000D02*
X164500000Y-42250000D01*
X164600000Y-42250000D02*
X164600000Y-42750000D01*
X165000000Y-39250000D02*
X165000000Y-38640000D01*
X166950000Y-39250000D02*
X165000000Y-39250000D01*
X166950000Y-42750000D02*
X166950000Y-39250000D01*
X167560000Y-39950000D02*
X166950000Y-39950000D01*
X167560000Y-41250000D02*
X166950000Y-41250000D01*
X157440000Y-38640000D02*
X167560000Y-38640000D01*
X167560000Y-43360000D01*
X157440000Y-43360000D01*
X157440000Y-38640000D01*
%TO.C,R4*%
X154772936Y-71265000D02*
X155227064Y-71265000D01*
X154772936Y-72735000D02*
X155227064Y-72735000D01*
%TO.C,C16*%
X179240000Y-114711252D02*
X179240000Y-113288748D01*
X181960000Y-114711252D02*
X181960000Y-113288748D01*
%TO.C,L2*%
D15*
X175650000Y-116662500D02*
X175650000Y-117892500D01*
X175650000Y-116662500D02*
X182750000Y-116662500D01*
X175650000Y-123162500D02*
X175650000Y-121932500D01*
X175650000Y-123162500D02*
X182750000Y-123162500D01*
X182750000Y-116662500D02*
X182750000Y-117892500D01*
X182750000Y-123162500D02*
X182750000Y-121932500D01*
%TO.C,C17*%
D12*
X171065000Y-112538748D02*
X171065000Y-113061252D01*
X172535000Y-112538748D02*
X172535000Y-113061252D01*
%TO.C,C8*%
X166323752Y-89940000D02*
X164901248Y-89940000D01*
X166323752Y-92660000D02*
X164901248Y-92660000D01*
%TO.C,D2*%
D15*
X152547500Y-102572500D02*
X153600000Y-102572500D01*
X152547500Y-109427500D02*
X152547500Y-102572500D01*
X153600000Y-109427500D02*
X152547500Y-109427500D01*
X157400000Y-109427500D02*
X158452500Y-109427500D01*
X158452500Y-102572500D02*
X157400000Y-102572500D01*
X158452500Y-109427500D02*
X158452500Y-102572500D01*
D16*
X155500000Y-111500000D02*
G75*
G02*
X155300000Y-111500000I-100000J0D01*
G01*
X155300000Y-111500000D02*
G75*
G02*
X155500000Y-111500000I100000J0D01*
G01*
%TO.C,J7*%
D12*
X171440000Y-47200000D02*
X172050000Y-47200000D01*
X171440000Y-48500000D02*
X172050000Y-48500000D01*
X172050000Y-45700000D02*
X172050000Y-49200000D01*
X172050000Y-49200000D02*
X174000000Y-49200000D01*
X174000000Y-49200000D02*
X174000000Y-49810000D01*
X174400000Y-46200000D02*
X174400000Y-45700000D01*
X174500000Y-45700000D02*
X174500000Y-46200000D01*
X174600000Y-45700000D02*
X174600000Y-46200000D01*
X174600000Y-46200000D02*
X174400000Y-46200000D01*
X176400000Y-46200000D02*
X176400000Y-45700000D01*
X176500000Y-45700000D02*
X176500000Y-46200000D01*
X176600000Y-45700000D02*
X176600000Y-46200000D01*
X176600000Y-46200000D02*
X176400000Y-46200000D01*
X178400000Y-46200000D02*
X178400000Y-45700000D01*
X178500000Y-45700000D02*
X178500000Y-46200000D01*
X178600000Y-45700000D02*
X178600000Y-46200000D01*
X178600000Y-46200000D02*
X178400000Y-46200000D01*
X180400000Y-46200000D02*
X180400000Y-45700000D01*
X180500000Y-45700000D02*
X180500000Y-46200000D01*
X180600000Y-45700000D02*
X180600000Y-46200000D01*
X180600000Y-46200000D02*
X180400000Y-46200000D01*
X181000000Y-49200000D02*
X182950000Y-49200000D01*
X181000000Y-49810000D02*
X181000000Y-49200000D01*
X181800000Y-49810000D02*
X181800000Y-50010000D01*
X181800000Y-49910000D02*
X182100000Y-49910000D01*
X181800000Y-50010000D02*
X182100000Y-50010000D01*
X182100000Y-50010000D02*
X182100000Y-49810000D01*
X182610000Y-50110000D02*
X183860000Y-50110000D01*
X182950000Y-45700000D02*
X172050000Y-45700000D01*
X182950000Y-49200000D02*
X182950000Y-45700000D01*
X183560000Y-47200000D02*
X182950000Y-47200000D01*
X183560000Y-48500000D02*
X182950000Y-48500000D01*
X183860000Y-50110000D02*
X183860000Y-48860000D01*
X171440000Y-45090000D02*
X183560000Y-45090000D01*
X183560000Y-49810000D01*
X171440000Y-49810000D01*
X171440000Y-45090000D01*
%TO.C,C15*%
X175640000Y-114623752D02*
X175640000Y-113201248D01*
X178360000Y-114623752D02*
X178360000Y-113201248D01*
%TO.C,U3*%
X156940000Y-73840000D02*
X156990000Y-73840000D01*
X156940000Y-75660000D02*
X156940000Y-73840000D01*
X156990000Y-75660000D02*
X156940000Y-75660000D01*
X160010000Y-73840000D02*
X160060000Y-73840000D01*
X160060000Y-73840000D02*
X160060000Y-75660000D01*
X160060000Y-75660000D02*
X160010000Y-75660000D01*
X160010000Y-73300000D02*
X160340000Y-73060000D01*
X160340000Y-73540000D01*
X160010000Y-73300000D01*
G36*
X160340000Y-73540000D02*
G01*
X160010000Y-73300000D01*
X160340000Y-73060000D01*
X160340000Y-73540000D01*
G37*
%TO.C,R3*%
X158727064Y-70765000D02*
X158272936Y-70765000D01*
X158727064Y-72235000D02*
X158272936Y-72235000D01*
%TO.C,C1*%
X178288748Y-66140000D02*
X179711252Y-66140000D01*
X178288748Y-68860000D02*
X179711252Y-68860000D01*
%TO.C,R13*%
X168865000Y-113027064D02*
X168865000Y-112572936D01*
X170335000Y-113027064D02*
X170335000Y-112572936D01*
%TD*%
%LPC*%
D17*
%TO.C,R5*%
X164500000Y-73412500D03*
X164500000Y-71587500D03*
%TD*%
D18*
%TO.C,R9*%
X170000000Y-44587500D03*
X170000000Y-46412500D03*
%TD*%
D19*
%TO.C,J6*%
X164500000Y-48000000D03*
D20*
X162500000Y-48000000D03*
X160500000Y-48000000D03*
X158500000Y-48000000D03*
X156500000Y-48000000D03*
X154500000Y-48000000D03*
%TD*%
D21*
%TO.C,C19*%
X178700000Y-106000000D03*
X173300000Y-106000000D03*
%TD*%
D22*
%TO.C,C3*%
X156750000Y-91550000D03*
X156750000Y-96950000D03*
%TD*%
D18*
%TO.C,R7*%
X162500000Y-71587500D03*
X162500000Y-73412500D03*
%TD*%
D23*
%TO.C,H2*%
X181500000Y-40500000D03*
%TD*%
D24*
%TO.C,J3*%
X167241750Y-82000000D03*
D25*
X169400750Y-87080000D03*
X169400750Y-84540000D03*
X169400750Y-82000000D03*
X169400750Y-79460000D03*
%TD*%
D17*
%TO.C,R8*%
X174500000Y-74412500D03*
X174500000Y-72587500D03*
%TD*%
D26*
%TO.C,C5*%
X159500000Y-78250000D03*
X161400000Y-78250000D03*
%TD*%
D27*
%TO.C,R2*%
X165912500Y-76500000D03*
X164087500Y-76500000D03*
%TD*%
D28*
%TO.C,L1*%
X172612500Y-99200000D03*
X172612500Y-95000000D03*
%TD*%
D29*
%TO.C,C10*%
X170030000Y-71500000D03*
X168130000Y-71500000D03*
%TD*%
D23*
%TO.C,H3*%
X154500000Y-120500000D03*
%TD*%
D30*
%TO.C,F1*%
X170400000Y-128500000D03*
D31*
X166400000Y-128500000D03*
D32*
X174400000Y-128500000D03*
%TD*%
D33*
%TO.C,J5*%
X170500000Y-40450000D03*
D20*
X172500000Y-40450000D03*
X174500000Y-40450000D03*
X176500000Y-40450000D03*
%TD*%
D34*
%TO.C,C11*%
X167087500Y-102200000D03*
X164137500Y-102200000D03*
%TD*%
D24*
%TO.C,J2*%
X152841000Y-82000000D03*
D25*
X155000000Y-87080000D03*
X155000000Y-84540000D03*
X155000000Y-82000000D03*
X155000000Y-79460000D03*
%TD*%
D27*
%TO.C,R1*%
X161412500Y-81000000D03*
X159587500Y-81000000D03*
%TD*%
D35*
%TO.C,C14*%
X174185000Y-117025000D03*
X174185000Y-115475000D03*
%TD*%
D36*
%TO.C,C18*%
X162112500Y-100350000D03*
X162112500Y-102250000D03*
%TD*%
D37*
%TO.C,U2*%
X164527500Y-98150000D03*
X164527500Y-99100000D03*
X164527500Y-100050000D03*
X166897500Y-100050000D03*
X166897500Y-99100000D03*
X166897500Y-98150000D03*
%TD*%
D38*
%TO.C,C4*%
X160000000Y-109950000D03*
X160000000Y-108050000D03*
%TD*%
D39*
%TO.C,C9*%
X167087500Y-95300000D03*
X164137500Y-95300000D03*
%TD*%
D26*
%TO.C,C13*%
X170050000Y-119312500D03*
X171950000Y-119312500D03*
%TD*%
D40*
%TO.C,U1*%
X155110000Y-68120000D03*
X157650000Y-68120000D03*
X160190000Y-68120000D03*
X162730000Y-68120000D03*
X167810000Y-68120000D03*
X165270000Y-68120000D03*
X172890000Y-52880000D03*
X172890000Y-68120000D03*
X170350000Y-52880000D03*
X167810000Y-52880000D03*
X165270000Y-52880000D03*
X162730000Y-52880000D03*
X160190000Y-52880000D03*
X157650000Y-52880000D03*
X155110000Y-52880000D03*
X170350000Y-68120000D03*
%TD*%
D26*
%TO.C,C2*%
X177550000Y-70500000D03*
X179450000Y-70500000D03*
%TD*%
D41*
%TO.C,Q1*%
X163530001Y-112856500D03*
D42*
X161250000Y-120514600D03*
D41*
X158969999Y-112856500D03*
%TD*%
D23*
%TO.C,H4*%
X181500000Y-130500000D03*
%TD*%
D18*
%TO.C,R10*%
X168000000Y-44587500D03*
X168000000Y-46412500D03*
%TD*%
D43*
%TO.C,C12*%
X167800000Y-117525000D03*
X167800000Y-120475000D03*
%TD*%
D17*
%TO.C,R11*%
X166000000Y-113412500D03*
X166000000Y-111587500D03*
%TD*%
D44*
%TO.C,D3*%
X161850000Y-109500000D03*
X165150000Y-109500000D03*
%TD*%
D45*
%TO.C,D1*%
X171000000Y-91750000D03*
X175000000Y-91750000D03*
%TD*%
D35*
%TO.C,C7*%
X168887500Y-99450000D03*
X168887500Y-97900000D03*
%TD*%
D18*
%TO.C,R12*%
X174000000Y-111887500D03*
X174000000Y-113712500D03*
%TD*%
D17*
%TO.C,R6*%
X174500000Y-78912500D03*
X174500000Y-77087500D03*
%TD*%
D46*
%TO.C,J1*%
X155500000Y-128500000D03*
D47*
X158000000Y-128500000D03*
%TD*%
D37*
%TO.C,U4*%
X170015000Y-115362500D03*
X170015000Y-116312500D03*
X170015000Y-117262500D03*
X172385000Y-117262500D03*
X172385000Y-116312500D03*
X172385000Y-115362500D03*
%TD*%
D33*
%TO.C,J4*%
X159500000Y-40450000D03*
D20*
X161500000Y-40450000D03*
X163500000Y-40450000D03*
X165500000Y-40450000D03*
%TD*%
D23*
%TO.C,H1*%
X154500000Y-40500000D03*
%TD*%
D48*
%TO.C,R4*%
X154087500Y-72000000D03*
X155912500Y-72000000D03*
%TD*%
D49*
%TO.C,C16*%
X180600000Y-115475000D03*
X180600000Y-112525000D03*
%TD*%
D50*
%TO.C,L2*%
X176425000Y-119912500D03*
X181975000Y-119912500D03*
%TD*%
D36*
%TO.C,C17*%
X171800000Y-111850000D03*
X171800000Y-113750000D03*
%TD*%
D39*
%TO.C,C8*%
X167087500Y-91300000D03*
X164137500Y-91300000D03*
%TD*%
D51*
%TO.C,D2*%
X155500000Y-102515000D03*
X155500000Y-109485000D03*
%TD*%
D19*
%TO.C,J7*%
X181500000Y-48000000D03*
D20*
X179500000Y-48000000D03*
X177500000Y-48000000D03*
X175500000Y-48000000D03*
X173500000Y-48000000D03*
%TD*%
D49*
%TO.C,C15*%
X177000000Y-115387500D03*
X177000000Y-112437500D03*
%TD*%
D52*
%TO.C,U3*%
X159450000Y-73612500D03*
X158500000Y-73612500D03*
X157550000Y-73612500D03*
X157550000Y-75887500D03*
X158500000Y-75887500D03*
X159450000Y-75887500D03*
%TD*%
D27*
%TO.C,R3*%
X159412500Y-71500000D03*
X157587500Y-71500000D03*
%TD*%
D53*
%TO.C,C1*%
X177525000Y-67500000D03*
X180475000Y-67500000D03*
%TD*%
D17*
%TO.C,R13*%
X169600000Y-113712500D03*
X169600000Y-111887500D03*
%TD*%
%LPD*%
M02*
