%TF.GenerationSoftware,KiCad,Pcbnew,10.0.5*%
%TF.CreationDate,2026-09-17T20:02:06+02:00*%
%TF.ProjectId,Fan Controller,46616e20-436f-46e7-9472-6f6c6c65722e,rev?*%
%TF.SameCoordinates,Original*%
%TF.FileFunction,Soldermask,Bot*%
%TF.FilePolarity,Negative*%
%FSLAX46Y46*%
G04 Gerber Fmt 4.6, Leading zero omitted, Abs format (unit mm)*
G04 Created by KiCad (PCBNEW 10.0.5) date 2026-09-17 20:02:06*
%MOMM*%
%LPD*%
G01*
G04 APERTURE LIST*
G04 Aperture macros list*
%AMRoundRect*
0 Rectangle with rounded corners*
0 $1 Rounding radius*
0 $2 $3 $4 $5 $6 $7 $8 $9 X,Y pos of 4 corners*
0 Add a 4 corners polygon primitive as box body*
4,1,4,$2,$3,$4,$5,$6,$7,$8,$9,$2,$3,0*
0 Add four circle primitives for the rounded corners*
1,1,$1+$1,$2,$3*
1,1,$1+$1,$4,$5*
1,1,$1+$1,$6,$7*
1,1,$1+$1,$8,$9*
0 Add four rect primitives between the rounded corners*
20,1,$1+$1,$2,$3,$4,$5,0*
20,1,$1+$1,$4,$5,$6,$7,0*
20,1,$1+$1,$6,$7,$8,$9,0*
20,1,$1+$1,$8,$9,$2,$3,0*%
G04 Aperture macros list end*
%ADD10RoundRect,0.250000X0.350000X0.625000X-0.350000X0.625000X-0.350000X-0.625000X0.350000X-0.625000X0*%
%ADD11O,1.200000X1.750000*%
%ADD12C,2.200000*%
%ADD13C,1.295400*%
%ADD14C,1.778800*%
%ADD15C,2.700000*%
%ADD16RoundRect,0.102000X-1.162500X-1.162500X1.162500X-1.162500X1.162500X1.162500X-1.162500X1.162500X0*%
%ADD17C,2.529000*%
%ADD18RoundRect,0.250000X-0.350000X-0.625000X0.350000X-0.625000X0.350000X0.625000X-0.350000X0.625000X0*%
%ADD19C,1.140000*%
%ADD20RoundRect,0.250000X-0.600000X-0.750000X0.600000X-0.750000X0.600000X0.750000X-0.600000X0.750000X0*%
%ADD21O,1.700000X2.000000*%
G04 APERTURE END LIST*
D10*
%TO.C,J6*%
X164500000Y-48000000D03*
D11*
X162500000Y-48000000D03*
X160500000Y-48000000D03*
X158500000Y-48000000D03*
X156500000Y-48000000D03*
X154500000Y-48000000D03*
%TD*%
D12*
%TO.C,H2*%
X181500000Y-40500000D03*
%TD*%
D13*
%TO.C,J3*%
X167241750Y-82000000D03*
D14*
X169400750Y-87080000D03*
X169400750Y-84540000D03*
X169400750Y-82000000D03*
X169400750Y-79460000D03*
%TD*%
D12*
%TO.C,H3*%
X154500000Y-120500000D03*
%TD*%
D15*
%TO.C,F1*%
X170400000Y-128500000D03*
D16*
X166400000Y-128500000D03*
D17*
X174400000Y-128500000D03*
%TD*%
D18*
%TO.C,J5*%
X170500000Y-40450000D03*
D11*
X172500000Y-40450000D03*
X174500000Y-40450000D03*
X176500000Y-40450000D03*
%TD*%
D13*
%TO.C,J2*%
X152841000Y-82000000D03*
D14*
X155000000Y-87080000D03*
X155000000Y-84540000D03*
X155000000Y-82000000D03*
X155000000Y-79460000D03*
%TD*%
D19*
%TO.C,U1*%
X155110000Y-68120000D03*
X157650000Y-68120000D03*
X160190000Y-68120000D03*
X162730000Y-68120000D03*
X167810000Y-68120000D03*
X165270000Y-68120000D03*
X172890000Y-52880000D03*
X172890000Y-68120000D03*
X170350000Y-52880000D03*
X167810000Y-52880000D03*
X165270000Y-52880000D03*
X162730000Y-52880000D03*
X160190000Y-52880000D03*
X157650000Y-52880000D03*
X155110000Y-52880000D03*
X170350000Y-68120000D03*
%TD*%
D12*
%TO.C,H4*%
X181500000Y-130500000D03*
%TD*%
D20*
%TO.C,J1*%
X155500000Y-128500000D03*
D21*
X158000000Y-128500000D03*
%TD*%
D18*
%TO.C,J4*%
X159500000Y-40450000D03*
D11*
X161500000Y-40450000D03*
X163500000Y-40450000D03*
X165500000Y-40450000D03*
%TD*%
D12*
%TO.C,H1*%
X154500000Y-40500000D03*
%TD*%
D10*
%TO.C,J7*%
X181500000Y-48000000D03*
D11*
X179500000Y-48000000D03*
X177500000Y-48000000D03*
X175500000Y-48000000D03*
X173500000Y-48000000D03*
%TD*%
M02*
