%TF.GenerationSoftware,KiCad,Pcbnew,10.0.5*%
%TF.CreationDate,2026-09-17T20:02:05+02:00*%
%TF.ProjectId,Fan Controller,46616e20-436f-46e7-9472-6f6c6c65722e,rev?*%
%TF.SameCoordinates,Original*%
%TF.FileFunction,Copper,L1,Top*%
%TF.FilePolarity,Positive*%
%FSLAX46Y46*%
G04 Gerber Fmt 4.6, Leading zero omitted, Abs format (unit mm)*
G04 Created by KiCad (PCBNEW 10.0.5) date 2026-09-17 20:02:05*
%MOMM*%
%LPD*%
G01*
G04 APERTURE LIST*
G04 Aperture macros list*
%AMRoundRect*
0 Rectangle with rounded corners*
0 $1 Rounding radius*
0 $2 $3 $4 $5 $6 $7 $8 $9 X,Y pos of 4 corners*
0 Add a 4 corners polygon primitive as box body*
4,1,4,$2,$3,$4,$5,$6,$7,$8,$9,$2,$3,0*
0 Add four circle primitives for the rounded corners*
1,1,$1+$1,$2,$3*
1,1,$1+$1,$4,$5*
1,1,$1+$1,$6,$7*
1,1,$1+$1,$8,$9*
0 Add four rect primitives between the rounded corners*
20,1,$1+$1,$2,$3,$4,$5,0*
20,1,$1+$1,$4,$5,$6,$7,0*
20,1,$1+$1,$6,$7,$8,$9,0*
20,1,$1+$1,$8,$9,$2,$3,0*%
G04 Aperture macros list end*
%TA.AperFunction,SMDPad,CuDef*%
%ADD10RoundRect,0.250000X0.450000X-0.262500X0.450000X0.262500X-0.450000X0.262500X-0.450000X-0.262500X0*%
%TD*%
%TA.AperFunction,SMDPad,CuDef*%
%ADD11RoundRect,0.250000X-0.450000X0.262500X-0.450000X-0.262500X0.450000X-0.262500X0.450000X0.262500X0*%
%TD*%
%TA.AperFunction,ComponentPad*%
%ADD12RoundRect,0.250000X0.350000X0.625000X-0.350000X0.625000X-0.350000X-0.625000X0.350000X-0.625000X0*%
%TD*%
%TA.AperFunction,ComponentPad*%
%ADD13O,1.200000X1.750000*%
%TD*%
%TA.AperFunction,SMDPad,CuDef*%
%ADD14RoundRect,0.250000X1.500000X0.550000X-1.500000X0.550000X-1.500000X-0.550000X1.500000X-0.550000X0*%
%TD*%
%TA.AperFunction,SMDPad,CuDef*%
%ADD15RoundRect,0.250000X-0.550000X1.500000X-0.550000X-1.500000X0.550000X-1.500000X0.550000X1.500000X0*%
%TD*%
%TA.AperFunction,ComponentPad*%
%ADD16C,1.574800*%
%TD*%
%TA.AperFunction,SMDPad,CuDef*%
%ADD17RoundRect,0.250000X-0.250000X-0.475000X0.250000X-0.475000X0.250000X0.475000X-0.250000X0.475000X0*%
%TD*%
%TA.AperFunction,SMDPad,CuDef*%
%ADD18RoundRect,0.250000X0.262500X0.450000X-0.262500X0.450000X-0.262500X-0.450000X0.262500X-0.450000X0*%
%TD*%
%TA.AperFunction,SMDPad,CuDef*%
%ADD19R,2.200000X1.500000*%
%TD*%
%TA.AperFunction,SMDPad,CuDef*%
%ADD20RoundRect,0.250000X0.250000X0.475000X-0.250000X0.475000X-0.250000X-0.475000X0.250000X-0.475000X0*%
%TD*%
%TA.AperFunction,ComponentPad*%
%ADD21R,2.325000X2.325000*%
%TD*%
%TA.AperFunction,ComponentPad*%
%ADD22C,2.325000*%
%TD*%
%TA.AperFunction,ComponentPad*%
%ADD23RoundRect,0.250000X-0.350000X-0.625000X0.350000X-0.625000X0.350000X0.625000X-0.350000X0.625000X0*%
%TD*%
%TA.AperFunction,SMDPad,CuDef*%
%ADD24RoundRect,0.250000X0.325000X0.650000X-0.325000X0.650000X-0.325000X-0.650000X0.325000X-0.650000X0*%
%TD*%
%TA.AperFunction,SMDPad,CuDef*%
%ADD25RoundRect,0.225000X0.250000X-0.225000X0.250000X0.225000X-0.250000X0.225000X-0.250000X-0.225000X0*%
%TD*%
%TA.AperFunction,SMDPad,CuDef*%
%ADD26RoundRect,0.250000X-0.475000X0.250000X-0.475000X-0.250000X0.475000X-0.250000X0.475000X0.250000X0*%
%TD*%
%TA.AperFunction,SMDPad,CuDef*%
%ADD27RoundRect,0.068750X-0.551250X-0.206250X0.551250X-0.206250X0.551250X0.206250X-0.551250X0.206250X0*%
%TD*%
%TA.AperFunction,SMDPad,CuDef*%
%ADD28RoundRect,0.250000X0.475000X-0.250000X0.475000X0.250000X-0.475000X0.250000X-0.475000X-0.250000X0*%
%TD*%
%TA.AperFunction,SMDPad,CuDef*%
%ADD29RoundRect,0.250000X0.325000X1.100000X-0.325000X1.100000X-0.325000X-1.100000X0.325000X-1.100000X0*%
%TD*%
%TA.AperFunction,ComponentPad*%
%ADD30C,1.140000*%
%TD*%
%TA.AperFunction,SMDPad,CuDef*%
%ADD31R,0.939800X2.489200*%
%TD*%
%TA.AperFunction,SMDPad,CuDef*%
%ADD32R,5.511800X4.800600*%
%TD*%
%TA.AperFunction,SMDPad,CuDef*%
%ADD33RoundRect,0.250000X-0.650000X0.325000X-0.650000X-0.325000X0.650000X-0.325000X0.650000X0.325000X0*%
%TD*%
%TA.AperFunction,SMDPad,CuDef*%
%ADD34RoundRect,0.225000X-0.225000X-0.375000X0.225000X-0.375000X0.225000X0.375000X-0.225000X0.375000X0*%
%TD*%
%TA.AperFunction,SMDPad,CuDef*%
%ADD35RoundRect,0.250000X-1.000000X-0.650000X1.000000X-0.650000X1.000000X0.650000X-1.000000X0.650000X0*%
%TD*%
%TA.AperFunction,ComponentPad*%
%ADD36RoundRect,0.250000X-0.600000X-0.750000X0.600000X-0.750000X0.600000X0.750000X-0.600000X0.750000X0*%
%TD*%
%TA.AperFunction,ComponentPad*%
%ADD37O,1.700000X2.000000*%
%TD*%
%TA.AperFunction,SMDPad,CuDef*%
%ADD38RoundRect,0.250000X-0.262500X-0.450000X0.262500X-0.450000X0.262500X0.450000X-0.262500X0.450000X0*%
%TD*%
%TA.AperFunction,SMDPad,CuDef*%
%ADD39RoundRect,0.250000X1.100000X-0.325000X1.100000X0.325000X-1.100000X0.325000X-1.100000X-0.325000X0*%
%TD*%
%TA.AperFunction,SMDPad,CuDef*%
%ADD40R,1.850000X3.400000*%
%TD*%
%TA.AperFunction,SMDPad,CuDef*%
%ADD41RoundRect,0.272500X1.287500X-0.817500X1.287500X0.817500X-1.287500X0.817500X-1.287500X-0.817500X0*%
%TD*%
%TA.AperFunction,SMDPad,CuDef*%
%ADD42RoundRect,0.150000X-0.150000X0.512500X-0.150000X-0.512500X0.150000X-0.512500X0.150000X0.512500X0*%
%TD*%
%TA.AperFunction,SMDPad,CuDef*%
%ADD43RoundRect,0.250000X-0.325000X-1.100000X0.325000X-1.100000X0.325000X1.100000X-0.325000X1.100000X0*%
%TD*%
%TA.AperFunction,ViaPad*%
%ADD44C,0.600000*%
%TD*%
%TA.AperFunction,Conductor*%
%ADD45C,0.200000*%
%TD*%
%TA.AperFunction,Conductor*%
%ADD46C,0.400000*%
%TD*%
%TA.AperFunction,Conductor*%
%ADD47C,2.000000*%
%TD*%
%TA.AperFunction,Conductor*%
%ADD48C,1.000000*%
%TD*%
%TA.AperFunction,Conductor*%
%ADD49C,0.600000*%
%TD*%
G04 APERTURE END LIST*
D10*
%TO.P,R5,1*%
%TO.N,Net-(J2-Pin_3)*%
X164500000Y-73412500D03*
%TO.P,R5,2*%
%TO.N,/FAN1_TACH_GPIO*%
X164500000Y-71587500D03*
%TD*%
D11*
%TO.P,R9,1*%
%TO.N,/I2C_SDA*%
X170000000Y-44587500D03*
%TO.P,R9,2*%
%TO.N,/+3V3*%
X170000000Y-46412500D03*
%TD*%
D12*
%TO.P,J6,1,Pin_1_1*%
%TO.N,/+3V3*%
X164500000Y-48000000D03*
D13*
%TO.P,J6,2,Pin_2_2*%
%TO.N,GND*%
X162500000Y-48000000D03*
%TO.P,J6,3,Pin_3_3*%
%TO.N,/GPIO5*%
X160500000Y-48000000D03*
%TO.P,J6,4,Pin_4_4*%
%TO.N,/GPIO10*%
X158500000Y-48000000D03*
%TO.P,J6,5,Pin_5_5*%
%TO.N,/GPIO20*%
X156500000Y-48000000D03*
%TO.P,J6,6,Pin_6_6*%
%TO.N,/GPIO21*%
X154500000Y-48000000D03*
%TD*%
D14*
%TO.P,C19,1*%
%TO.N,/+12V_FAN*%
X178700000Y-106000000D03*
%TO.P,C19,2*%
%TO.N,GND*%
X173300000Y-106000000D03*
%TD*%
D15*
%TO.P,C3,1*%
%TO.N,/+12V_PROTECTED*%
X156750000Y-91550000D03*
%TO.P,C3,2*%
%TO.N,GND*%
X156750000Y-96950000D03*
%TD*%
D11*
%TO.P,R7,1*%
%TO.N,/FAN1_TACH_GPIO*%
X162500000Y-71587500D03*
%TO.P,R7,2*%
%TO.N,/+3V3*%
X162500000Y-73412500D03*
%TD*%
D16*
%TO.P,J3,1,Pin_1_1*%
%TO.N,GND*%
X169400750Y-87080000D03*
%TO.P,J3,2,Pin_2_2*%
%TO.N,/+12V_FAN*%
X169400750Y-84540000D03*
%TO.P,J3,3,Pin_3_3*%
%TO.N,Net-(J3-Pin_3)*%
X169400750Y-82000000D03*
%TO.P,J3,4,Pin_4_4*%
%TO.N,/FAN2_PWM*%
X169400750Y-79460000D03*
%TD*%
D10*
%TO.P,R8,1*%
%TO.N,/FAN2_TACH_GPIO*%
X174500000Y-74412500D03*
%TO.P,R8,2*%
%TO.N,/+3V3*%
X174500000Y-72587500D03*
%TD*%
D17*
%TO.P,C5,1*%
%TO.N,/+3V3*%
X159500000Y-78250000D03*
%TO.P,C5,2*%
%TO.N,GND*%
X161400000Y-78250000D03*
%TD*%
D18*
%TO.P,R2,1*%
%TO.N,/FAN2_PWM*%
X165912500Y-76500000D03*
%TO.P,R2,2*%
%TO.N,Net-(U3-2Y)*%
X164087500Y-76500000D03*
%TD*%
D19*
%TO.P,L1,1*%
%TO.N,Net-(U2-SW)*%
X172612500Y-99200000D03*
%TO.P,L1,2*%
%TO.N,/+5V_BUCK*%
X172612500Y-95000000D03*
%TD*%
D20*
%TO.P,C10,1*%
%TO.N,GND*%
X170030000Y-71500000D03*
%TO.P,C10,2*%
%TO.N,/+3V3*%
X168130000Y-71500000D03*
%TD*%
D21*
%TO.P,F1,P$1*%
%TO.N,/+12V*%
X166400000Y-128500000D03*
D22*
%TO.P,F1,P$2*%
%TO.N,/12V_RAW_FUSED*%
X174400000Y-128500000D03*
%TD*%
D23*
%TO.P,J5,1,Pin_1_1*%
%TO.N,GND*%
X170500000Y-40450000D03*
D13*
%TO.P,J5,2,Pin_2_2*%
%TO.N,/+3V3*%
X172500000Y-40450000D03*
%TO.P,J5,3,Pin_3_3*%
%TO.N,/I2C_SDA*%
X174500000Y-40450000D03*
%TO.P,J5,4,Pin_4_4*%
%TO.N,/I2C_SCL*%
X176500000Y-40450000D03*
%TD*%
D24*
%TO.P,C11,1*%
%TO.N,GND*%
X167087500Y-102200000D03*
%TO.P,C11,2*%
%TO.N,/+12V_PROTECTED*%
X164137500Y-102200000D03*
%TD*%
D16*
%TO.P,J2,1,Pin_1_1*%
%TO.N,GND*%
X155000000Y-87080000D03*
%TO.P,J2,2,Pin_2_2*%
%TO.N,/+12V_FAN*%
X155000000Y-84540000D03*
%TO.P,J2,3,Pin_3_3*%
%TO.N,Net-(J2-Pin_3)*%
X155000000Y-82000000D03*
%TO.P,J2,4,Pin_4_4*%
%TO.N,/FAN1_PWM*%
X155000000Y-79460000D03*
%TD*%
D18*
%TO.P,R1,1*%
%TO.N,Net-(U3-1Y)*%
X161412500Y-81000000D03*
%TO.P,R1,2*%
%TO.N,/FAN1_PWM*%
X159587500Y-81000000D03*
%TD*%
D25*
%TO.P,C14,1*%
%TO.N,/FAN_BUCK_SW*%
X174185000Y-117025000D03*
%TO.P,C14,2*%
%TO.N,/FAN_BUCK_BST*%
X174185000Y-115475000D03*
%TD*%
D26*
%TO.P,C18,1*%
%TO.N,/+12V_PROTECTED*%
X162112500Y-100350000D03*
%TO.P,C18,2*%
%TO.N,GND*%
X162112500Y-102250000D03*
%TD*%
D27*
%TO.P,U2,1,FB_1*%
%TO.N,/+5V_BUCK*%
X164527500Y-98150000D03*
%TO.P,U2,2,EN_2*%
%TO.N,/+12V_PROTECTED*%
X164527500Y-99100000D03*
%TO.P,U2,3,VIN_3*%
X164527500Y-100050000D03*
%TO.P,U2,4,GND_4*%
%TO.N,GND*%
X166897500Y-100050000D03*
%TO.P,U2,5,SW_5*%
%TO.N,Net-(U2-SW)*%
X166897500Y-99100000D03*
%TO.P,U2,6,BST_6*%
%TO.N,Net-(U2-BST)*%
X166897500Y-98150000D03*
%TD*%
D28*
%TO.P,C4,1*%
%TO.N,/+12V_PROTECTED*%
X160000000Y-109950000D03*
%TO.P,C4,2*%
%TO.N,GND*%
X160000000Y-108050000D03*
%TD*%
D29*
%TO.P,C9,1*%
%TO.N,/+5V_BUCK*%
X167087500Y-95300000D03*
%TO.P,C9,2*%
%TO.N,GND*%
X164137500Y-95300000D03*
%TD*%
D17*
%TO.P,C13,1*%
%TO.N,/+12V_PROTECTED*%
X170050000Y-119312500D03*
%TO.P,C13,2*%
%TO.N,GND*%
X171950000Y-119312500D03*
%TD*%
D30*
%TO.P,U1,0,GPIO0_0*%
%TO.N,/FAN2_PWM_GPIO*%
X155110000Y-68120000D03*
%TO.P,U1,1,GPIO1_1*%
%TO.N,/FAN1_PWM_GPIO*%
X157650000Y-68120000D03*
%TO.P,U1,2,GPIO2_2*%
%TO.N,/GPIO2*%
X160190000Y-68120000D03*
%TO.P,U1,3,GPIO3_3*%
%TO.N,/FAN1_TACH_GPIO*%
X162730000Y-68120000D03*
%TO.P,U1,3V3,3V3_3V3*%
%TO.N,/+3V3*%
X167810000Y-68120000D03*
%TO.P,U1,4,GPIO4_4*%
%TO.N,/FAN2_TACH_GPIO*%
X165270000Y-68120000D03*
%TO.P,U1,5,GPIO5_5*%
%TO.N,/GPIO5*%
X172890000Y-52880000D03*
%TO.P,U1,5V,5V_5V*%
%TO.N,/+5V_SYS*%
X172890000Y-68120000D03*
%TO.P,U1,6,GPIO6_6*%
%TO.N,/I2C_SDA*%
X170350000Y-52880000D03*
%TO.P,U1,7,GPIO7_7*%
%TO.N,/I2C_SCL*%
X167810000Y-52880000D03*
%TO.P,U1,8,GPIO8_8*%
%TO.N,/GPIO8*%
X165270000Y-52880000D03*
%TO.P,U1,9,GPIO9_9*%
%TO.N,/GPIO9*%
X162730000Y-52880000D03*
%TO.P,U1,10,GPIO10_10*%
%TO.N,/GPIO10*%
X160190000Y-52880000D03*
%TO.P,U1,20,GPIO20_20*%
%TO.N,/GPIO20*%
X157650000Y-52880000D03*
%TO.P,U1,21,GPIO21_21*%
%TO.N,/GPIO21*%
X155110000Y-52880000D03*
%TO.P,U1,GND,GND_GND*%
%TO.N,GND*%
X170350000Y-68120000D03*
%TD*%
D17*
%TO.P,C2,1*%
%TO.N,/+5V_SYS*%
X177550000Y-70500000D03*
%TO.P,C2,2*%
%TO.N,GND*%
X179450000Y-70500000D03*
%TD*%
D31*
%TO.P,Q1,1,G_1*%
%TO.N,Net-(D3-A)*%
X163530001Y-112856500D03*
D32*
%TO.P,Q1,2,D_2*%
%TO.N,/12V_RAW_FUSED*%
X161250000Y-120514600D03*
D31*
%TO.P,Q1,3,S_3*%
%TO.N,/+12V_PROTECTED*%
X158969999Y-112856500D03*
%TD*%
D11*
%TO.P,R10,1*%
%TO.N,/I2C_SCL*%
X168000000Y-44587500D03*
%TO.P,R10,2*%
%TO.N,/+3V3*%
X168000000Y-46412500D03*
%TD*%
D33*
%TO.P,C12,1*%
%TO.N,/+12V_PROTECTED*%
X167800000Y-117525000D03*
%TO.P,C12,2*%
%TO.N,GND*%
X167800000Y-120475000D03*
%TD*%
D10*
%TO.P,R11,1*%
%TO.N,GND*%
X166000000Y-113412500D03*
%TO.P,R11,2*%
%TO.N,Net-(D3-A)*%
X166000000Y-111587500D03*
%TD*%
D34*
%TO.P,D3,1,K_1*%
%TO.N,/+12V_PROTECTED*%
X161850000Y-109500000D03*
%TO.P,D3,2,A_2*%
%TO.N,Net-(D3-A)*%
X165150000Y-109500000D03*
%TD*%
D35*
%TO.P,D1,1,K_1*%
%TO.N,/+5V_SYS*%
X171000000Y-91750000D03*
%TO.P,D1,2,A_2*%
%TO.N,/+5V_BUCK*%
X175000000Y-91750000D03*
%TD*%
D25*
%TO.P,C7,1*%
%TO.N,Net-(U2-SW)*%
X168887500Y-99450000D03*
%TO.P,C7,2*%
%TO.N,Net-(U2-BST)*%
X168887500Y-97900000D03*
%TD*%
D11*
%TO.P,R12,1*%
%TO.N,/+12V_FAN*%
X174000000Y-111887500D03*
%TO.P,R12,2*%
%TO.N,/FAN_BUCK_FB*%
X174000000Y-113712500D03*
%TD*%
D10*
%TO.P,R6,1*%
%TO.N,Net-(J3-Pin_3)*%
X174500000Y-78912500D03*
%TO.P,R6,2*%
%TO.N,/FAN2_TACH_GPIO*%
X174500000Y-77087500D03*
%TD*%
D36*
%TO.P,J1,1,Pin_1_1*%
%TO.N,GND*%
X155500000Y-128500000D03*
D37*
%TO.P,J1,2,Pin_2_2*%
%TO.N,/+12V*%
X158000000Y-128500000D03*
%TD*%
D27*
%TO.P,U4,1,FB_1*%
%TO.N,/FAN_BUCK_FB*%
X170015000Y-115362500D03*
%TO.P,U4,2,EN_2*%
%TO.N,/+12V_PROTECTED*%
X170015000Y-116312500D03*
%TO.P,U4,3,VIN_3*%
X170015000Y-117262500D03*
%TO.P,U4,4,GND_4*%
%TO.N,GND*%
X172385000Y-117262500D03*
%TO.P,U4,5,SW_5*%
%TO.N,/FAN_BUCK_SW*%
X172385000Y-116312500D03*
%TO.P,U4,6,BST_6*%
%TO.N,/FAN_BUCK_BST*%
X172385000Y-115362500D03*
%TD*%
D23*
%TO.P,J4,1,Pin_1_1*%
%TO.N,GND*%
X159500000Y-40450000D03*
D13*
%TO.P,J4,2,Pin_2_2*%
%TO.N,/+3V3*%
X161500000Y-40450000D03*
%TO.P,J4,3,Pin_3_3*%
%TO.N,/I2C_SDA*%
X163500000Y-40450000D03*
%TO.P,J4,4,Pin_4_4*%
%TO.N,/I2C_SCL*%
X165500000Y-40450000D03*
%TD*%
D38*
%TO.P,R4,1*%
%TO.N,GND*%
X154087500Y-72000000D03*
%TO.P,R4,2*%
%TO.N,/FAN2_PWM_GPIO*%
X155912500Y-72000000D03*
%TD*%
D39*
%TO.P,C16,1*%
%TO.N,/+12V_FAN*%
X180600000Y-115475000D03*
%TO.P,C16,2*%
%TO.N,GND*%
X180600000Y-112525000D03*
%TD*%
D40*
%TO.P,L2,1*%
%TO.N,/FAN_BUCK_SW*%
X176425000Y-119912500D03*
%TO.P,L2,2*%
%TO.N,/+12V_FAN*%
X181975000Y-119912500D03*
%TD*%
D26*
%TO.P,C17,1*%
%TO.N,/+12V_FAN*%
X171800000Y-111850000D03*
%TO.P,C17,2*%
%TO.N,/FAN_BUCK_FB*%
X171800000Y-113750000D03*
%TD*%
D29*
%TO.P,C8,1*%
%TO.N,/+5V_BUCK*%
X167087500Y-91300000D03*
%TO.P,C8,2*%
%TO.N,GND*%
X164137500Y-91300000D03*
%TD*%
D41*
%TO.P,D2,A*%
%TO.N,GND*%
X155500000Y-102515000D03*
%TO.P,D2,C*%
%TO.N,/+12V_PROTECTED*%
X155500000Y-109485000D03*
%TD*%
D12*
%TO.P,J7,1,Pin_1_1*%
%TO.N,/+3V3*%
X181500000Y-48000000D03*
D13*
%TO.P,J7,2,Pin_2_2*%
%TO.N,GND*%
X179500000Y-48000000D03*
%TO.P,J7,3,Pin_3_3*%
%TO.N,/GPIO2*%
X177500000Y-48000000D03*
%TO.P,J7,4,Pin_4_4*%
%TO.N,/GPIO8*%
X175500000Y-48000000D03*
%TO.P,J7,5,Pin_5_5*%
%TO.N,/GPIO9*%
X173500000Y-48000000D03*
%TD*%
D39*
%TO.P,C15,1*%
%TO.N,/+12V_FAN*%
X177000000Y-115387500D03*
%TO.P,C15,2*%
%TO.N,GND*%
X177000000Y-112437500D03*
%TD*%
D42*
%TO.P,U3,1,1A_1*%
%TO.N,/FAN1_PWM_GPIO*%
X159450000Y-73612500D03*
%TO.P,U3,2,GND_2*%
%TO.N,GND*%
X158500000Y-73612500D03*
%TO.P,U3,3,2A_3*%
%TO.N,/FAN2_PWM_GPIO*%
X157550000Y-73612500D03*
%TO.P,U3,4,2Y_4*%
%TO.N,Net-(U3-2Y)*%
X157550000Y-75887500D03*
%TO.P,U3,5,VCC_5*%
%TO.N,/+3V3*%
X158500000Y-75887500D03*
%TO.P,U3,6,1Y_6*%
%TO.N,Net-(U3-1Y)*%
X159450000Y-75887500D03*
%TD*%
D18*
%TO.P,R3,1*%
%TO.N,GND*%
X159412500Y-71500000D03*
%TO.P,R3,2*%
%TO.N,/FAN1_PWM_GPIO*%
X157587500Y-71500000D03*
%TD*%
D43*
%TO.P,C1,1*%
%TO.N,/+5V_SYS*%
X177525000Y-67500000D03*
%TO.P,C1,2*%
%TO.N,GND*%
X180475000Y-67500000D03*
%TD*%
D10*
%TO.P,R13,1*%
%TO.N,/FAN_BUCK_FB*%
X169600000Y-113712500D03*
%TO.P,R13,2*%
%TO.N,GND*%
X169600000Y-111887500D03*
%TD*%
D44*
%TO.N,Net-(J2-Pin_3)*%
X166000000Y-73500000D03*
%TO.N,/+3V3*%
X160250000Y-77000000D03*
X174500000Y-71250000D03*
X159000000Y-77000000D03*
X161000000Y-73500000D03*
X167000000Y-71500000D03*
X168000000Y-48000000D03*
X170000000Y-48000000D03*
%TO.N,GND*%
X166000000Y-120500000D03*
X172000000Y-120500000D03*
X158250000Y-99250000D03*
X173500000Y-118500000D03*
X162612500Y-91300000D03*
X171000000Y-106000000D03*
X180500000Y-111000000D03*
X152500000Y-72000000D03*
X154743119Y-100429379D03*
X155493119Y-100429379D03*
X180750000Y-70500000D03*
X177000000Y-111000000D03*
X162612500Y-95300000D03*
X156243119Y-100429379D03*
X167112500Y-103800000D03*
X167800000Y-111712500D03*
X182000000Y-67500000D03*
X160000000Y-106000000D03*
X161400000Y-79650000D03*
X162112500Y-103300000D03*
X160750000Y-71500000D03*
X168112500Y-100800000D03*
X156923473Y-72583726D03*
%TO.N,/+12V_PROTECTED*%
X165612500Y-102200000D03*
X155500000Y-107000000D03*
X155000000Y-106500000D03*
X166000000Y-117500000D03*
X156000000Y-106500000D03*
X158250000Y-90000000D03*
%TO.N,/+5V_SYS*%
X170750000Y-86750000D03*
%TD*%
%TO.N,Net-(J2-Pin_3)*%
D45*
X164587500Y-73500000D02*
X164500000Y-73412500D01*
X166000000Y-73500000D02*
X164587500Y-73500000D01*
%TO.N,/FAN1_TACH_GPIO*%
X162730000Y-68120000D02*
X162730000Y-71357500D01*
X162730000Y-71357500D02*
X162587500Y-71500000D01*
X164500000Y-71587500D02*
X162500000Y-71587500D01*
%TO.N,/I2C_SDA*%
X171000000Y-45587500D02*
X171000000Y-52230000D01*
X170000000Y-44587500D02*
X171000000Y-45587500D01*
X171000000Y-52230000D02*
X170350000Y-52880000D01*
X170000000Y-44587500D02*
X170362500Y-44587500D01*
X170362500Y-44587500D02*
X174500000Y-40450000D01*
%TO.N,/+3V3*%
X160250000Y-77000000D02*
X160250000Y-77500000D01*
X158500000Y-77250000D02*
X159500000Y-78250000D01*
X160250000Y-77500000D02*
X159500000Y-78250000D01*
X162412500Y-73500000D02*
X162500000Y-73412500D01*
X167810000Y-68120000D02*
X167810000Y-71180000D01*
X170000000Y-46412500D02*
X170000000Y-48000000D01*
X158500000Y-75887500D02*
X158500000Y-77250000D01*
X161000000Y-73500000D02*
X162412500Y-73500000D01*
X168000000Y-48000000D02*
X168000000Y-46412500D01*
X158500000Y-76500000D02*
X159000000Y-77000000D01*
X167000000Y-71500000D02*
X168130000Y-71500000D01*
X174500000Y-71250000D02*
X174500000Y-72587500D01*
X167810000Y-71180000D02*
X168130000Y-71500000D01*
X158500000Y-75887500D02*
X158500000Y-76500000D01*
%TO.N,GND*%
D46*
X167087500Y-100240000D02*
X166897500Y-100050000D01*
X167700000Y-111712500D02*
X166000000Y-113412500D01*
D45*
X169425000Y-111712500D02*
X169600000Y-111887500D01*
D46*
X156750000Y-96950000D02*
X156750000Y-97750000D01*
X172385000Y-117262500D02*
X171950000Y-117697500D01*
X166897500Y-100050000D02*
X167362500Y-100050000D01*
X167800000Y-111712500D02*
X169425000Y-111712500D01*
D45*
X167087500Y-103775000D02*
X167112500Y-103800000D01*
X161400000Y-79650000D02*
X161400000Y-78250000D01*
D46*
X172385000Y-117262500D02*
X172385000Y-117385000D01*
D45*
X180600000Y-111100000D02*
X180500000Y-111000000D01*
D46*
X167087500Y-102200000D02*
X167087500Y-103775000D01*
X167087500Y-102200000D02*
X167087500Y-100240000D01*
X171950000Y-119312500D02*
X171950000Y-120450000D01*
D45*
X166897500Y-102010000D02*
X167087500Y-102200000D01*
X170030000Y-68440000D02*
X170350000Y-68120000D01*
X159412500Y-71500000D02*
X160750000Y-71500000D01*
X158168470Y-72583726D02*
X156923473Y-72583726D01*
D46*
X172385000Y-117385000D02*
X173500000Y-118500000D01*
X167800000Y-111712500D02*
X167700000Y-111712500D01*
D45*
X167775000Y-120500000D02*
X167800000Y-120475000D01*
D47*
X155500000Y-102515000D02*
X155500000Y-100436260D01*
D45*
X154087500Y-72000000D02*
X152500000Y-72000000D01*
D46*
X160000000Y-108050000D02*
X160000000Y-106000000D01*
X167362500Y-100050000D02*
X168112500Y-100800000D01*
X173300000Y-106000000D02*
X171000000Y-106000000D01*
D45*
X155500000Y-100436260D02*
X155493119Y-100429379D01*
D46*
X180600000Y-112525000D02*
X180600000Y-111100000D01*
D45*
X158500000Y-72915256D02*
X158168470Y-72583726D01*
X158500000Y-73612500D02*
X158500000Y-72915256D01*
D46*
X164137500Y-91300000D02*
X162612500Y-91300000D01*
D45*
X170030000Y-71500000D02*
X170030000Y-68440000D01*
D46*
X156750000Y-97750000D02*
X158250000Y-99250000D01*
D45*
X171950000Y-120450000D02*
X172000000Y-120500000D01*
D46*
X162612500Y-95300000D02*
X164137500Y-95300000D01*
X171950000Y-117697500D02*
X171950000Y-119312500D01*
X166000000Y-120500000D02*
X167775000Y-120500000D01*
X177000000Y-112437500D02*
X177000000Y-111000000D01*
D45*
X180475000Y-67500000D02*
X182000000Y-67500000D01*
D46*
X162112500Y-102250000D02*
X162112500Y-103300000D01*
D45*
X180750000Y-70500000D02*
X179450000Y-70500000D01*
%TO.N,/GPIO5*%
X160500000Y-48000000D02*
X164510000Y-52010000D01*
X167449634Y-53750000D02*
X172020000Y-53750000D01*
X164510000Y-52010000D02*
X165709634Y-52010000D01*
X172020000Y-53750000D02*
X172890000Y-52880000D01*
X165709634Y-52010000D02*
X167449634Y-53750000D01*
%TO.N,/GPIO10*%
X160190000Y-52880000D02*
X160190000Y-49690000D01*
X160190000Y-49690000D02*
X158500000Y-48000000D01*
%TO.N,/GPIO20*%
X157650000Y-52880000D02*
X157650000Y-49150000D01*
X157650000Y-49150000D02*
X156500000Y-48000000D01*
%TO.N,/GPIO21*%
X155110000Y-52880000D02*
X155110000Y-48610000D01*
X155110000Y-48610000D02*
X154500000Y-48000000D01*
%TO.N,/+12V_FAN*%
X180512500Y-115387500D02*
X180600000Y-115475000D01*
D46*
X177000000Y-115387500D02*
X180512500Y-115387500D01*
D48*
X182500000Y-89200000D02*
X182500000Y-105000000D01*
X177840000Y-84540000D02*
X169400750Y-84540000D01*
D46*
X180600000Y-115475000D02*
X181975000Y-116850000D01*
D48*
X182350000Y-89050000D02*
X177840000Y-84540000D01*
D49*
X182350000Y-89050000D02*
X182500000Y-89200000D01*
D48*
X182500000Y-105000000D02*
X181500000Y-106000000D01*
D46*
X171800000Y-111850000D02*
X173962500Y-111850000D01*
D48*
X183250000Y-112825000D02*
X180600000Y-115475000D01*
D45*
X174000000Y-111887500D02*
X174300000Y-111887500D01*
X173962500Y-111850000D02*
X174000000Y-111887500D01*
D48*
X182500000Y-105000000D02*
X183250000Y-105750000D01*
X183250000Y-105750000D02*
X183250000Y-112825000D01*
D46*
X174000000Y-111887500D02*
X177000000Y-114887500D01*
D48*
X181500000Y-106000000D02*
X178700000Y-106000000D01*
D45*
X177000000Y-114887500D02*
X177000000Y-115387500D01*
D46*
X181975000Y-116850000D02*
X181975000Y-119912500D01*
%TO.N,/+12V_PROTECTED*%
X170015000Y-116312500D02*
X170015000Y-117262500D01*
X170050000Y-119312500D02*
X170050000Y-117297500D01*
D45*
X167775000Y-117500000D02*
X167800000Y-117525000D01*
X170050000Y-117297500D02*
X170015000Y-117262500D01*
D46*
X164137500Y-100440000D02*
X164527500Y-100050000D01*
X164137500Y-102200000D02*
X165612500Y-102200000D01*
X158250000Y-90000000D02*
X156750000Y-91500000D01*
X168012500Y-117262500D02*
X170015000Y-117262500D01*
D45*
X169890000Y-116437500D02*
X170015000Y-116312500D01*
D47*
X156856500Y-112856500D02*
X155500000Y-111500000D01*
D46*
X161850000Y-109500000D02*
X160450000Y-109500000D01*
X164527500Y-100050000D02*
X162412500Y-100050000D01*
D47*
X155500000Y-111500000D02*
X155500000Y-109485000D01*
D46*
X164137500Y-102200000D02*
X164137500Y-100440000D01*
X160450000Y-109500000D02*
X160000000Y-109950000D01*
X167775000Y-117500000D02*
X168012500Y-117262500D01*
X164527500Y-100050000D02*
X164527500Y-99100000D01*
D47*
X158969999Y-112856500D02*
X156856500Y-112856500D01*
X155500000Y-109485000D02*
X155500000Y-107000000D01*
D46*
X166000000Y-117500000D02*
X167775000Y-117500000D01*
X158969999Y-110980001D02*
X158969999Y-112856500D01*
X162412500Y-100050000D02*
X162112500Y-100350000D01*
X160000000Y-109950000D02*
X158969999Y-110980001D01*
X156750000Y-91500000D02*
X156750000Y-91550000D01*
%TO.N,Net-(J3-Pin_3)*%
D45*
X173970600Y-78383100D02*
X174500000Y-78912500D01*
X170353700Y-82000000D02*
X173970600Y-78383100D01*
X169400750Y-82000000D02*
X170353700Y-82000000D01*
%TO.N,/FAN2_PWM*%
X166440750Y-76500000D02*
X169400750Y-79460000D01*
X165912500Y-76500000D02*
X166440750Y-76500000D01*
%TO.N,/FAN2_TACH_GPIO*%
X165270000Y-70618529D02*
X165270000Y-68120000D01*
X174500000Y-74412500D02*
X169063971Y-74412500D01*
X174500000Y-77087500D02*
X174500000Y-74412500D01*
X169063971Y-74412500D02*
X165270000Y-70618529D01*
%TO.N,Net-(U3-2Y)*%
X157850001Y-74925000D02*
X157550000Y-75225001D01*
X164087500Y-76500000D02*
X162512500Y-74925000D01*
X162512500Y-74925000D02*
X157850001Y-74925000D01*
X157550000Y-75225001D02*
X157550000Y-75887500D01*
%TO.N,Net-(U2-SW)*%
D46*
X168462500Y-99450000D02*
X168112500Y-99100000D01*
X168112500Y-99100000D02*
X166897500Y-99100000D01*
X172362500Y-99450000D02*
X172612500Y-99200000D01*
X168887500Y-99450000D02*
X172362500Y-99450000D01*
X168887500Y-99450000D02*
X168462500Y-99450000D01*
%TO.N,/+5V_BUCK*%
D45*
X172612500Y-95000000D02*
X170787500Y-95000000D01*
D46*
X167087500Y-95300000D02*
X167387500Y-95000000D01*
X167387500Y-95000000D02*
X172612500Y-95000000D01*
X170787500Y-95000000D02*
X167087500Y-91300000D01*
X164527500Y-98150000D02*
X165037500Y-98150000D01*
X172612500Y-95000000D02*
X172612500Y-94137500D01*
X172612500Y-94137500D02*
X175000000Y-91750000D01*
X167087500Y-96100000D02*
X167087500Y-95300000D01*
X165037500Y-98150000D02*
X167087500Y-96100000D01*
%TO.N,/+12V*%
D47*
X158000000Y-128500000D02*
X166400000Y-128500000D01*
%TO.N,/12V_RAW_FUSED*%
X164600000Y-124400000D02*
X170300000Y-124400000D01*
X170300000Y-124400000D02*
X174400000Y-128500000D01*
X161250000Y-121050000D02*
X164600000Y-124400000D01*
D46*
X161250000Y-120514600D02*
X161250000Y-121050000D01*
%TO.N,/I2C_SCL*%
D45*
X168000000Y-44587500D02*
X168000000Y-42950000D01*
X165500000Y-40450000D02*
X165500000Y-40587500D01*
X168000000Y-44587500D02*
X167000000Y-45587500D01*
X167000000Y-45587500D02*
X167000000Y-52070000D01*
X167000000Y-52070000D02*
X167810000Y-52880000D01*
X168000000Y-42950000D02*
X165500000Y-40450000D01*
%TO.N,/FAN1_PWM*%
X159500000Y-81087500D02*
X156627500Y-81087500D01*
X156627500Y-81087500D02*
X155000000Y-79460000D01*
%TO.N,Net-(U3-1Y)*%
X162500000Y-79912500D02*
X161412500Y-81000000D01*
X161387500Y-75887500D02*
X162500000Y-77000000D01*
X159450000Y-75887500D02*
X161387500Y-75887500D01*
X162500000Y-77000000D02*
X162500000Y-79912500D01*
%TO.N,/FAN_BUCK_SW*%
D46*
X172385000Y-116312500D02*
X173472500Y-116312500D01*
X173472500Y-116312500D02*
X174185000Y-117025000D01*
X174185000Y-117025000D02*
X174185000Y-117672500D01*
X174185000Y-117672500D02*
X176425000Y-119912500D01*
%TO.N,/FAN_BUCK_BST*%
X174185000Y-115475000D02*
X174072500Y-115362500D01*
X174072500Y-115362500D02*
X172372500Y-115362500D01*
%TO.N,Net-(U2-BST)*%
X167147500Y-97900000D02*
X166897500Y-98150000D01*
X168887500Y-97900000D02*
X167147500Y-97900000D01*
%TO.N,/FAN2_PWM_GPIO*%
D45*
X157587500Y-73575000D02*
X157550000Y-73612500D01*
X155937500Y-72000000D02*
X155912500Y-72000000D01*
X156825000Y-73612500D02*
X155912500Y-72700000D01*
X155912500Y-72000000D02*
X155912500Y-71162500D01*
X155912500Y-71162500D02*
X155110000Y-70360000D01*
X155912500Y-72700000D02*
X155912500Y-72000000D01*
X157550000Y-73612500D02*
X156825000Y-73612500D01*
X155110000Y-70360000D02*
X155110000Y-68120000D01*
%TO.N,/FAN1_PWM_GPIO*%
X157587500Y-68182500D02*
X157650000Y-68120000D01*
X157690552Y-71500000D02*
X159450000Y-73259448D01*
X157587500Y-71500000D02*
X157690552Y-71500000D01*
X157650000Y-71437500D02*
X157587500Y-71500000D01*
X159450000Y-73259448D02*
X159450000Y-73612500D01*
X157650000Y-68120000D02*
X157650000Y-71437500D01*
%TO.N,/+5V_SYS*%
D46*
X177525000Y-70475000D02*
X177550000Y-70500000D01*
X170612500Y-86887500D02*
X170750000Y-86750000D01*
X177525000Y-67500000D02*
X177525000Y-70475000D01*
D45*
X177550000Y-67525000D02*
X177525000Y-67500000D01*
D46*
X177525000Y-67500000D02*
X176905000Y-68120000D01*
X170612500Y-91100000D02*
X170612500Y-86887500D01*
X176905000Y-68120000D02*
X172890000Y-68120000D01*
%TO.N,Net-(D3-A)*%
X165150000Y-110737500D02*
X166000000Y-111587500D01*
X165150000Y-109500000D02*
X165150000Y-110737500D01*
X166000000Y-111587500D02*
X164799001Y-111587500D01*
X164799001Y-111587500D02*
X163530001Y-112856500D01*
%TO.N,/FAN_BUCK_FB*%
X169600000Y-114947500D02*
X170015000Y-115362500D01*
D45*
X171837500Y-113712500D02*
X171800000Y-113750000D01*
X169637500Y-113750000D02*
X169600000Y-113712500D01*
D46*
X171800000Y-113750000D02*
X169637500Y-113750000D01*
X174000000Y-113712500D02*
X171837500Y-113712500D01*
X169600000Y-113712500D02*
X169600000Y-114947500D01*
%TD*%
M02*
